<?xml version="1.0" encoding="UTF-8" standalone="no"?>
<!DOCTYPE svg PUBLIC "-//W3C//DTD SVG 1.1//EN" "http://www.w3.org/Graphics/SVG/1.1/DTD/svg11.dtd">
<svg xmlns="http://www.w3.org/2000/svg" xmlns:xlink="http://www.w3.org/1999/xlink" version="1.1" width="1133.86pt" height="708.661pt" viewBox="0 0 1133.86 708.661">
<g enable-background="new">
<g id="Layer-1" data-name="Layer 1">
<clipPath id="cp6">
<path transform="matrix(1,0,0,-1,0,708.661)" d="M 0 708.661 L 1133.858 708.661 L 1133.858 0 L 0 0 Z "/>
</clipPath>
<g clip-path="url(#cp6)">
<path transform="matrix(1,0,0,-1,976.8657,384.2532)" d="M 0 0 C .436 .983 1.573 1.443 2.569 1.02 C 3.579 .591 4.03 -.548 3.595 -1.549 C 3.184 -2.55 2.039 -3.004 1.041 -2.563 C .037 -2.121 -.423 -1.001 0 0 M 3.257 -1.567 C 3.701 -.764 3.388 .237 2.6 .657 C 1.817 1.093 .795 .84 .359 .021 C -.085 -.775 .226 -1.777 1.022 -2.228 C 1.793 -2.645 2.821 -2.377 3.257 -1.567 M 2.109 -2.146 L 1.793 -1.972 L 1.708 -.794 L 1.397 -.627 L .916 -1.491 L 1.695 .526 L 2.505 .07 C 2.837 -.115 3.129 -.383 2.895 -.775 C 2.69 -1.15 2.365 -1.147 2.021 -.977 Z M 1.856 -.541 C 2.082 -.672 2.469 -.935 2.636 -.63 L 2.304 -.164 L 1.805 .116 L 1.543 -.371 Z M -28.789 -50.493 L -28.789 -54.018 Z M -27.6 -32.423 C -29.042 -33.698 -31.906 -36.44 -34.66 -39.098 L -37.799 -42.104 C -40.34 -41.633 -42.845 -41.417 -45.462 -41.417 C -51.248 -41.417 -56.56 -43.012 -58.985 -45.492 C -59.892 -46.442 -60.367 -47.465 -60.333 -48.545 C -60.278 -51.36 -57.064 -52.772 -56.094 -53.135 C -50.94 -55.056 -46.634 -54.495 -42.093 -51.306 C -39.598 -49.556 -36.578 -46.759 -34.229 -44.482 C -32.39 -44.902 -30.314 -45.447 -28.083 -46.107 L -26.02 -46.701 C -28.698 -49.337 -31.435 -52.106 -33.97 -54.347 C -37.701 -57.634 -40.252 -59.877 -43.952 -60.707 C -46.537 -61.273 -48.381 -60.729 -48.98 -60.363 C -46.993 -62.238 -44.976 -63.24 -41.49 -62.941 C -38.167 -62.649 -34.354 -60.564 -30.439 -56.891 L -25.158 -51.714 L -21.46 -48.037 L -13.97 -50.237 L -18.472 -54.775 L -22.443 -58.744 C -26.516 -62.683 -28.737 -64.737 -31.111 -66.433 C -35.053 -69.224 -38.423 -70.666 -41.39 -70.87 C -42.921 -70.971 -45.148 -70.864 -46.993 -69.79 C -45.191 -71.589 -42.708 -73.643 -38.471 -73.539 C -33.678 -73.378 -29.423 -71.089 -22.803 -65.015 C -19.786 -62.238 -16.785 -59.158 -14.152 -56.4 L -9.234 -51.422 C -5.993 -52.146 -3.11 -52.447 .092 -52.374 C 4.754 -52.265 8.735 -50.052 8.781 -47.492 C 8.829 -45.605 7.274 -44.586 6.349 -43.989 C 5.591 -43.493 3.506 -42.33 .627 -42.33 C -2.87 -42.33 -6.507 -43.879 -10.211 -46.92 L -12.674 -49.105 L -13.571 -48.858 L -20.416 -46.92 C -18.383 -45.042 -16.667 -43.429 -15.133 -42.041 C -11.374 -38.715 -7.247 -37.329 -4.821 -37.181 C -3.053 -37.059 .019 -37.223 1.281 -38.115 C -1.954 -35.096 -4.863 -34.715 -7.265 -34.715 C -9.621 -34.715 -13.432 -35.458 -18.091 -39.067 C -19.981 -40.544 -22.443 -43.012 -25.027 -45.614 L -28.491 -44.549 L -29.325 -44.29 L -32.965 -43.18 L -30.884 -41.226 C -28.427 -38.814 -26.123 -36.551 -24.315 -35.001 C -17.741 -29.483 -13.607 -28.765 -10.747 -28.737 C -7.6 -28.737 -5.092 -29.386 -3.302 -30.68 C -6.857 -27.216 -9.518 -26.139 -14.083 -26.107 C -18.101 -26.074 -22.915 -28.326 -27.6 -32.423 M -53.403 -52.146 C -55.533 -51.987 -56.565 -51.145 -56.565 -49.495 C -56.565 -49.285 -56.419 -44.062 -44.497 -43.475 C -43.134 -43.398 -41.63 -43.359 -39.305 -43.624 L -40.659 -44.774 L -41.408 -45.465 C -44.27 -48.079 -49.105 -52.447 -53.403 -52.146 M -5.146 -47.931 C -1.72 -45.603 1.142 -44.366 2.922 -44.427 C 3.969 -44.461 5.22 -44.774 5.22 -46.077 C 5.22 -47.416 3.947 -48.518 1.47 -49.419 C -.706 -50.204 -4.051 -50.408 -7.697 -50.003 C -6.696 -49.09 -5.855 -48.384 -5.146 -47.931 M -4.873 -9.505 L -7.375 -8.562 L -6.422 -5 C -6.327 -4.604 -6.166 -4.029 -5.956 -3.299 C -5.752 -2.563 -5.576 -1.979 -5.466 -1.546 C -5.296 -1.077 -5.146 -.587 -4.985 -.061 L -4.721 .782 C -5.418 -.441 -5.697 -.849 -6.343 -1.811 C -6.604 -2.246 -6.857 -2.614 -7.073 -2.909 L -10.439 -7.646 L -12.612 -7.07 L -13.291 -1.379 C -13.346 -1.093 -13.361 -.679 -13.397 -.118 L -13.498 1.599 C -13.508 1.902 -13.508 2.374 -13.498 3.031 L -13.8 1.599 C -14.152 .021 -14.311 -.651 -14.776 -2.517 L -15.769 -6.349 L -18.407 -5.935 L -15.425 5.695 L -11.438 4.931 L -10.868 -.587 C -10.726 -1.878 -10.698 -2.955 -10.747 -4.486 C -10.293 -3.612 -10.142 -3.32 -9.621 -2.517 L -8.698 -1.099 L -5.576 3.385 L -1.771 2.098 Z M -23.972 -5.691 L -27.085 -5.904 L -28.628 -3.329 L -33.419 -4.105 L -34.085 -7.021 L -37.05 -7.771 L -33.927 5.227 L -30.986 5.683 Z M -30.783 .424 C -31.435 1.513 -31.678 2.003 -32.059 2.858 C -32.168 1.997 -32.262 1.373 -32.561 .152 L -33.063 -2.118 L -29.599 -1.562 Z M -46.993 -1.077 L -52.992 -4.586 L -51.72 -6.787 L -46.205 -3.558 L -45.191 -5.32 L -50.676 -8.528 L -49.215 -11.075 L -43.091 -7.478 L -41.978 -9.371 L -50.566 -14.396 L -56.565 -4.118 L -48.107 .844 Z M -63.048 -12.348 L -65.563 -15.425 L -58.06 -21.561 L -59.85 -23.765 L -67.367 -17.619 L -69.863 -20.69 L -71.564 -19.287 L -64.753 -10.947 Z M -71.096 -34.21 L -66.512 -35.813 L -67.068 -37.421 L -71.658 -35.813 L -79.867 -38.298 L -79.183 -36.337 L -74.072 -34.907 L -73.445 -34.728 C -73.195 -34.651 -73.04 -34.63 -72.593 -34.521 C -72.988 -34.052 -73.08 -33.936 -73.506 -33.36 L -76.65 -29.084 L -75.989 -27.213 Z M -76.354 -52.63 L -69.36 -46.756 L -69.309 -48.932 L -75.244 -53.832 L -73.323 -55.944 L -69.153 -55.862 L -69.117 -57.579 L -81.006 -57.831 L -81.054 -56.121 L -76.37 -56.018 L -75.125 -56.018 L -75.521 -55.588 L -75.938 -55.178 L -81.185 -49.495 L -81.246 -47.23 Z M -75.049 -69.306 C -76.52 -70.118 -76.839 -71.339 -76.093 -73.25 C -75.399 -74.97 -74.315 -75.736 -73.156 -75.256 C -72.225 -74.896 -72.063 -74.09 -72.438 -71.999 L -72.617 -71.199 C -72.988 -69.15 -73.053 -68.277 -72.815 -67.395 C -72.565 -66.393 -72.003 -65.754 -71.142 -65.403 C -69.05 -64.576 -67.078 -65.876 -65.903 -68.788 C -64.634 -71.957 -65.313 -74.349 -67.796 -75.378 L -68.414 -73.822 C -66.686 -73.092 -66.256 -71.485 -67.193 -69.175 C -67.942 -67.297 -69.117 -66.454 -70.39 -66.978 C -71.403 -67.373 -71.628 -68.311 -71.257 -70.45 L -71.114 -71.339 L -70.983 -72.14 C -70.712 -73.71 -70.679 -74.282 -70.831 -74.951 C -71.028 -75.795 -71.564 -76.412 -72.432 -76.75 C -74.397 -77.545 -76.291 -76.379 -77.341 -73.74 C -78.485 -70.87 -77.874 -68.739 -75.683 -67.757 Z M 6.681 -16.818 C 14.171 -24.449 19.15 -34.688 19.945 -46.198 C 21.716 -71.622 2.569 -93.646 -22.833 -95.432 C -34.785 -96.278 -45.968 -92.477 -54.675 -85.586 C -45.682 -94.041 -33.324 -98.85 -20.063 -97.912 C 5.363 -96.138 24.504 -74.097 22.742 -48.7 C 21.832 -35.838 15.754 -24.562 6.681 -16.818 " fill="#004381" fill-rule="evenodd"/>
<path transform="matrix(1,0,0,-1,660.9848,415.5354)" d="M 0 0 C 0 3.686 3.953 5.648 8.306 5.648 C 15.711 5.648 14.877 -.256 20.17 -.256 C 22.571 -.256 24.035 1.117 24.035 3.479 C 24.035 7.551 18.621 10.254 10.202 10.531 C 2.134 10.79 -2.052 9.365 -4.937 8.239 C -8.182 6.976 -9.611 5.132 -9.611 2.246 L -9.611 -37.771 C -9.611 -39.877 -8.589 -39.877 -4.8 -39.877 C -1.029 -39.877 0 -39.877 0 -37.771 Z M -315.635 9.801 C -317.887 9.764 -320.948 9.798 -320.948 9.798 C -322.464 9.798 -322.474 8.96 -322.474 7.25 C -322.474 5.618 -322.471 4.767 -320.954 4.767 L -315.635 4.767 C -314.542 4.77 -314.499 4.647 -314.515 3.506 C -314.542 1.104 -314.515 -27.873 -314.515 -27.873 C -314.515 -39.299 -308.405 -40.659 -302.358 -40.754 C -296.384 -40.839 -292.46 -39.074 -292.527 -36.959 C -292.57 -35.738 -293.383 -35.185 -294.771 -35.343 C -295.747 -35.455 -296.433 -35.753 -297.744 -35.753 C -300.912 -35.753 -304.896 -34.901 -304.896 -27.952 L -304.899 3.409 C -304.908 4.62 -304.899 4.77 -303.691 4.767 L -295.038 4.767 C -293.522 4.767 -293.471 5.618 -293.471 7.25 C -293.471 8.93 -293.522 9.804 -295.038 9.804 L -303.74 9.804 C -304.902 9.807 -304.891 9.919 -304.894 10.933 L -304.896 21.484 C -304.899 23.174 -306.184 23.776 -307.219 23.686 C -307.977 23.621 -308.874 23.132 -311.005 21.737 C -313.79 19.914 -314.515 18.752 -314.515 15.425 L -314.515 11.009 C -314.521 9.798 -314.566 9.818 -315.635 9.801 M -433.023 -36.578 C -431.708 -39.719 -431.404 -39.96 -426.395 -39.96 C -421.573 -39.96 -421.467 -39.768 -420.063 -36.548 C -418.66 -33.327 -400.359 12.677 -395.505 24.711 C -394.424 27.387 -394.893 27.614 -399.209 27.614 C -402.982 27.614 -403.33 27.396 -404.048 25.764 C -404.048 25.764 -424.556 -26.668 -424.994 -27.88 C -425.104 -28.221 -425.545 -28.245 -425.728 -27.834 C -426.385 -26.349 -447.2 25.913 -447.2 25.913 C -447.702 27.253 -447.83 27.736 -453.455 27.736 C -459.582 27.736 -459.177 27.146 -457.956 24.13 C -457.661 23.405 -434.338 -33.438 -433.023 -36.578 M 166.813 -25.113 C 166.813 -24.251 166.153 -23.381 164.936 -23.381 C 163.825 -23.381 163.277 -23.771 162.61 -24.921 C 160.066 -29.24 153.821 -34.299 145.509 -34.384 C 134.284 -34.487 127.807 -26.422 128.096 -13.958 C 128.096 -13.532 128.272 -13.164 128.915 -13.154 C 129.561 -13.133 146.479 -13.121 163.542 -13.154 C 166.813 -13.16 166.865 -10.99 166.865 -9.201 C 166.865 1.12 157.245 10.652 143.46 10.652 C 129.146 10.652 118.149 2.846 118.149 -15.114 C 118.149 -34.229 132.434 -41.01 144.604 -41.01 C 159.327 -41.01 166.813 -29.63 166.813 -25.113 M 128.212 -7.043 C 129.064 -1.047 133.647 5.591 142.682 5.664 C 150.263 5.725 156.901 1.12 157.257 -5.646 C 157.357 -7.597 156.846 -7.837 154.523 -7.837 L 128.948 -7.837 C 128.236 -7.837 128.145 -7.521 128.212 -7.043 M -324.924 -25.113 C -324.924 -24.251 -325.584 -23.381 -326.802 -23.381 C -327.909 -23.381 -328.466 -23.771 -329.13 -24.921 C -331.674 -29.24 -337.917 -34.299 -346.226 -34.384 C -357.453 -34.487 -363.927 -26.422 -363.641 -13.958 C -363.645 -13.532 -363.468 -13.164 -362.822 -13.154 C -362.18 -13.133 -345.255 -13.121 -328.195 -13.154 C -324.927 -13.16 -324.872 -10.99 -324.872 -9.201 C -324.872 1.12 -334.489 10.652 -348.277 10.652 C -362.591 10.652 -373.585 2.846 -373.585 -15.114 C -373.585 -34.229 -359.304 -41.01 -347.127 -41.01 C -332.411 -41.01 -324.924 -29.63 -324.924 -25.113 M -363.522 -7.043 C -362.673 -1.047 -358.093 5.591 -349.053 5.664 C -341.478 5.725 -334.83 1.12 -334.483 -5.646 C -334.38 -7.597 -334.897 -7.837 -337.214 -7.837 L -362.789 -7.837 C -363.501 -7.837 -363.593 -7.521 -363.522 -7.043 M -121.82 -37.854 C -121.82 -39.96 -120.792 -39.941 -117.018 -39.95 C -113.253 -39.96 -112.215 -39.96 -112.215 -37.854 L -112.215 -5.253 C -112.215 7.706 -124.377 10.394 -131.581 10.394 C -139.994 10.394 -144.787 7.98 -148.062 4.361 C -151.56 8.169 -156.231 10.394 -164.419 10.394 C -170.056 10.394 -175.559 9.039 -180.486 6.854 C -184.041 5.277 -184.041 3.184 -184.041 1.15 L -184.041 -37.854 C -184.041 -39.96 -182.994 -39.96 -179.238 -39.96 C -175.479 -39.96 -174.438 -39.96 -174.438 -37.854 L -174.426 -1.524 C -174.426 3.893 -170.08 5.381 -164.382 5.384 C -157.284 5.384 -152.941 2.045 -152.941 -6.321 L -152.941 -37.854 C -152.941 -39.96 -151.903 -39.96 -148.129 -39.96 C -144.364 -39.96 -143.342 -39.96 -143.342 -37.854 L -143.342 -5.7 C -143.342 .673 -140.003 5.421 -132.357 5.421 C -124.938 5.421 -121.769 .575 -121.769 -5.85 Z M -381.212 24.108 C -381.747 26.61 -384.542 28.138 -387.756 27.456 C -390.973 26.784 -392.896 24.267 -392.357 21.759 C -391.818 19.254 -389.027 17.729 -385.811 18.408 C -382.6 19.083 -380.67 21.601 -381.212 24.108 M -202.665 -29.38 C -202.665 -34.463 -209.278 -35.805 -214.163 -35.805 C -222.795 -35.805 -227.09 -32.113 -227.09 -27.246 C -227.09 -18.38 -215.64 -15.179 -203.696 -12.667 C -203.063 -12.533 -202.674 -12.467 -202.674 -13.37 Z M -213.661 -41.049 C -205.65 -41.104 -201.581 -39.674 -196.772 -37.47 C -193.166 -35.766 -193.166 -33.854 -193.166 -31.645 L -193.166 -4.16 C -193.166 6.312 -201.873 10.662 -211.848 10.644 C -228.131 10.604 -234.61 3.619 -234.866 -.907 C -235.003 -3.314 -233.561 -5.077 -230.754 -5.138 C -228.027 -5.201 -226.393 -3.406 -225.757 -1.908 C -223.754 2.772 -220.309 5.667 -213.198 5.667 C -207.632 5.667 -202.652 3.116 -202.674 -3.503 L -202.674 -6.422 C -202.674 -7.316 -202.674 -7.503 -203.453 -7.597 C -218.114 -9.943 -237.158 -14.555 -237.158 -28.022 C -237.158 -36.398 -227.111 -41.034 -213.661 -41.049 M -391.597 -37.769 C -391.597 -39.874 -390.556 -39.874 -386.806 -39.874 C -383.032 -39.874 -381.991 -39.874 -381.991 -37.769 L -381.954 7.831 C -381.915 11.183 -386.532 10.342 -388.888 8.802 C -391.521 7.089 -391.605 6.23 -391.605 2.903 Z M 213.174 -26.464 C 212.797 -9.627 181.371 -12.716 181.365 -.983 C 181.359 3.604 186.074 5.722 191.19 5.722 C 198.544 5.722 200.981 3.263 202.521 -.322 C 203.243 -1.993 204.694 -3.527 207.501 -3.527 C 209.619 -3.527 211.402 -2.183 211.402 .295 C 211.402 4.018 206.226 10.576 192.091 10.674 C 180.383 10.75 172.457 6.288 172.447 -2.958 C 172.433 -20.282 203.897 -16.591 203.84 -28.598 C 203.821 -33.562 199.198 -35.859 192.48 -35.93 C 185.778 -35.997 182.199 -33.282 180.264 -28.586 C 179.323 -26.677 178.075 -24.958 175.156 -25.01 C 172.53 -25.052 170.962 -26.741 170.962 -29.316 C 170.962 -32.844 177.107 -41.049 192.036 -41.049 C 204.263 -41.049 213.391 -36.121 213.174 -26.464 M 111.861 -7.158 C 111.892 8.032 98.646 10.434 89.044 10.434 C 81.292 10.434 74.337 8.479 71.071 7.037 C 67.836 5.606 67.565 3.819 67.565 .867 L 67.593 -37.856 C 67.593 -39.96 68.627 -39.96 72.389 -39.96 C 76.176 -39.96 77.204 -39.96 77.204 -37.856 L 77.188 -2.104 C 77.188 1.05 78.309 5.411 89.272 5.411 C 99.636 5.411 102.231 -.722 102.231 -7.158 L 102.253 -37.856 C 102.253 -39.96 103.288 -39.96 107.044 -39.96 C 110.839 -39.96 111.861 -39.96 111.861 -37.856 Z M 47.495 -37.769 C 47.495 -39.874 48.533 -39.874 52.283 -39.874 C 56.061 -39.874 57.095 -39.874 57.095 -37.769 L 57.138 7.831 C 57.174 11.183 52.56 10.342 50.204 8.802 C 47.574 7.089 47.486 6.23 47.486 2.903 Z M 57.88 24.108 C 57.342 26.61 54.554 28.135 51.34 27.456 C 48.122 26.784 46.196 24.267 46.734 21.759 C 47.271 19.254 50.067 17.729 53.275 18.408 C 56.492 19.083 58.419 21.601 57.88 24.108 M 27.164 -37.799 C 27.164 -39.908 28.202 -39.908 31.952 -39.908 C 35.729 -39.908 36.767 -39.908 36.767 -37.799 L 36.804 27.569 C 36.843 30.917 32.223 30.077 29.87 28.54 C 27.24 26.823 27.148 25.965 27.148 22.642 Z M -18.067 24.127 C -18.6 26.635 -21.394 28.162 -24.607 27.48 C -27.828 26.805 -29.745 24.288 -29.213 21.783 C -28.674 19.278 -25.88 17.753 -22.666 18.429 C -19.452 19.104 -17.528 21.625 -18.067 24.127 M -52.773 -19.646 C -49.501 -27.417 -45.685 -36.673 -44.997 -38.243 C -44.306 -39.816 -44.208 -39.947 -39.257 -39.96 C -33.127 -39.975 -32.871 -39.768 -34.058 -37.086 C -34.375 -36.365 -58.282 21.053 -59.609 24.187 C -60.937 27.325 -61.515 27.554 -66.484 27.554 C -71.409 27.554 -72.052 27.423 -73.412 24.187 C -74.8 20.892 -98.793 -36.782 -99.091 -37.503 C -100.107 -39.96 -99.596 -39.975 -95.125 -39.96 C -91.156 -39.944 -90.864 -39.844 -90.137 -38.213 L -82.737 -19.695 C -82.296 -18.575 -82.147 -18.125 -80.838 -18.125 C -75.771 -18.125 -61.341 -18.125 -54.685 -18.101 C -53.409 -18.095 -53.275 -18.463 -52.773 -19.646 M -79.332 -10.835 C -77.91 -7.207 -68.779 16.664 -68.296 18.012 C -68.158 18.393 -67.769 18.393 -67.614 17.997 C -66.966 16.323 -57.746 -7.131 -56.377 -10.762 C -56.078 -11.557 -55.966 -12.205 -57.019 -12.205 L -78.556 -12.205 C -79.873 -12.205 -79.56 -11.41 -79.332 -10.835 M -28.448 -37.747 C -28.448 -39.853 -27.408 -39.853 -23.664 -39.853 C -19.884 -39.853 -18.846 -39.853 -18.846 -37.747 L -18.807 7.853 C -18.767 11.207 -23.384 10.366 -25.736 8.826 C -28.373 7.113 -28.458 6.248 -28.458 2.928 Z M -243.205 -7.113 C -243.178 8.078 -256.421 10.479 -266.023 10.479 C -273.772 10.479 -280.73 8.52 -283.999 7.079 C -287.226 5.652 -287.499 3.862 -287.499 .913 L -287.48 -37.813 C -287.48 -39.92 -286.437 -39.92 -282.675 -39.92 C -278.892 -39.92 -277.863 -39.92 -277.863 -37.813 L -277.882 -2.058 C -277.882 1.099 -276.762 5.457 -265.795 5.457 C -255.429 5.457 -252.829 -.676 -252.829 -7.113 L -252.814 -37.813 C -252.814 -39.92 -251.776 -39.92 -248.018 -39.92 C -244.231 -39.92 -243.205 -39.92 -243.205 -37.813 Z " fill="#006885" fill-rule="evenodd"/>
<path transform="matrix(1,0,0,-1,539.3539,341.80003)" d="M 0 0 C 2.362 -1.336 19.333 -15.748 53.147 -15.748 C 81.617 -15.757 112.054 -1.163 121.553 -1.452 C 124.906 -1.321 127.609 -1.993 129.728 -2.922 C 133.724 -4.577 137.613 -2.148 135.44 1.948 C 127.935 16.109 115.21 24.83 103.215 28.464 C 94.428 31.121 86.402 32.01 82.238 27.387 C 73.083 17.227 56.581 4.696 40.501 3.056 C 39.195 2.919 33.354 2.42 33.285 4.066 C 33.218 5.077 35.212 5.746 37.232 5.887 C 53.652 7.086 83.233 24.65 99.502 58.656 C 105.607 71.415 110.449 83.797 121.057 89.193 C 123.397 90.322 123.485 94.668 118.524 95.85 C 115.069 96.668 93.247 98.769 68.259 85.629 C 56.818 79.603 55.217 74.185 55.184 69.464 C 55.281 33.814 37.229 19.671 30.257 15.486 C 26.367 13.154 22.729 12.171 22.353 13.389 C 22.033 14.408 23.059 15.1 23.956 15.641 C 45.581 28.762 51.3 48.95 51.474 69.528 C 51.644 89.865 44.09 107.454 38.742 121.881 C 37.963 123.927 35.434 132.513 37.589 140.478 C 39.192 146.409 37.89 148.136 34.758 148.136 C 31.325 148.136 26.781 142.599 25.231 140.69 C 24.002 139.26 20.015 134.402 14.037 122.505 C 2.104 98.957 2.018 74.34 2.018 71.324 C 2.018 54.423 6.395 52.469 13.492 48.95 C 20.568 45.444 23.95 40.925 23.953 35.684 C 23.956 30.287 20.207 24.684 13.495 22.715 C 8.275 21.181 4.949 21.756 5.232 23.113 C 5.448 24.19 7.762 24.458 8.443 24.645 C 15.52 26.573 20.234 30.227 20.234 35.684 C 20.234 42.513 11.854 47.502 .006 47.502 C -11.821 47.502 -20.249 42.501 -20.249 35.674 C -20.249 30.223 -15.525 26.567 -8.416 24.641 C -7.749 24.455 -5.433 24.19 -5.211 23.113 C -4.939 21.756 -8.254 21.175 -13.483 22.711 C -20.228 24.678 -23.965 30.281 -23.959 35.674 C -23.947 40.925 -20.571 45.438 -13.477 48.947 C -6.373 52.463 -2.009 54.417 -2.009 71.317 C -2.009 74.337 -2.097 98.951 -14.01 122.505 C -20.023 134.394 -24.005 139.254 -25.234 140.69 C -26.777 142.596 -31.321 148.133 -34.761 148.133 C -37.89 148.133 -39.195 146.397 -37.582 140.478 C -35.434 132.513 -37.966 123.921 -38.754 121.881 C -44.09 107.448 -51.629 89.865 -51.464 69.522 C -51.3 48.947 -45.575 28.759 -23.959 15.641 C -23.064 15.094 -22.036 14.408 -22.358 13.386 C -22.745 12.162 -26.373 13.154 -30.25 15.479 C -37.232 19.665 -55.26 33.814 -55.162 69.458 C -55.208 74.176 -56.809 79.6 -68.274 85.629 C -93.244 98.769 -115.085 96.665 -118.53 95.843 C -123.491 94.668 -123.406 90.319 -121.065 89.189 C -110.422 83.797 -105.586 71.415 -99.492 58.656 C -83.233 24.641 -53.638 7.073 -37.238 5.887 C -35.221 5.743 -33.221 5.077 -33.291 4.066 C -33.37 2.42 -39.201 2.916 -40.489 3.047 C -56.553 4.693 -73.089 17.227 -82.235 27.38 C -86.396 32 -94.413 31.115 -103.199 28.464 C -115.222 24.827 -127.938 16.109 -135.435 1.948 C -137.602 -2.155 -133.721 -4.581 -129.73 -2.922 C -127.618 -2.003 -124.919 -1.321 -121.562 -1.452 C -112.022 -1.169 -81.611 -15.757 -53.139 -15.748 C -19.357 -15.748 -2.361 -1.336 0 0 " fill="#de9e20"/>
<path transform="matrix(1,0,0,-1,329.5727,509.4807)" d="M 0 0 C 2.099 -1.364 4.299 -2.051 6.605 -2.051 C 10.403 -2.051 12.298 -.576 12.298 2.368 C 12.298 4.16 11.163 5.798 8.886 7.291 C 7.459 8.021 5.36 9.254 2.599 10.979 C .321 12.684 -.813 14.812 -.813 17.362 C -.813 20.941 .928 23.372 4.419 24.648 C 5.54 25.047 6.831 25.247 8.298 25.247 C 10.874 25.247 13.133 24.755 15.082 23.784 L 15.082 20.095 C 12.983 21.215 10.769 21.777 8.434 21.777 C 6.999 21.777 5.828 21.475 4.923 20.869 C 3.923 20.139 3.42 19.106 3.42 17.771 C 3.42 16.041 4.558 14.49 6.831 13.118 C 8.298 12.359 10.403 11.097 13.17 9.342 C 15.443 7.546 16.585 5.327 16.585 2.686 C 16.585 -.019 15.553 -2.098 13.487 -3.551 C 11.663 -4.856 9.367 -5.514 6.605 -5.514 C 3.383 -5.514 .621 -4.722 -1.686 -3.146 Z " fill="#006885"/>
<path transform="matrix(1,0,0,-1,366.2084,503.3274)" d="M 0 0 L -2.847 7.831 C -3.091 8.59 -3.431 9.615 -3.86 10.893 L -4.547 12.841 L -4.638 12.841 C -4.799 12.305 -5.01 11.651 -5.284 10.899 L -6.367 7.798 L -9.195 0 Z M -6.018 18.953 L -3.142 18.953 L 8.51 -11.21 L 4.215 -11.21 L 1.219 -3.328 L -10.396 -3.328 L -13.261 -11.21 L -17.504 -11.21 Z " fill="#006885"/>
<path transform="matrix(1,0,0,-1,0,708.661)" d="M 379.638 224.144 L 383.743 224.144 L 383.743 194.123 L 379.638 194.123 Z " fill="#006885"/>
<path transform="matrix(1,0,0,-1,425.894,512.80886)" d="M 0 0 C -2.791 -1.452 -5.703 -2.186 -8.746 -2.186 C -13.268 -2.186 -16.848 -.756 -19.496 2.102 C -22.08 4.835 -23.372 8.44 -23.372 12.943 C -23.372 17.468 -21.945 21.2 -19.084 24.146 C -16.234 27.098 -12.582 28.575 -8.151 28.575 C -5.087 28.575 -2.562 28.035 -.587 26.97 L -.587 23.192 C -2.927 24.47 -5.415 25.104 -8.061 25.104 C -11.429 25.104 -14.114 23.97 -16.106 21.686 C -18.092 19.412 -19.084 16.559 -19.084 13.125 C -19.084 9.597 -18.113 6.743 -16.169 4.558 C -14.228 2.375 -11.614 1.277 -8.33 1.277 C -5.933 1.277 -3.536 1.934 -1.135 3.24 Z " fill="#006885"/>
<path transform="matrix(1,0,0,-1,446.1284,503.3274)" d="M 0 0 L -2.85 7.831 C -3.087 8.59 -3.43 9.615 -3.854 10.893 L -4.543 12.841 L -4.634 12.841 C -4.787 12.305 -5.003 11.651 -5.276 10.899 L -6.36 7.798 L -9.188 0 Z M -6.014 18.953 L -3.146 18.953 L 8.517 -11.21 L 4.222 -11.21 L 1.219 -3.328 L -10.396 -3.328 L -13.26 -11.21 L -17.504 -11.21 Z " fill="#006885"/>
<path transform="matrix(1,0,0,-1,690.3705,512.80886)" d="M 0 0 C -2.791 -1.452 -5.707 -2.186 -8.743 -2.186 C -13.271 -2.186 -16.848 -.756 -19.496 2.102 C -22.08 4.835 -23.372 8.44 -23.372 12.943 C -23.372 17.468 -21.948 21.2 -19.084 24.146 C -16.234 27.098 -12.585 28.575 -8.151 28.575 C -5.087 28.575 -2.562 28.035 -.587 26.97 L -.587 23.192 C -2.927 24.47 -5.419 25.104 -8.061 25.104 C -11.429 25.104 -14.114 23.97 -16.106 21.686 C -18.092 19.412 -19.084 16.559 -19.084 13.125 C -19.084 9.597 -18.113 6.743 -16.169 4.558 C -14.228 2.375 -11.618 1.277 -8.334 1.277 C -5.933 1.277 -3.536 1.934 -1.139 3.24 Z " fill="#006885"/>
<path transform="matrix(1,0,0,-1,710.6039,503.3274)" d="M 0 0 L -2.847 7.831 C -3.087 8.59 -3.431 9.615 -3.854 10.893 L -4.543 12.841 L -4.635 12.841 C -4.791 12.305 -5.003 11.651 -5.276 10.899 L -6.36 7.798 L -9.188 0 Z M -6.014 18.953 L -3.146 18.953 L 8.517 -11.21 L 4.222 -11.21 L 1.219 -3.328 L -10.396 -3.328 L -13.261 -11.21 L -17.505 -11.21 Z " fill="#006885"/>
<path transform="matrix(1,0,0,-1,443.0287,475.9026)" d="M 0 0 L 4.288 0 L .46 -6.291 L -2.51 -6.291 Z " fill="#006885"/>
<path transform="matrix(1,0,0,-1,459.5737,484.5149)" d="M 0 0 L 3.912 0 L 17.489 -17.676 C 18.905 -19.53 20.241 -21.401 21.5 -23.284 C 21.525 -22.456 21.54 -21.639 21.54 -20.817 L 21.5 0 L 25.602 0 L 25.602 -30.021 L 22.029 -30.021 L 7.94 -11.685 C 6.309 -9.55 4.995 -7.732 3.999 -6.244 L 3.912 -6.244 C 4.036 -7.302 4.094 -8.974 4.094 -11.254 L 4.094 -30.021 L 0 -30.021 Z " fill="#006885"/>
<path transform="matrix(1,0,0,-1,492.3305,484.5149)" d="M 0 0 L 4.098 0 L 4.098 -12.937 L 19.945 -12.937 L 19.945 0 L 23.956 0 L 23.956 -30.021 L 19.945 -30.021 L 19.945 -16.398 L 4.098 -16.398 L 4.098 -30.021 L 0 -30.021 Z " fill="#006885"/>
<path transform="matrix(1,0,0,-1,531.0151,484.5149)" d="M 0 0 L 4.36 0 L 11.217 -17.676 C 11.749 -19.041 12.177 -20.183 12.472 -21.099 L 13.505 -24.069 L 13.592 -24.059 L 14.632 -21.143 C 15.008 -20.113 15.453 -18.932 15.989 -17.604 L 22.744 0 L 27.111 0 L 15.085 -30.251 L 11.979 -30.251 Z " fill="#006885"/>
<path transform="matrix(1,0,0,-1,587.5551,484.01594)" d="M 0 0 C -.456 -1.576 -1.307 -2.883 -2.551 -3.915 L -2.551 -19.636 C -2.551 -21.635 -2.857 -23.383 -3.459 -24.868 C -5.134 -28.94 -8.685 -30.98 -14.121 -30.98 C -21.843 -30.98 -25.692 -27.199 -25.692 -19.636 L -25.692 -.5 L -21.591 -.5 L -21.591 -19.311 C -21.591 -22.78 -20.536 -25.167 -18.413 -26.47 C -17.289 -27.163 -15.858 -27.517 -14.1 -27.517 C -9.067 -27.517 -6.561 -24.732 -6.561 -19.18 L -6.561 -.5 L -3.423 -.5 C -3.054 .357 -2.817 1.376 -2.729 2.554 L .409 2.193 C .317 1.317 .187 .584 0 0 " fill="#006885"/>
<path transform="matrix(1,0,0,-1,614.8891,499.63603)" d="M 0 0 C 0 3.521 -.931 6.389 -2.803 8.611 C -4.663 10.826 -7.229 11.932 -10.473 11.932 C -13.845 11.932 -16.49 10.738 -18.405 8.338 C -20.135 6.148 -21.004 3.367 -21.004 0 C -21.004 -3.616 -20.037 -6.503 -18.11 -8.655 C -16.184 -10.819 -13.637 -11.896 -10.473 -11.896 C -7.104 -11.896 -4.481 -10.71 -2.591 -8.338 C -.865 -6.152 0 -3.376 0 0 M 1.226 14.573 C .901 13.421 .354 12.421 -.405 11.57 C 2.715 8.655 4.287 4.798 4.287 0 C 4.287 -4.562 2.857 -8.28 0 -11.166 C -2.736 -13.965 -6.222 -15.359 -10.473 -15.359 C -14.942 -15.359 -18.559 -13.881 -21.321 -10.94 C -23.963 -8.083 -25.284 -4.437 -25.284 0 C -25.284 4.491 -23.901 8.185 -21.139 11.067 C -18.376 13.953 -14.826 15.402 -10.473 15.402 C -7.558 15.402 -4.952 14.697 -2.642 13.3 C -2 14.329 -1.624 15.621 -1.504 17.172 L 1.646 16.811 C 1.555 15.931 1.416 15.18 1.226 14.573 " fill="#006885"/>
<path transform="matrix(1,0,0,-1,624.1362,484.5149)" d="M 0 0 L 3.923 0 L 17.504 -17.676 C 18.913 -19.53 20.248 -21.401 21.515 -23.284 C 21.54 -22.456 21.555 -21.639 21.555 -20.817 L 21.515 0 L 25.616 0 L 25.616 -30.021 L 22.033 -30.021 L 7.951 -11.685 C 6.316 -9.55 5.01 -7.732 4.014 -6.244 L 3.923 -6.244 C 4.043 -7.302 4.105 -8.974 4.105 -11.254 L 4.105 -30.021 L 0 -30.021 Z " fill="#006885"/>
<path transform="matrix(1,0,0,-1,363.1391,478.4856)" d="M 0 0 C -.964 -.734 -1.445 -1.208 -1.445 -1.405 C -1.445 -1.58 -1.212 -1.941 -.745 -2.504 L -3.065 -3.686 C -3.77 -2.865 -4.12 -2.092 -4.12 -1.357 C -4.12 -.449 -3.572 .419 -2.478 1.266 C -1.38 2.116 -.832 2.7 -.832 3.024 C -.832 3.459 -1.106 3.682 -1.66 3.682 C -2.248 3.682 -3.025 3.247 -3.985 2.368 L -5.346 4.419 C -4.036 5.651 -2.729 6.265 -1.445 6.265 C -.54 6.265 .215 6.023 .832 5.521 C 1.565 4.933 1.927 4.148 1.927 3.159 C 1.927 2.043 1.284 .988 0 0 " fill="#006885"/>
<path transform="matrix(1,0,0,-1,734.6381,511.4797)" d="M 0 0 C 3.379 0 6.007 1.186 7.894 3.562 C 9.626 5.747 10.495 8.531 10.495 11.906 C 10.495 15.436 9.583 18.292 7.755 20.485 C 5.843 22.737 3.255 23.86 0 23.86 C -3.375 23.86 -6.021 22.66 -7.937 20.256 C -9.673 18.062 -10.538 15.282 -10.538 11.906 C -10.538 8.291 -9.571 5.4 -7.641 3.24 C -5.71 1.08 -3.163 0 0 0 M 0 -3.47 C -4.47 -3.47 -8.09 -1.992 -10.859 .956 C -13.505 3.817 -14.825 7.466 -14.825 11.906 C -14.825 16.409 -13.442 20.103 -10.673 22.992 C -7.907 25.883 -4.35 27.327 0 27.327 C 4.32 27.327 7.864 25.883 10.63 22.992 C 13.399 20.103 14.782 16.409 14.782 11.906 C 14.782 7.346 13.381 3.642 10.586 .8 C 7.787 -2.043 4.259 -3.47 0 -3.47 " fill="#006885"/>
</g>
</g>
</g>
</svg>
