<?xml version="1.0" encoding="UTF-8" standalone="no"?>
<!DOCTYPE svg PUBLIC "-//W3C//DTD SVG 1.1//EN" "http://www.w3.org/Graphics/SVG/1.1/DTD/svg11.dtd">
<svg xmlns="http://www.w3.org/2000/svg" xmlns:xlink="http://www.w3.org/1999/xlink" version="1.1" width="1133.86pt" height="708.661pt" viewBox="0 0 1133.86 708.661">
<g enable-background="new">
<g id="Layer-1" data-name="Layer 1">
<clipPath id="cp1">
<path transform="matrix(1,0,0,-1,0,708.661)" d="M 0 708.661 L 1133.858 708.661 L 1133.858 0 L 0 0 Z "/>
</clipPath>
<g clip-path="url(#cp1)">
<path transform="matrix(1,0,0,-1,216.1528,366.3952)" d="M 0 0 C -1.312 -.748 -10.745 -8.742 -29.513 -8.742 C -45.321 -8.754 -62.212 -.65 -67.511 -.809 C -69.377 -.728 -70.872 -1.109 -72.043 -1.626 C -74.258 -2.553 -76.415 -1.195 -75.213 1.077 C -71.051 8.941 -63.987 13.785 -57.311 15.797 C -52.434 17.272 -47.979 17.768 -45.676 15.199 C -40.591 9.563 -31.411 2.605 -22.49 1.687 C -21.767 1.617 -18.527 1.341 -18.491 2.259 C -18.455 2.82 -19.56 3.186 -20.682 3.263 C -29.789 3.926 -46.224 13.679 -55.25 32.569 C -58.636 39.656 -61.321 46.529 -67.23 49.528 C -68.535 50.154 -68.576 52.568 -65.824 53.222 C -63.906 53.677 -51.783 54.848 -37.917 47.544 C -31.549 44.196 -30.659 41.192 -30.635 38.567 C -30.691 18.771 -20.678 10.912 -16.809 8.591 C -14.646 7.307 -12.631 6.754 -12.415 7.429 C -12.245 7.994 -12.813 8.38 -13.31 8.681 C -25.314 15.967 -28.484 27.18 -28.578 38.604 C -28.672 49.898 -24.485 59.672 -21.515 67.678 C -21.084 68.812 -19.682 73.587 -20.877 78 C -21.763 81.296 -21.039 82.255 -19.304 82.255 C -17.402 82.255 -14.87 79.179 -14.017 78.122 C -13.334 77.326 -11.123 74.631 -7.782 68.023 C -1.166 54.945 -1.117 41.278 -1.117 39.604 C -1.117 30.212 -3.54 29.126 -7.49 27.18 C -11.428 25.233 -13.302 22.722 -13.306 19.808 C -13.31 16.817 -11.229 13.708 -7.49 12.61 C -4.58 11.761 -2.743 12.078 -2.897 12.834 C -3.02 13.432 -4.304 13.578 -4.678 13.679 C -8.624 14.752 -11.245 16.776 -11.245 19.808 C -11.245 23.6 -6.575 26.375 -.004 26.375 C 6.567 26.375 11.237 23.6 11.237 19.808 C 11.237 16.772 8.62 14.748 4.674 13.675 C 4.3 13.578 3.016 13.432 2.894 12.834 C 2.739 12.078 4.58 11.757 7.486 12.61 C 11.225 13.7 13.306 16.817 13.302 19.808 C 13.298 22.718 11.424 25.229 7.481 27.18 C 3.54 29.126 1.113 30.212 1.113 39.6 C 1.113 41.274 1.166 54.945 7.774 68.023 C 11.115 74.627 13.334 77.326 14.013 78.118 C 14.866 79.179 17.398 82.255 19.296 82.255 C 21.035 82.255 21.759 81.296 20.869 78 C 19.674 73.587 21.076 68.808 21.515 67.678 C 24.478 59.664 28.672 49.894 28.574 38.604 C 28.484 27.18 25.307 15.963 13.306 8.677 C 12.806 8.38 12.236 7.99 12.416 7.429 C 12.627 6.75 14.639 7.299 16.797 8.591 C 20.674 10.912 30.687 18.771 30.631 38.567 C 30.655 41.192 31.545 44.196 37.909 47.544 C 51.779 54.844 63.906 53.673 65.825 53.222 C 68.572 52.568 68.527 50.15 67.227 49.524 C 61.317 46.529 58.632 39.656 55.246 32.569 C 46.216 13.679 29.785 3.922 20.674 3.263 C 19.552 3.186 18.45 2.816 18.487 2.251 C 18.523 1.341 21.763 1.613 22.486 1.687 C 31.402 2.601 40.583 9.563 45.667 15.199 C 47.976 17.76 52.43 17.272 57.307 15.797 C 63.987 13.785 71.047 8.941 75.204 1.073 C 76.407 -1.199 74.258 -2.553 72.038 -1.626 C 70.868 -1.113 69.368 -.735 67.503 -.809 C 62.208 -.654 45.322 -8.754 29.505 -8.746 C 10.737 -8.746 1.312 -.748 0 0 " fill="#de9e20"/>
<path transform="matrix(1,0,0,-1,979.0903,324.6008)" d="M 0 0 L -.04 -.024 C 6.563 -6.685 10.929 -15.654 11.623 -25.741 C 13.172 -48.016 -3.604 -67.312 -25.854 -68.88 C -36.332 -69.621 -46.13 -66.288 -53.763 -60.252 L -53.795 -60.29 C -45.882 -67.662 -35.056 -71.875 -23.433 -71.055 C -1.154 -69.499 15.618 -50.186 14.074 -27.936 C 13.273 -16.662 7.949 -6.783 0 0 " fill="#1f3c76"/>
<path transform="matrix(1,0,0,-1,907.4789,370.5866)" d="M 0 0 C -1.288 -.715 -1.572 -1.78 -.918 -3.454 C -.309 -4.966 .646 -5.637 1.658 -5.214 C 2.476 -4.901 2.613 -4.194 2.284 -2.361 L 2.13 -1.662 C 1.805 .134 1.748 .902 1.959 1.675 C 2.175 2.548 2.67 3.113 3.422 3.418 C 5.255 4.146 6.982 3.003 8.011 .455 C 9.124 -2.324 8.53 -4.417 6.349 -5.324 L 5.812 -3.962 C 7.328 -3.32 7.701 -1.91 6.885 .114 C 6.227 1.76 5.198 2.495 4.085 2.036 C 3.194 1.69 2.995 .87 3.32 -1.004 L 3.446 -1.78 L 3.564 -2.487 C 3.8 -3.86 3.828 -4.36 3.698 -4.945 C 3.523 -5.686 3.053 -6.226 2.288 -6.526 C .569 -7.218 -1.089 -6.197 -2.012 -3.885 C -3.007 -1.369 -2.475 .496 -.557 1.357 L 0 0 " fill="#1f3c76"/>
<path transform="matrix(1,0,0,-1,906.3344,355.9753)" d="M 0 0 L 6.132 5.141 L 6.173 3.239 L .971 -1.052 L 2.661 -2.906 L 6.312 -2.833 L 6.344 -4.336 L -4.076 -4.56 L -4.117 -3.056 L -.017 -2.971 L 1.076 -2.971 L .731 -2.593 L .361 -2.231 L -4.231 2.748 L -4.288 4.73 Z " fill="#1f3c76"/>
<path transform="matrix(1,0,0,-1,910.9418,339.8371)" d="M 0 0 L 4.015 -1.406 L 3.527 -2.812 L -.492 -1.406 L -7.686 -3.584 L -7.08 -1.87 L -2.605 -.614 L -2.061 -.455 C -1.837 -.386 -1.703 -.37 -1.313 -.272 C -1.658 .138 -1.74 .24 -2.113 .74 L -4.865 4.491 L -4.288 6.128 L 0 0 " fill="#1f3c76"/>
<path transform="matrix(1,0,0,-1,917.9946,320.6838)" d="M 0 0 L -2.202 -2.694 L 4.369 -8.071 L 2.801 -10.001 L -3.787 -4.617 L -5.97 -7.307 L -7.465 -6.08 L -1.495 1.227 Z " fill="#1f3c76"/>
<path transform="matrix(1,0,0,-1,932.061,310.8063)" d="M 0 0 L -5.255 -3.076 L -4.142 -5.003 L .69 -2.174 L 1.576 -3.714 L -3.227 -6.527 L -1.947 -8.758 L 3.418 -5.608 L 4.397 -7.267 L -3.13 -11.672 L -8.384 -2.666 L -.976 1.679 Z " fill="#1f3c76"/>
<path transform="matrix(1,0,0,-1,952.2328,314.8483)" d="M 0 0 L -2.728 -.187 L -4.081 2.073 L -8.283 1.39 L -8.864 -1.167 L -11.457 -1.821 L -8.722 9.563 L -6.149 9.965 Z M -5.966 5.356 C -6.539 6.312 -6.755 6.738 -7.084 7.49 C -7.182 6.734 -7.263 6.189 -7.527 5.121 L -7.966 3.129 L -4.93 3.617 L -5.966 5.356 " fill="#1f3c76"/>
<path transform="matrix(1,0,0,-1,968.9633,318.1906)" d="M 0 0 L -2.19 .829 L -1.354 3.946 C -1.272 4.292 -1.13 4.795 -.943 5.434 C -.769 6.084 -.614 6.592 -.517 6.97 C -.37 7.384 -.236 7.815 -.094 8.274 L .138 9.014 C -.472 7.941 -.716 7.587 -1.284 6.742 C -1.512 6.36 -1.735 6.039 -1.923 5.779 L -4.873 1.63 L -6.779 2.134 L -7.372 7.12 C -7.421 7.372 -7.434 7.734 -7.47 8.226 C -7.507 8.88 -7.531 9.38 -7.555 9.725 C -7.563 9.998 -7.563 10.408 -7.555 10.981 L -7.819 9.725 C -8.128 8.348 -8.267 7.758 -8.677 6.121 L -9.547 2.764 L -11.859 3.129 L -9.242 13.318 L -5.747 12.647 L -5.251 7.815 C -5.125 6.686 -5.101 5.738 -5.142 4.397 C -4.747 5.162 -4.613 5.417 -4.157 6.121 C -3.849 6.6 -3.589 6.986 -3.349 7.368 L -.614 11.294 L 2.723 10.164 L 0 0 " fill="#1f3c76"/>
<path transform="matrix(1,0,0,-1,949.0532,338.2717)" d="M 0 0 C -1.264 -1.118 -3.771 -3.52 -6.186 -5.848 L -8.937 -8.481 C -11.164 -8.067 -13.358 -7.88 -15.65 -7.88 C -20.723 -7.88 -25.376 -9.274 -27.497 -11.452 C -28.294 -12.281 -28.708 -13.18 -28.684 -14.123 C -28.631 -16.593 -25.818 -17.829 -24.965 -18.146 C -20.454 -19.832 -16.679 -19.34 -12.7 -16.544 C -10.514 -15.012 -7.868 -12.562 -5.808 -10.563 C -4.198 -10.932 -2.382 -11.412 -.423 -11.989 L 1.382 -12.509 C -.963 -14.817 -3.361 -17.248 -5.58 -19.207 L -5.751 -19.353 C -8.852 -22.088 -11.087 -24.051 -14.33 -24.782 C -16.594 -25.278 -18.207 -24.798 -18.735 -24.485 C -18.792 -24.49 -18.861 -24.583 -18.861 -24.583 C -16.991 -26.124 -15.224 -26.997 -12.172 -26.741 C -9.262 -26.481 -5.921 -24.656 -2.491 -21.437 L 2.138 -16.902 L 5.381 -13.679 C 5.381 -13.7 11.944 -15.61 11.944 -15.61 C 12.001 -15.618 12.058 -15.638 12.058 -15.638 C 12.001 -15.638 7.998 -19.584 7.998 -19.584 L 4.52 -23.063 C .951 -26.514 -.996 -28.314 -3.076 -29.801 C -6.531 -32.244 -9.481 -33.507 -12.082 -33.682 C -13.424 -33.772 -15.378 -33.678 -16.991 -32.74 C -17.064 -32.719 -17.162 -32.8 -17.162 -32.8 C -15.415 -34.316 -13.236 -36.117 -9.526 -36.027 C -5.328 -35.885 -1.593 -33.877 4.202 -28.553 C 6.848 -26.124 9.478 -23.425 11.781 -21.011 L 16.09 -16.646 C 18.935 -17.28 21.462 -17.544 24.262 -17.479 C 28.351 -17.382 31.838 -15.443 31.878 -13.204 C 31.919 -11.55 30.558 -10.66 29.744 -10.136 C 29.082 -9.697 27.253 -8.681 24.733 -8.681 C 21.669 -8.681 18.479 -10.038 15.236 -12.7 L 13.078 -14.614 C 13.103 -14.602 12.294 -14.403 12.294 -14.403 L 6.295 -12.7 C 8.079 -11.054 9.579 -9.64 10.92 -8.429 C 14.22 -5.511 17.829 -4.3 19.958 -4.169 C 21.507 -4.06 24.201 -4.202 25.307 -4.991 C 25.355 -4.991 25.429 -4.86 25.429 -4.86 C 22.474 -2.341 19.918 -2.007 17.82 -2.007 C 15.752 -2.007 12.415 -2.662 8.331 -5.824 C 6.677 -7.112 4.52 -9.274 2.252 -11.554 L -.78 -10.623 L -1.512 -10.4 L -4.702 -9.424 C -4.625 -9.424 -2.877 -7.713 -2.877 -7.713 C -.728 -5.6 1.292 -3.617 2.882 -2.259 C 8.64 2.577 12.257 3.207 14.769 3.231 C 17.524 3.231 19.719 2.662 21.291 1.528 C 21.324 1.532 21.393 1.634 21.393 1.634 C 18.174 4.564 15.846 5.507 11.843 5.535 C 8.323 5.563 4.104 3.593 0 0 M -22.608 -17.28 C -24.478 -17.146 -25.38 -16.406 -25.38 -14.956 C -25.38 -14.772 -25.254 -10.196 -14.805 -9.685 C -13.61 -9.615 -12.298 -9.579 -10.258 -9.818 C -10.347 -9.818 -11.444 -10.818 -11.444 -10.818 L -12.099 -11.428 C -14.61 -13.716 -18.845 -17.544 -22.608 -17.28 M 19.674 -13.586 C 22.677 -11.546 25.181 -10.465 26.741 -10.518 C 27.659 -10.55 28.757 -10.818 28.757 -11.964 C 28.757 -13.135 27.644 -14.102 25.469 -14.891 C 23.563 -15.577 20.633 -15.756 17.438 -15.402 C 18.316 -14.602 19.052 -13.984 19.674 -13.586 " fill="#1f3c76"/>
<path transform="matrix(1,0,0,-1,948.0112,354.1022)" d="M 0 0 L 0 -3.088 Z " fill="#1f3c76"/>
<path transform="matrix(1,0,0,-1,973.2358,309.86103)" d="M 0 0 C .382 .862 1.377 1.264 2.251 .894 C 3.137 .512 3.531 -.479 3.153 -1.357 C 2.796 -2.235 1.787 -2.629 .91 -2.248 C .032 -1.857 -.37 -.878 0 0 M 2.856 -1.374 C 3.242 -.67 2.971 .208 2.279 .573 C 1.593 .959 .698 .736 .316 .021 C -.073 -.679 .198 -1.557 .897 -1.955 C 1.572 -2.316 2.475 -2.081 2.856 -1.374 M 1.849 -1.882 L 1.572 -1.727 L 1.499 -.699 L 1.223 -.549 L .8 -1.309 L .576 -1.179 L 1.482 .459 L 2.194 .061 C 2.486 -.102 2.738 -.337 2.539 -.679 C 2.36 -1.008 2.072 -1.008 1.771 -.857 Z M 1.629 -.476 C 1.824 -.589 2.166 -.821 2.312 -.553 C 2.397 -.394 2.194 -.231 2.02 -.142 L 1.58 .102 L 1.353 -.325 L 1.629 -.476 " fill="#1f3c76"/>
<path transform="matrix(1,0,0,-1,419.9008,328.68473)" d="M 0 0 C -1.971 -.032 -4.653 -.004 -4.653 -.004 C -5.981 -.004 -5.99 -.739 -5.99 -2.235 C -5.99 -3.666 -5.99 -4.413 -4.657 -4.413 L 0 -4.413 C .96 -4.409 .996 -4.515 .984 -5.515 C .96 -7.62 .984 -33.012 .984 -33.012 C .984 -43.021 6.336 -44.216 11.636 -44.297 C 16.87 -44.371 20.309 -42.822 20.247 -40.973 C 20.211 -39.9 19.5 -39.417 18.284 -39.555 C 17.427 -39.652 16.825 -39.913 15.68 -39.913 C 12.903 -39.913 9.408 -39.165 9.408 -33.081 L 9.408 -5.6 C 9.4 -4.539 9.408 -4.409 10.465 -4.413 L 18.049 -4.413 C 19.378 -4.413 19.422 -3.666 19.422 -2.235 C 19.422 -.764 19.378 .004 18.049 .004 L 10.425 .004 C 9.404 .004 9.417 .102 9.408 .992 L 9.408 10.237 C 9.408 11.721 8.283 12.245 7.377 12.168 C 6.714 12.111 5.926 11.68 4.057 10.457 C 1.618 8.86 .984 7.844 .984 4.93 L .984 1.057 C .979 -.004 .936 .017 0 0 M -102.855 -40.636 C -101.701 -43.387 -101.438 -43.602 -97.044 -43.602 C -92.821 -43.602 -92.728 -43.432 -91.496 -40.607 C -90.27 -37.787 -74.232 2.52 -69.978 13.062 C -69.035 15.407 -69.441 15.606 -73.225 15.606 C -76.533 15.606 -76.838 15.415 -77.468 13.988 C -77.468 13.988 -95.435 -31.951 -95.82 -33.016 C -95.918 -33.313 -96.3 -33.337 -96.463 -32.975 C -97.04 -31.675 -115.279 14.119 -115.279 14.119 C -115.718 15.293 -115.828 15.711 -120.753 15.711 C -126.126 15.711 -125.769 15.2 -124.703 12.554 C -124.443 11.92 -104.006 -37.884 -102.855 -40.636 M 422.722 -30.589 C 422.722 -29.838 422.145 -29.074 421.08 -29.074 C 420.108 -29.074 419.625 -29.415 419.044 -30.423 C 416.812 -34.207 411.339 -38.64 404.056 -38.713 C 394.221 -38.803 388.544 -31.74 388.796 -20.82 C 388.796 -20.446 388.954 -20.125 389.515 -20.113 C 390.084 -20.096 404.905 -20.084 419.86 -20.113 C 422.722 -20.117 422.767 -18.219 422.767 -16.65 C 422.767 -7.604 414.342 .748 402.26 .748 C 389.723 .748 380.082 -6.092 380.082 -21.832 C 380.082 -38.58 392.6 -44.517 403.268 -44.517 C 416.162 -44.517 422.722 -34.548 422.722 -30.589 M 388.901 -14.76 C 389.645 -9.505 393.66 -3.69 401.577 -3.625 C 408.218 -3.572 414.041 -7.604 414.35 -13.537 C 414.436 -15.244 413.988 -15.455 411.956 -15.455 L 389.543 -15.455 C 388.922 -15.455 388.84 -15.175 388.901 -14.76 M -8.136 -30.589 C -8.136 -29.838 -8.717 -29.074 -9.781 -29.074 C -10.753 -29.074 -11.245 -29.415 -11.821 -30.423 C -14.053 -34.207 -19.523 -38.64 -26.802 -38.713 C -36.641 -38.803 -42.314 -31.74 -42.063 -20.82 C -42.063 -20.446 -41.912 -20.125 -41.347 -20.113 C -40.782 -20.096 -25.952 -20.084 -11.005 -20.113 C -8.14 -20.117 -8.091 -18.219 -8.091 -16.65 C -8.091 -7.604 -16.516 .748 -28.598 .748 C -41.144 .748 -50.775 -6.092 -50.775 -21.832 C -50.775 -38.58 -38.262 -44.517 -27.594 -44.517 C -14.695 -44.517 -8.136 -34.548 -8.136 -30.589 M -41.96 -14.76 C -41.213 -9.505 -37.201 -3.69 -29.28 -3.625 C -22.645 -3.572 -16.816 -7.604 -16.512 -13.537 C -16.422 -15.244 -16.877 -15.455 -18.905 -15.455 L -41.314 -15.455 C -41.94 -15.455 -42.018 -15.175 -41.96 -14.76 M 169.823 -41.753 C 169.823 -43.602 170.726 -43.586 174.029 -43.594 C 177.329 -43.602 178.239 -43.602 178.239 -41.753 L 178.239 -13.191 C 178.239 -1.837 167.584 .516 161.272 .516 C 153.896 .516 149.698 -1.593 146.829 -4.767 C 143.765 -1.43 139.668 .516 132.495 .516 C 127.558 .516 122.737 -.667 118.417 -2.581 C 115.305 -3.962 115.305 -5.799 115.305 -7.579 L 115.305 -41.753 C 115.305 -43.602 116.223 -43.602 119.515 -43.602 C 122.807 -43.602 123.717 -43.602 123.717 -41.753 L 123.729 -9.924 C 123.729 -5.177 127.537 -3.873 132.531 -3.869 C 138.75 -3.869 142.554 -6.795 142.554 -14.126 L 142.554 -41.753 C 142.554 -43.602 143.464 -43.602 146.771 -43.602 C 150.067 -43.602 150.966 -43.602 150.966 -41.753 L 150.966 -13.586 C 150.966 -7.998 153.888 -3.84 160.586 -3.84 C 167.088 -3.84 169.863 -8.083 169.863 -13.712 Z M -57.456 12.538 C -57.928 14.732 -60.374 16.065 -63.187 15.472 C -66.007 14.878 -67.698 12.672 -67.223 10.477 C -66.751 8.283 -64.305 6.946 -61.488 7.539 C -58.672 8.132 -56.985 10.339 -57.456 12.538 M 98.987 -34.329 C 98.987 -38.787 93.192 -39.958 88.908 -39.958 C 81.35 -39.958 77.586 -36.726 77.586 -32.459 C 77.586 -24.693 87.62 -21.889 98.081 -19.686 C 98.638 -19.572 98.979 -19.511 98.979 -20.304 Z M 89.352 -44.553 C 96.37 -44.602 99.935 -43.35 104.148 -41.417 C 107.307 -39.924 107.307 -38.25 107.307 -36.316 L 107.307 -12.236 C 107.307 -3.056 99.679 .756 90.937 .74 C 76.676 .703 70.999 -5.417 70.771 -9.384 C 70.649 -11.493 71.913 -13.037 74.376 -13.09 C 76.762 -13.147 78.196 -11.57 78.753 -10.261 C 80.509 -6.161 83.528 -3.625 89.758 -3.625 C 94.635 -3.625 98.995 -5.856 98.979 -11.655 L 98.979 -14.216 C 98.979 -15 98.979 -15.163 98.297 -15.244 C 85.446 -17.304 68.764 -21.34 68.764 -33.142 C 68.764 -40.481 77.57 -44.542 89.352 -44.553 M -66.552 -41.68 C -66.552 -43.525 -65.646 -43.525 -62.357 -43.525 C -59.05 -43.525 -58.14 -43.525 -58.14 -41.68 L -58.11 -1.727 C -58.074 1.211 -62.118 .472 -64.183 -.874 C -66.491 -2.377 -66.563 -3.129 -66.563 -6.043 Z M 463.342 -31.772 C 463.013 -17.024 435.479 -19.73 435.471 -9.449 C 435.467 -5.429 439.6 -3.576 444.078 -3.576 C 450.527 -3.576 452.661 -5.73 454.011 -8.872 C 454.645 -10.334 455.917 -11.68 458.371 -11.68 C 460.229 -11.68 461.793 -10.501 461.793 -8.331 C 461.793 -5.067 457.258 .679 444.871 .764 C 434.613 .833 427.668 -3.076 427.659 -11.18 C 427.647 -26.363 455.218 -23.124 455.165 -33.646 C 455.148 -37.995 451.097 -40.005 445.212 -40.067 C 439.34 -40.127 436.202 -37.747 434.508 -33.633 C 433.683 -31.963 432.589 -30.456 430.029 -30.5 C 427.729 -30.537 426.359 -32.016 426.359 -34.275 C 426.359 -37.364 431.744 -44.553 444.822 -44.553 C 455.534 -44.553 463.532 -40.238 463.342 -31.772 M 374.571 -14.862 C 374.596 -1.552 362.997 .557 354.581 .557 C 347.786 .557 341.698 -1.158 338.833 -2.422 C 336 -3.674 335.761 -5.238 335.761 -7.831 L 335.785 -41.757 C 335.785 -43.602 336.691 -43.602 339.991 -43.602 C 343.308 -43.602 344.205 -43.602 344.205 -41.757 L 344.197 -10.432 C 344.197 -7.668 345.177 -3.844 354.78 -3.844 C 363.863 -3.844 366.135 -9.221 366.135 -14.862 L 366.155 -41.757 C 366.155 -43.602 367.062 -43.602 370.354 -43.602 C 373.678 -43.602 374.571 -43.602 374.571 -41.757 Z M 318.176 -41.68 C 318.176 -43.525 319.086 -43.525 322.373 -43.525 C 325.682 -43.525 326.592 -43.525 326.592 -41.68 L 326.62 -1.727 C 326.657 1.211 322.617 .472 320.553 -.874 C 318.244 -2.377 318.167 -3.129 318.167 -6.043 Z M 327.274 12.538 C 326.803 14.732 324.36 16.065 321.545 15.472 C 318.729 14.878 317.037 12.672 317.509 10.477 C 317.977 8.283 320.427 6.946 323.239 7.539 C 326.06 8.132 327.75 10.339 327.274 12.538 M 300.363 -41.705 C 300.363 -43.554 301.273 -43.554 304.553 -43.554 C 307.865 -43.554 308.775 -43.554 308.775 -41.705 L 308.808 15.565 C 308.84 18.5 304.797 17.768 302.732 16.419 C 300.428 14.915 300.351 14.163 300.351 11.25 Z M 260.73 12.55 C 260.259 14.749 257.816 16.09 255 15.488 C 252.18 14.899 250.493 12.696 250.965 10.498 C 251.437 8.303 253.883 6.966 256.699 7.559 C 259.52 8.153 261.202 10.359 260.73 12.55 M 230.324 -25.802 C 233.188 -32.609 237.139 -42.095 237.139 -42.095 C 237.631 -43.306 237.187 -43.602 242.162 -43.602 C 247.441 -43.602 247.759 -43.432 246.718 -41.083 C 246.437 -40.449 225.496 9.859 224.329 12.603 C 223.167 15.354 222.663 15.553 218.307 15.553 C 213.994 15.553 213.43 15.443 212.235 12.603 C 211.02 9.717 189.997 -40.815 189.736 -41.449 C 188.847 -43.602 189.639 -43.602 193.211 -43.602 C 196.556 -43.602 196.946 -43.497 197.58 -42.071 L 204.066 -25.843 C 204.452 -24.863 204.578 -24.469 205.732 -24.469 C 210.17 -24.469 222.813 -24.469 228.646 -24.449 C 229.763 -24.441 229.881 -24.766 230.324 -25.802 M 207.049 -18.084 C 208.297 -14.902 216.295 6.015 216.718 7.193 C 216.844 7.527 217.181 7.527 217.319 7.177 C 217.888 5.714 225.963 -14.833 227.162 -18.016 C 227.426 -18.714 227.523 -19.284 226.602 -19.284 L 207.728 -19.284 C 206.578 -19.284 206.85 -18.584 207.049 -18.084 M 251.636 -41.66 C 251.636 -43.505 252.546 -43.505 255.829 -43.505 C 259.138 -43.505 260.048 -43.505 260.048 -41.66 L 260.08 -1.707 C 260.117 1.231 256.073 .496 254.009 -.853 C 251.7 -2.357 251.623 -3.113 251.623 -6.022 Z M 63.464 -14.821 C 63.488 -1.507 51.882 .594 43.469 .594 C 36.682 .594 30.586 -1.122 27.721 -2.385 C 24.893 -3.637 24.652 -5.202 24.652 -7.787 L 24.673 -41.717 C 24.673 -43.566 25.583 -43.566 28.883 -43.566 C 32.195 -43.566 33.098 -43.566 33.098 -41.717 L 33.081 -10.392 C 33.081 -7.624 34.061 -3.808 43.672 -3.808 C 52.751 -3.808 55.031 -9.185 55.031 -14.821 L 55.047 -41.717 C 55.047 -43.566 55.954 -43.566 59.249 -43.566 C 62.565 -43.566 63.464 -43.566 63.464 -41.717 Z M 276.56 -8.587 C 276.56 -5.356 280.026 -3.637 283.835 -3.637 C 290.325 -3.637 289.593 -8.811 294.23 -8.811 C 296.335 -8.811 297.624 -7.612 297.624 -5.539 C 297.624 -1.971 292.877 .398 285.501 .638 C 278.43 .866 274.764 -.382 272.231 -1.369 C 269.391 -2.479 268.14 -4.092 268.14 -6.62 L 268.14 -41.68 C 268.14 -43.53 269.037 -43.53 272.354 -43.53 C 275.658 -43.53 276.56 -43.53 276.56 -41.68 L 276.56 -8.587 " fill="#006885" fill-rule="evenodd"/>
</g>
</g>
</g>
</svg>
