<?xml version="1.0" encoding="UTF-8" standalone="no"?>
<!DOCTYPE svg PUBLIC "-//W3C//DTD SVG 1.1//EN" "http://www.w3.org/Graphics/SVG/1.1/DTD/svg11.dtd">
<svg xmlns="http://www.w3.org/2000/svg" xmlns:xlink="http://www.w3.org/1999/xlink" version="1.1" width="1133.86pt" height="708.661pt" viewBox="0 0 1133.86 708.661">
<g enable-background="new">
<g id="Layer-1" data-name="Layer 1">
<clipPath id="cp0">
<path transform="matrix(1,0,0,-1,0,708.661)" d="M 0 708.661 L 1133.858 708.661 L 1133.858 0 L 0 0 Z "/>
</clipPath>
<g clip-path="url(#cp0)">
<path transform="matrix(1,0,0,-1,227.3461,396.5299)" d="M 0 0 C -1.507 -.859 -12.337 -10.037 -33.885 -10.037 C -52.036 -10.051 -71.428 -.747 -77.513 -.929 C -79.654 -.835 -81.371 -1.274 -82.715 -1.867 C -85.258 -2.931 -87.736 -1.372 -86.354 1.236 C -81.577 10.265 -73.467 15.827 -65.801 18.137 C -60.201 19.831 -55.088 20.4 -52.441 17.451 C -46.604 10.979 -36.064 2.991 -25.822 1.936 C -24.991 1.857 -21.272 1.54 -21.23 2.594 C -21.188 3.238 -22.458 3.658 -23.746 3.747 C -34.202 4.507 -53.072 15.706 -63.436 37.394 C -67.322 45.531 -70.406 53.421 -77.19 56.865 C -78.688 57.583 -78.735 60.355 -75.576 61.106 C -73.374 61.629 -59.455 62.973 -43.534 54.588 C -36.223 50.743 -35.201 47.295 -35.173 44.281 C -35.238 21.552 -23.741 12.528 -19.299 9.864 C -16.816 8.389 -14.502 7.755 -14.255 8.529 C -14.059 9.178 -14.712 9.621 -15.281 9.966 C -29.065 18.333 -32.704 31.207 -32.812 44.323 C -32.919 57.29 -28.113 68.511 -24.702 77.704 C -24.208 79.005 -22.598 84.488 -23.97 89.555 C -24.987 93.339 -24.156 94.44 -22.164 94.44 C -19.98 94.44 -17.073 90.908 -16.094 89.695 C -15.31 88.781 -12.771 85.687 -8.936 78.1 C -1.339 63.085 -1.283 47.393 -1.283 45.471 C -1.283 34.687 -4.064 33.441 -8.6 31.207 C -13.121 28.971 -15.272 26.088 -15.276 22.742 C -15.281 19.308 -12.893 15.738 -8.6 14.479 C -5.259 13.503 -3.149 13.867 -3.327 14.735 C -3.467 15.421 -4.941 15.589 -5.371 15.706 C -9.901 16.937 -12.911 19.261 -12.911 22.742 C -12.911 27.096 -7.55 30.283 -.005 30.283 C 7.54 30.283 12.901 27.096 12.901 22.742 C 12.901 19.257 9.896 16.933 5.366 15.701 C 4.937 15.589 3.462 15.421 3.322 14.735 C 3.145 13.867 5.259 13.499 8.595 14.479 C 12.888 15.729 15.276 19.308 15.271 22.742 C 15.268 26.083 13.116 28.967 8.59 31.207 C 4.064 33.441 1.278 34.687 1.278 45.466 C 1.278 47.388 1.339 63.085 8.926 78.1 C 12.762 85.683 15.31 88.781 16.089 89.69 C 17.068 90.908 19.976 94.44 22.154 94.44 C 24.151 94.44 24.981 93.339 23.96 89.555 C 22.588 84.488 24.198 79.001 24.702 77.704 C 28.104 68.502 32.919 57.285 32.807 44.323 C 32.704 31.207 29.056 18.328 15.276 9.962 C 14.702 9.621 14.049 9.173 14.255 8.529 C 14.497 7.75 16.807 8.38 19.284 9.864 C 23.736 12.528 35.233 21.552 35.168 44.281 C 35.196 47.295 36.218 50.743 43.524 54.588 C 59.45 62.968 73.373 61.625 75.576 61.106 C 78.73 60.355 78.679 57.579 77.186 56.86 C 70.401 53.421 67.317 45.531 63.43 37.394 C 53.063 15.706 34.197 4.502 23.736 3.747 C 22.448 3.658 21.184 3.233 21.226 2.585 C 21.268 1.54 24.986 1.852 25.817 1.936 C 36.055 2.986 46.595 10.979 52.433 17.451 C 55.083 20.391 60.196 19.831 65.796 18.137 C 73.467 15.827 81.571 10.265 86.345 1.231 C 87.727 -1.376 85.258 -2.931 82.71 -1.867 C 81.366 -1.279 79.645 -.845 77.503 -.929 C 71.423 -.751 52.036 -10.051 33.875 -10.042 C 12.327 -10.042 1.507 -.859 0 0 " fill="#de9e20"/>
<path transform="matrix(1,0,0,-1,461.2778,353.233)" d="M 0 0 C -2.263 -.037 -5.343 -.004 -5.343 -.004 C -6.868 -.004 -6.878 -.849 -6.878 -2.566 C -6.878 -4.208 -6.878 -5.067 -5.347 -5.067 L 0 -5.067 C 1.102 -5.062 1.144 -5.184 1.129 -6.332 C 1.102 -8.749 1.129 -37.902 1.129 -37.902 C 1.129 -49.395 7.274 -50.767 13.359 -50.86 C 19.369 -50.944 23.316 -49.166 23.246 -47.043 C 23.204 -45.811 22.388 -45.256 20.993 -45.415 C 20.008 -45.526 19.317 -45.825 18.002 -45.825 C 14.814 -45.825 10.802 -44.966 10.802 -37.981 L 10.802 -6.43 C 10.793 -5.212 10.802 -5.062 12.016 -5.067 L 20.722 -5.067 C 22.248 -5.067 22.299 -4.208 22.299 -2.566 C 22.299 -.877 22.248 .005 20.722 .005 L 11.969 .005 C 10.798 .005 10.812 .117 10.802 1.139 L 10.802 11.754 C 10.802 13.457 9.51 14.059 8.469 13.97 C 7.709 13.905 6.804 13.41 4.657 12.006 C 1.857 10.172 1.129 9.006 1.129 5.66 L 1.129 1.213 C 1.125 -.004 1.073 .019 0 0 M -118.093 -46.656 C -116.768 -49.814 -116.465 -50.062 -111.421 -50.062 C -106.572 -50.062 -106.465 -49.866 -105.051 -46.623 C -103.643 -43.385 -85.229 2.893 -80.345 14.997 C -79.262 17.689 -79.729 17.918 -84.072 17.918 C -87.871 17.918 -88.221 17.699 -88.944 16.061 C -88.944 16.061 -109.572 -36.684 -110.016 -37.907 C -110.128 -38.248 -110.566 -38.275 -110.753 -37.86 C -111.416 -36.367 -132.357 16.21 -132.357 16.21 C -132.861 17.559 -132.987 18.039 -138.643 18.039 C -144.811 18.039 -144.4 17.451 -143.178 14.414 C -142.879 13.686 -119.413 -43.497 -118.093 -46.656 M 485.344 -35.121 C 485.344 -34.258 484.682 -33.381 483.459 -33.381 C 482.344 -33.381 481.788 -33.773 481.121 -34.93 C 478.56 -39.274 472.274 -44.365 463.913 -44.449 C 452.621 -44.551 446.103 -36.442 446.392 -23.904 C 446.392 -23.475 446.574 -23.106 447.218 -23.092 C 447.871 -23.073 464.888 -23.06 482.06 -23.092 C 485.344 -23.097 485.396 -20.917 485.396 -19.117 C 485.396 -8.73 475.723 .859 461.851 .859 C 447.456 .859 436.388 -6.994 436.388 -25.066 C 436.388 -44.294 450.76 -51.112 463.008 -51.112 C 477.813 -51.112 485.344 -39.666 485.344 -35.121 M 446.514 -16.947 C 447.367 -10.914 451.978 -4.237 461.066 -4.162 C 468.691 -4.101 475.378 -8.73 475.732 -15.542 C 475.83 -17.502 475.316 -17.745 472.983 -17.745 L 447.251 -17.745 C 446.536 -17.745 446.443 -17.423 446.514 -16.947 M -9.341 -35.121 C -9.341 -34.258 -10.009 -33.381 -11.231 -33.381 C -12.346 -33.381 -12.911 -33.773 -13.573 -34.93 C -16.135 -39.274 -22.415 -44.365 -30.772 -44.449 C -42.069 -44.551 -48.583 -36.442 -48.293 -23.904 C -48.293 -23.475 -48.121 -23.106 -47.473 -23.092 C -46.823 -23.073 -29.797 -23.06 -12.636 -23.092 C -9.346 -23.097 -9.29 -20.917 -9.29 -19.117 C -9.29 -8.73 -18.963 .859 -32.835 .859 C -47.239 .859 -58.298 -6.994 -58.298 -25.066 C -58.298 -44.294 -43.931 -51.112 -31.683 -51.112 C -16.872 -51.112 -9.341 -39.666 -9.341 -35.121 M -48.177 -16.947 C -47.318 -10.914 -42.713 -4.237 -33.619 -4.162 C -25.999 -4.101 -19.308 -8.73 -18.958 -15.542 C -18.855 -17.502 -19.378 -17.745 -21.706 -17.745 L -47.435 -17.745 C -48.153 -17.745 -48.242 -17.423 -48.177 -16.947 M 194.98 -47.939 C 194.98 -50.062 196.017 -50.043 199.81 -50.053 C 203.599 -50.062 204.644 -50.062 204.644 -47.939 L 204.644 -15.146 C 204.644 -2.109 192.409 .593 185.163 .593 C 176.694 .593 171.874 -1.829 168.58 -5.473 C 165.062 -1.642 160.358 .593 152.123 .593 C 146.453 .593 140.92 -.765 135.96 -2.963 C 132.386 -4.549 132.386 -6.658 132.386 -8.702 L 132.386 -47.939 C 132.386 -50.062 133.439 -50.062 137.22 -50.062 C 140.999 -50.062 142.044 -50.062 142.044 -47.939 L 142.059 -11.395 C 142.059 -5.944 146.431 -4.447 152.165 -4.442 C 159.304 -4.442 163.671 -7.801 163.671 -16.219 L 163.671 -47.939 C 163.671 -50.062 164.717 -50.062 168.515 -50.062 C 172.299 -50.062 173.33 -50.062 173.33 -47.939 L 173.33 -15.599 C 173.33 -9.183 176.685 -4.409 184.375 -4.409 C 191.84 -4.409 195.027 -9.281 195.027 -15.743 Z M -65.969 14.395 C -66.51 16.915 -69.318 18.445 -72.548 17.764 C -75.786 17.083 -77.727 14.549 -77.181 12.029 C -76.64 9.51 -73.831 7.975 -70.597 8.656 C -67.363 9.337 -65.427 11.871 -65.969 14.395 M 113.651 -39.414 C 113.651 -44.533 106.997 -45.876 102.079 -45.876 C 93.4 -45.876 89.08 -42.167 89.08 -37.268 C 89.08 -28.351 100.601 -25.131 112.61 -22.602 C 113.25 -22.472 113.642 -22.401 113.642 -23.312 Z M 102.588 -51.154 C 110.646 -51.21 114.738 -49.772 119.577 -47.552 C 123.202 -45.839 123.202 -43.917 123.202 -41.696 L 123.202 -14.049 C 123.202 -3.509 114.444 .868 104.408 .85 C 88.034 .808 81.516 -6.22 81.255 -10.774 C 81.115 -13.195 82.566 -14.968 85.394 -15.029 C 88.133 -15.094 89.779 -13.284 90.419 -11.782 C 92.435 -7.074 95.901 -4.162 103.055 -4.162 C 108.654 -4.162 113.66 -6.724 113.642 -13.382 L 113.642 -16.322 C 113.642 -17.222 113.642 -17.409 112.858 -17.502 C 98.104 -19.868 78.95 -24.501 78.95 -38.051 C 78.95 -46.479 89.062 -51.14 102.588 -51.154 M -76.411 -47.855 C -76.411 -49.973 -75.37 -49.973 -71.596 -49.973 C -67.798 -49.973 -66.752 -49.973 -66.752 -47.855 L -66.72 -1.983 C -66.678 1.391 -71.32 .542 -73.69 -1.003 C -76.341 -2.729 -76.425 -3.593 -76.425 -6.938 Z M 531.981 -36.479 C 531.604 -19.546 499.991 -22.653 499.981 -10.849 C 499.977 -6.234 504.723 -4.106 509.864 -4.106 C 517.27 -4.106 519.719 -6.579 521.268 -10.186 C 521.996 -11.866 523.456 -13.41 526.274 -13.41 C 528.407 -13.41 530.203 -12.057 530.203 -9.565 C 530.203 -5.818 524.996 .779 510.774 .877 C 498.997 .957 491.022 -3.532 491.014 -12.836 C 490.999 -30.269 522.654 -26.55 522.593 -38.63 C 522.574 -43.623 517.923 -45.933 511.166 -46.002 C 504.424 -46.072 500.821 -43.338 498.876 -38.616 C 497.929 -36.698 496.673 -34.967 493.733 -35.019 C 491.093 -35.061 489.521 -36.759 489.521 -39.354 C 489.521 -42.899 495.703 -51.154 510.718 -51.154 C 523.018 -51.154 532.2 -46.198 531.981 -36.479 M 430.061 -17.063 C 430.089 -1.782 416.771 .64 407.108 .64 C 399.307 .64 392.317 -1.33 389.027 -2.781 C 385.775 -4.218 385.5 -6.014 385.5 -8.991 L 385.528 -47.943 C 385.528 -50.062 386.568 -50.062 390.357 -50.062 C 394.165 -50.062 395.196 -50.062 395.196 -47.943 L 395.187 -11.978 C 395.187 -8.805 396.312 -4.414 407.337 -4.414 C 417.766 -4.414 420.374 -10.587 420.374 -17.063 L 420.397 -47.943 C 420.397 -50.062 421.437 -50.062 425.218 -50.062 C 429.034 -50.062 430.061 -50.062 430.061 -47.943 Z M 365.31 -47.855 C 365.31 -49.973 366.355 -49.973 370.13 -49.973 C 373.928 -49.973 374.974 -49.973 374.974 -47.855 L 375.006 -1.983 C 375.048 1.391 370.41 .542 368.04 -1.003 C 365.39 -2.729 365.301 -3.593 365.301 -6.938 Z M 375.757 14.395 C 375.216 16.915 372.412 18.445 369.178 17.764 C 365.944 17.083 364.004 14.549 364.545 12.029 C 365.081 9.51 367.895 7.975 371.124 8.656 C 374.362 9.337 376.303 11.871 375.757 14.395 M 344.858 -47.883 C 344.858 -50.006 345.904 -50.006 349.669 -50.006 C 353.473 -50.006 354.518 -50.006 354.518 -47.883 L 354.555 17.871 C 354.592 21.24 349.949 20.4 347.579 18.851 C 344.934 17.125 344.845 16.261 344.845 12.916 Z M 299.355 14.409 C 298.814 16.933 296.01 18.473 292.776 17.782 C 289.538 17.106 287.602 14.577 288.143 12.053 C 288.685 9.533 291.493 7.998 294.727 8.679 C 297.965 9.36 299.896 11.894 299.355 14.409 M 264.444 -29.625 C 267.733 -37.44 272.269 -48.331 272.269 -48.331 C 272.834 -49.721 272.325 -50.062 278.036 -50.062 C 284.098 -50.062 284.461 -49.866 283.267 -47.169 C 282.945 -46.441 258.9 11.32 257.562 14.47 C 256.227 17.628 255.648 17.857 250.646 17.857 C 245.695 17.857 245.047 17.731 243.676 14.47 C 242.28 11.157 218.143 -46.861 217.844 -47.589 C 216.822 -50.062 217.732 -50.062 221.834 -50.062 C 225.674 -50.062 226.122 -49.94 226.85 -48.303 L 234.297 -29.671 C 234.74 -28.547 234.885 -28.094 236.21 -28.094 C 241.305 -28.094 255.821 -28.094 262.517 -28.071 C 263.8 -28.062 263.936 -28.435 264.444 -29.625 M 237.722 -20.764 C 239.154 -17.11 248.337 6.906 248.822 8.259 C 248.967 8.642 249.354 8.642 249.513 8.24 C 250.166 6.561 259.437 -17.031 260.813 -20.685 C 261.117 -21.487 261.229 -22.14 260.17 -22.14 L 238.501 -22.14 C 237.181 -22.14 237.493 -21.338 237.722 -20.764 M 288.913 -47.832 C 288.913 -49.95 289.958 -49.95 293.729 -49.95 C 297.526 -49.95 298.571 -49.95 298.571 -47.832 L 298.608 -1.959 C 298.65 1.414 294.008 .569 291.638 -.979 C 288.987 -2.706 288.898 -3.574 288.898 -6.915 Z M 72.865 -17.017 C 72.894 -1.731 59.567 .682 49.908 .682 C 42.116 .682 35.117 -1.288 31.827 -2.739 C 28.58 -4.176 28.305 -5.972 28.305 -8.94 L 28.328 -47.897 C 28.328 -50.02 29.373 -50.02 33.162 -50.02 C 36.965 -50.02 38 -50.02 38 -47.897 L 37.981 -11.931 C 37.981 -8.753 39.106 -4.372 50.142 -4.372 C 60.565 -4.372 63.184 -10.545 63.184 -17.017 L 63.202 -47.897 C 63.202 -50.02 64.242 -50.02 68.026 -50.02 C 71.834 -50.02 72.865 -50.02 72.865 -47.897 Z M 317.529 -9.859 C 317.529 -6.15 321.51 -4.176 325.882 -4.176 C 333.334 -4.176 332.494 -10.116 337.817 -10.116 C 340.234 -10.116 341.714 -8.739 341.714 -6.36 C 341.714 -2.263 336.264 .458 327.795 .733 C 319.676 .994 315.467 -.438 312.561 -1.572 C 309.299 -2.846 307.861 -4.699 307.861 -7.601 L 307.861 -47.855 C 307.861 -49.978 308.893 -49.978 312.7 -49.978 C 316.494 -49.978 317.529 -49.978 317.529 -47.855 L 317.529 -9.859 " fill="#006885" fill-rule="evenodd"/>
</g>
</g>
</g>
</svg>
