<?xml version="1.0" encoding="UTF-8" standalone="no"?>
<!DOCTYPE svg PUBLIC "-//W3C//DTD SVG 1.1//EN" "http://www.w3.org/Graphics/SVG/1.1/DTD/svg11.dtd">
<svg xmlns="http://www.w3.org/2000/svg" xmlns:xlink="http://www.w3.org/1999/xlink" version="1.1" width="1133.86pt" height="708.661pt" viewBox="0 0 1133.86 708.661">
<g enable-background="new">
<g id="Layer-1" data-name="Layer 1">
<clipPath id="cp4">
<path transform="matrix(1,0,0,-1,0,708.661)" d="M 0 708.661 L 1133.858 708.661 L 1133.858 0 L 0 0 Z "/>
</clipPath>
<g clip-path="url(#cp4)">
<path transform="matrix(1,0,0,-1,576.4643,371.0675)" d="M 0 0 C 2.37 -1.339 19.409 -15.809 53.352 -15.809 C 81.929 -15.816 112.485 -1.167 122.019 -1.458 C 125.387 -1.326 128.1 -2 130.227 -2.936 C 134.236 -4.593 138.143 -2.159 135.96 1.957 C 128.426 16.171 115.651 24.926 103.608 28.572 C 94.791 31.24 86.734 32.134 82.553 27.493 C 73.366 17.293 56.797 4.715 40.654 3.065 C 39.347 2.93 33.483 2.429 33.412 4.081 C 33.346 5.097 35.345 5.771 37.376 5.909 C 53.858 7.112 83.555 24.745 99.886 58.881 C 106.012 71.688 110.872 84.117 121.522 89.535 C 123.872 90.67 123.96 95.033 118.979 96.215 C 115.511 97.04 93.605 99.148 68.521 85.955 C 57.038 79.909 55.428 74.472 55.394 69.733 C 55.494 33.945 37.371 19.749 30.37 15.546 C 26.466 13.204 22.814 12.217 22.437 13.44 C 22.117 14.464 23.148 15.156 24.048 15.7 C 45.757 28.872 51.495 49.141 51.673 69.794 C 51.843 90.211 44.258 107.865 38.894 122.351 C 38.108 124.403 35.57 133.022 37.734 141.018 C 39.344 146.971 38.034 148.703 34.892 148.703 C 31.444 148.703 26.883 143.147 25.328 141.232 C 24.096 139.795 20.091 134.918 14.092 122.976 C 2.11 99.337 2.025 74.626 2.025 71.597 C 2.025 54.63 6.42 52.67 13.546 49.141 C 20.647 45.619 24.04 41.082 24.045 35.82 C 24.048 30.405 20.284 24.777 13.549 22.801 C 8.306 21.263 4.967 21.839 5.251 23.202 C 5.468 24.284 7.791 24.554 8.476 24.737 C 15.577 26.676 20.311 30.344 20.311 35.82 C 20.311 42.675 11.901 47.685 .005 47.685 C -11.865 47.685 -20.325 42.665 -20.325 35.812 C -20.325 30.341 -15.583 26.668 -8.447 24.735 C -7.778 24.552 -5.453 24.284 -5.229 23.202 C -4.96 21.839 -8.285 21.255 -13.533 22.799 C -20.307 24.772 -24.057 30.399 -24.051 35.812 C -24.04 41.082 -20.651 45.613 -13.53 49.133 C -6.396 52.665 -2.016 54.625 -2.016 71.592 C -2.016 74.621 -2.106 99.332 -14.063 122.974 C -20.103 134.91 -24.096 139.79 -25.332 141.232 C -26.881 143.145 -31.441 148.7 -34.895 148.7 C -38.037 148.7 -39.348 146.96 -37.727 141.018 C -35.571 133.022 -38.111 124.397 -38.904 122.348 C -44.259 107.86 -51.827 90.211 -51.663 69.789 C -51.499 49.133 -45.752 28.869 -24.051 15.7 C -23.152 15.153 -22.12 14.464 -22.443 13.438 C -22.831 12.207 -26.475 13.204 -30.368 15.541 C -37.377 19.738 -55.472 33.945 -55.373 69.725 C -55.418 74.461 -57.028 79.906 -68.537 85.955 C -93.604 99.148 -115.527 97.035 -118.985 96.213 C -123.969 95.033 -123.881 90.667 -121.531 89.53 C -110.85 84.117 -105.993 71.688 -99.876 58.881 C -83.556 24.735 -53.843 7.102 -37.38 5.909 C -35.356 5.765 -33.349 5.097 -33.42 4.081 C -33.497 2.429 -39.355 2.928 -40.646 3.058 C -56.771 4.712 -73.369 17.293 -82.553 27.487 C -86.728 32.123 -94.775 31.235 -103.597 28.572 C -115.665 24.92 -128.432 16.171 -135.955 1.957 C -138.13 -2.162 -134.237 -4.599 -130.229 -2.936 C -128.11 -2.01 -125.4 -1.326 -122.03 -1.458 C -112.454 -1.175 -81.925 -15.816 -53.345 -15.809 C -19.434 -15.809 -2.374 -1.339 0 0 " fill="#de9e20"/>
<path transform="matrix(1,0,0,-1,693.2299,444.05973)" d="M 0 0 C 0 3.792 4.068 5.813 8.545 5.813 C 16.164 5.813 15.305 -.263 20.752 -.263 C 23.224 -.263 24.729 1.151 24.729 3.578 C 24.729 7.77 19.158 10.552 10.496 10.836 C 2.196 11.101 -2.111 9.637 -5.081 8.476 C -8.417 7.176 -9.889 5.28 -9.889 2.31 L -9.889 -38.862 C -9.889 -41.028 -8.836 -41.028 -4.937 -41.028 C -1.061 -41.028 0 -41.028 0 -38.862 Z M -324.742 10.085 C -327.058 10.045 -330.208 10.08 -330.208 10.08 C -331.77 10.08 -331.78 9.218 -331.78 7.458 C -331.78 5.779 -331.775 4.901 -330.216 4.901 L -324.742 4.901 C -323.62 4.906 -323.575 4.782 -323.591 3.606 C -323.62 1.138 -323.591 -28.678 -323.591 -28.678 C -323.591 -40.432 -317.304 -41.834 -311.085 -41.93 C -304.937 -42.018 -300.898 -40.201 -300.97 -38.026 C -301.015 -36.77 -301.848 -36.199 -303.277 -36.361 C -304.282 -36.478 -304.985 -36.785 -306.335 -36.785 C -309.594 -36.785 -313.694 -35.907 -313.694 -28.758 L -313.699 3.506 C -313.707 4.755 -313.699 4.906 -312.456 4.901 L -303.551 4.901 C -301.994 4.901 -301.938 5.779 -301.938 7.458 C -301.938 9.187 -301.994 10.088 -303.551 10.088 L -312.506 10.088 C -313.702 10.091 -313.688 10.208 -313.694 11.247 L -313.694 22.104 C -313.699 23.844 -315.021 24.461 -316.084 24.369 C -316.863 24.303 -317.789 23.799 -319.979 22.364 C -322.846 20.489 -323.591 19.293 -323.591 15.872 L -323.591 11.327 C -323.597 10.08 -323.645 10.104 -324.742 10.085 M -445.518 -37.631 C -444.165 -40.864 -443.852 -41.113 -438.699 -41.113 C -433.737 -41.113 -433.629 -40.914 -432.186 -37.602 C -430.74 -34.287 -411.912 13.045 -406.918 25.424 C -405.807 28.177 -406.287 28.411 -410.729 28.411 C -414.611 28.411 -414.97 28.185 -415.709 26.506 C -415.709 26.506 -436.809 -27.437 -437.259 -28.684 C -437.37 -29.036 -437.824 -29.06 -438.015 -28.636 C -438.691 -27.108 -460.105 26.663 -460.105 26.663 C -460.623 28.039 -460.753 28.535 -466.539 28.535 C -472.843 28.535 -472.427 27.93 -471.172 24.828 C -470.87 24.08 -446.872 -34.401 -445.518 -37.631 M 171.627 -25.835 C 171.627 -24.95 170.947 -24.056 169.693 -24.056 C 168.553 -24.056 167.988 -24.456 167.304 -25.639 C 164.687 -30.083 158.258 -35.29 149.708 -35.377 C 138.159 -35.483 131.497 -27.183 131.792 -14.36 C 131.792 -13.923 131.975 -13.543 132.635 -13.533 C 133.298 -13.514 150.708 -13.499 168.261 -13.536 C 171.627 -13.538 171.68 -11.308 171.68 -9.467 C 171.68 1.154 161.782 10.96 147.6 10.96 C 132.873 10.96 121.561 2.928 121.561 -15.551 C 121.561 -35.218 136.255 -42.192 148.78 -42.192 C 163.925 -42.192 171.627 -30.484 171.627 -25.835 M 131.913 -7.248 C 132.789 -1.079 137.504 5.752 146.799 5.826 C 154.599 5.89 161.43 1.154 161.793 -5.808 C 161.896 -7.815 161.371 -8.064 158.982 -8.064 L 132.669 -8.064 C 131.937 -8.062 131.842 -7.738 131.913 -7.248 M -334.3 -25.835 C -334.3 -24.95 -334.979 -24.056 -336.23 -24.056 C -337.371 -24.056 -337.946 -24.456 -338.628 -25.639 C -341.245 -30.083 -347.668 -35.29 -356.216 -35.377 C -367.768 -35.483 -374.429 -27.183 -374.135 -14.36 C -374.138 -13.923 -373.957 -13.543 -373.291 -13.533 C -372.631 -13.514 -355.219 -13.499 -337.668 -13.536 C -334.303 -13.538 -334.247 -11.308 -334.247 -9.467 C -334.247 1.154 -344.142 10.96 -358.326 10.96 C -373.056 10.96 -384.366 2.928 -384.366 -15.551 C -384.366 -35.218 -369.674 -42.192 -357.144 -42.192 C -342.001 -42.192 -334.3 -30.484 -334.3 -25.835 M -374.013 -7.248 C -373.138 -1.079 -368.428 5.752 -359.125 5.826 C -351.331 5.89 -344.494 1.154 -344.136 -5.808 C -344.029 -7.815 -344.561 -8.064 -346.944 -8.064 L -373.26 -8.064 C -373.991 -8.062 -374.084 -7.738 -374.013 -7.248 M -125.337 -38.944 C -125.337 -41.113 -124.275 -41.095 -120.394 -41.105 C -116.521 -41.113 -115.453 -41.113 -115.453 -38.944 L -115.453 -5.405 C -115.453 7.929 -127.967 10.693 -135.377 10.693 C -144.033 10.693 -148.966 8.21 -152.336 4.487 C -155.932 8.404 -160.74 10.693 -169.163 10.693 C -174.963 10.693 -180.624 9.3 -185.692 7.054 C -189.352 5.431 -189.352 3.275 -189.352 1.183 L -189.352 -38.944 C -189.352 -41.113 -188.275 -41.113 -184.411 -41.113 C -180.542 -41.113 -179.474 -41.113 -179.474 -38.944 L -179.46 -1.567 C -179.46 4.007 -174.989 5.537 -169.126 5.54 C -161.825 5.54 -157.354 2.105 -157.354 -6.505 L -157.354 -38.944 C -157.354 -41.113 -156.287 -41.113 -152.405 -41.113 C -148.53 -41.113 -147.478 -41.113 -147.478 -38.944 L -147.478 -5.866 C -147.478 .692 -144.041 5.574 -136.178 5.574 C -128.543 5.574 -125.283 .591 -125.283 -6.017 Z M -392.213 24.804 C -392.765 27.379 -395.637 28.949 -398.943 28.251 C -402.253 27.557 -404.234 24.965 -403.68 22.388 C -403.126 19.808 -400.254 18.24 -396.944 18.937 C -393.64 19.632 -391.656 22.223 -392.213 24.804 M -208.513 -30.227 C -208.513 -35.457 -215.317 -36.838 -220.343 -36.838 C -229.224 -36.838 -233.643 -33.041 -233.643 -28.031 C -233.643 -18.911 -221.862 -15.617 -209.573 -13.034 C -208.924 -12.896 -208.522 -12.825 -208.522 -13.756 Z M -219.828 -42.235 C -211.583 -42.288 -207.398 -40.819 -202.45 -38.551 C -198.74 -36.796 -198.74 -34.831 -198.74 -32.558 L -198.74 -4.283 C -198.74 6.495 -207.698 10.971 -217.961 10.95 C -234.714 10.91 -241.381 3.723 -241.644 -.931 C -241.786 -3.41 -240.302 -5.224 -237.413 -5.288 C -234.607 -5.352 -232.926 -3.503 -232.271 -1.962 C -230.211 2.851 -226.665 5.832 -219.349 5.832 C -213.625 5.832 -208.502 3.206 -208.522 -3.604 L -208.522 -6.606 C -208.522 -7.526 -208.522 -7.72 -209.326 -7.815 C -224.408 -10.231 -244.001 -14.973 -244.001 -28.832 C -244.001 -37.448 -233.663 -42.219 -219.828 -42.235 M -402.896 -38.859 C -402.896 -41.023 -401.826 -41.023 -397.968 -41.023 C -394.085 -41.023 -393.014 -41.023 -393.014 -38.859 L -392.977 8.059 C -392.937 11.504 -397.684 10.64 -400.11 9.057 C -402.821 7.293 -402.905 6.41 -402.905 2.986 Z M 219.324 -27.225 C 218.937 -9.902 186.604 -13.082 186.6 -1.01 C 186.592 3.71 191.444 5.887 196.706 5.887 C 204.272 5.887 206.783 3.355 208.366 -.334 C 209.109 -2.05 210.603 -3.628 213.49 -3.628 C 215.667 -3.628 217.503 -2.244 217.503 .305 C 217.503 4.134 212.178 10.884 197.637 10.982 C 185.589 11.062 177.435 6.468 177.424 -3.044 C 177.41 -20.866 209.78 -17.068 209.722 -29.423 C 209.7 -34.528 204.945 -36.896 198.034 -36.965 C 191.14 -37.037 187.456 -34.242 185.465 -29.41 C 184.499 -27.445 183.213 -25.676 180.211 -25.732 C 177.509 -25.777 175.896 -27.511 175.896 -30.161 C 175.896 -33.791 182.219 -42.235 197.576 -42.235 C 210.157 -42.235 219.547 -37.165 219.324 -27.225 M 115.09 -7.367 C 115.119 8.264 101.493 10.735 91.611 10.735 C 83.638 10.735 76.479 8.725 73.12 7.24 C 69.792 5.768 69.513 3.93 69.513 .891 L 69.542 -38.949 C 69.542 -41.113 70.608 -41.113 74.48 -41.113 C 78.373 -41.113 79.432 -41.113 79.432 -38.949 L 79.418 -2.164 C 79.418 1.082 80.566 5.569 91.848 5.569 C 102.509 5.569 105.182 -.743 105.182 -7.367 L 105.203 -38.949 C 105.203 -41.113 106.267 -41.113 110.133 -41.113 C 114.037 -41.113 115.09 -41.113 115.09 -38.949 Z M 48.865 -38.859 C 48.865 -41.023 49.934 -41.023 53.792 -41.023 C 57.68 -41.023 58.743 -41.023 58.743 -38.859 L 58.786 8.059 C 58.823 11.504 54.076 10.64 51.655 9.057 C 48.947 7.293 48.854 6.41 48.854 2.986 Z M 59.55 24.804 C 58.995 27.379 56.129 28.946 52.821 28.251 C 49.512 27.557 47.528 24.965 48.083 22.388 C 48.634 19.808 51.512 18.24 54.811 18.937 C 58.123 19.632 60.106 22.223 59.55 24.804 M 27.949 -38.888 C 27.949 -41.058 29.015 -41.058 32.874 -41.058 C 36.759 -41.058 37.827 -41.058 37.827 -38.888 L 37.864 28.363 C 37.904 31.81 33.152 30.946 30.733 29.362 C 28.026 27.596 27.933 26.713 27.933 23.295 Z M -18.59 24.822 C -19.137 27.405 -22.011 28.975 -25.315 28.275 C -28.631 27.581 -30.604 24.989 -30.057 22.412 C -29.5 19.834 -26.628 18.267 -23.321 18.959 C -20.012 19.656 -18.033 22.25 -18.59 24.822 M -54.296 -20.213 C -50.928 -28.209 -47.003 -37.729 -46.295 -39.347 C -45.584 -40.965 -45.486 -41.1 -40.392 -41.113 C -34.083 -41.129 -33.82 -40.914 -35.04 -38.159 C -35.369 -37.416 -59.963 21.659 -61.329 24.886 C -62.694 28.113 -63.289 28.35 -68.404 28.35 C -73.47 28.35 -74.13 28.214 -75.533 24.886 C -76.957 21.494 -101.644 -37.843 -101.951 -38.586 C -102.994 -41.113 -102.469 -41.129 -97.87 -41.113 C -93.786 -41.097 -93.486 -40.991 -92.736 -39.315 L -85.122 -20.261 C -84.672 -19.113 -84.518 -18.646 -83.171 -18.646 C -77.957 -18.646 -63.113 -18.646 -56.264 -18.622 C -54.951 -18.617 -54.813 -18.996 -54.296 -20.213 M -81.622 -11.149 C -80.158 -7.415 -70.765 17.145 -70.269 18.532 C -70.126 18.924 -69.723 18.924 -69.563 18.516 C -68.897 16.792 -59.411 -7.338 -58.006 -11.072 C -57.698 -11.889 -57.582 -12.557 -58.664 -12.557 L -80.821 -12.557 C -82.179 -12.557 -81.855 -11.737 -81.622 -11.149 M -29.27 -38.838 C -29.27 -41.002 -28.198 -41.002 -24.345 -41.002 C -20.457 -41.002 -19.391 -41.002 -19.391 -38.838 L -19.349 8.081 C -19.309 11.528 -24.062 10.664 -26.479 9.083 C -29.189 7.317 -29.277 6.431 -29.277 3.013 Z M -250.223 -7.317 C -250.195 8.311 -263.821 10.783 -273.7 10.783 C -281.675 10.783 -288.829 8.765 -292.192 7.282 C -295.515 5.813 -295.796 3.973 -295.796 .939 L -295.774 -38.904 C -295.774 -41.073 -294.703 -41.073 -290.832 -41.073 C -286.938 -41.073 -285.883 -41.073 -285.883 -38.904 L -285.899 -2.119 C -285.899 1.13 -284.745 5.614 -273.467 5.614 C -262.798 5.614 -260.127 -.697 -260.127 -7.317 L -260.108 -38.904 C -260.108 -41.073 -259.043 -41.073 -255.176 -41.073 C -251.28 -41.073 -250.223 -41.073 -250.223 -38.904 Z " fill="#006885" fill-rule="evenodd"/>
</g>
</g>
</g>
</svg>
