<?xml version="1.0" encoding="UTF-8" standalone="no"?>
<!DOCTYPE svg PUBLIC "-//W3C//DTD SVG 1.1//EN" "http://www.w3.org/Graphics/SVG/1.1/DTD/svg11.dtd">
<svg xmlns="http://www.w3.org/2000/svg" xmlns:xlink="http://www.w3.org/1999/xlink" version="1.1" width="1133.86pt" height="708.661pt" viewBox="0 0 1133.86 708.661">
<g enable-background="new">
<g id="Layer-1" data-name="Layer 1">
<clipPath id="cp2">
<path transform="matrix(1,0,0,-1,0,708.661)" d="M 0 708.661 L 1133.858 708.661 L 1133.858 0 L 0 0 Z "/>
</clipPath>
<g clip-path="url(#cp2)">
<path transform="matrix(1,0,0,-1,258.5258,366.39573)" d="M 0 0 C -1.312 -.747 -10.745 -8.741 -29.513 -8.741 C -45.321 -8.754 -62.212 -.649 -67.511 -.809 C -69.376 -.727 -70.872 -1.109 -72.042 -1.625 C -74.257 -2.552 -76.415 -1.194 -75.212 1.077 C -71.051 8.941 -63.987 13.785 -57.311 15.797 C -52.434 17.272 -47.98 17.769 -45.675 15.2 C -40.591 9.563 -31.41 2.605 -22.49 1.687 C -21.767 1.618 -18.527 1.342 -18.491 2.26 C -18.454 2.821 -19.56 3.187 -20.682 3.264 C -29.789 3.927 -46.224 13.68 -55.25 32.569 C -58.636 39.657 -61.321 46.529 -67.23 49.528 C -68.535 50.154 -68.576 52.568 -65.824 53.223 C -63.906 53.678 -51.783 54.849 -37.917 47.545 C -31.549 44.196 -30.659 41.193 -30.635 38.567 C -30.691 18.772 -20.678 10.912 -16.809 8.592 C -14.646 7.308 -12.631 6.755 -12.415 7.43 C -12.245 7.994 -12.813 8.381 -13.31 8.682 C -25.314 15.968 -28.484 27.181 -28.578 38.604 C -28.671 49.898 -24.485 59.672 -21.515 67.679 C -21.084 68.813 -19.682 73.587 -20.877 78.001 C -21.763 81.297 -21.039 82.256 -19.304 82.256 C -17.402 82.256 -14.87 79.18 -14.017 78.123 C -13.334 77.326 -11.123 74.632 -7.782 68.023 C -1.166 54.945 -1.117 41.278 -1.117 39.604 C -1.117 30.212 -3.54 29.127 -7.49 27.181 C -11.428 25.233 -13.302 22.723 -13.306 19.809 C -13.31 16.817 -11.229 13.708 -7.49 12.611 C -4.58 11.762 -2.743 12.079 -2.897 12.835 C -3.02 13.432 -4.304 13.578 -4.678 13.68 C -8.624 14.753 -11.245 16.776 -11.245 19.809 C -11.245 23.601 -6.575 26.376 -.004 26.376 C 6.567 26.376 11.237 23.601 11.237 19.809 C 11.237 16.772 8.62 14.749 4.674 13.676 C 4.3 13.578 3.016 13.432 2.894 12.835 C 2.739 12.079 4.58 11.758 7.486 12.611 C 11.225 13.7 13.306 16.817 13.302 19.809 C 13.298 22.718 11.424 25.229 7.482 27.181 C 3.54 29.127 1.113 30.212 1.113 39.6 C 1.113 41.274 1.167 54.945 7.774 68.023 C 11.115 74.628 13.334 77.326 14.013 78.119 C 14.866 79.18 17.398 82.256 19.296 82.256 C 21.035 82.256 21.759 81.297 20.869 78.001 C 19.674 73.587 21.076 68.809 21.515 67.679 C 24.478 59.664 28.672 49.895 28.574 38.604 C 28.484 27.181 25.307 15.964 13.306 8.677 C 12.806 8.381 12.237 7.99 12.416 7.43 C 12.627 6.751 14.639 7.3 16.797 8.592 C 20.674 10.912 30.687 18.772 30.631 38.567 C 30.655 41.193 31.545 44.196 37.909 47.545 C 51.779 54.844 63.906 53.674 65.825 53.223 C 68.572 52.568 68.527 50.15 67.227 49.524 C 61.317 46.529 58.632 39.657 55.246 32.569 C 46.216 13.68 29.785 3.922 20.674 3.264 C 19.552 3.187 18.451 2.816 18.487 2.252 C 18.523 1.342 21.763 1.614 22.486 1.687 C 31.402 2.602 40.583 9.563 45.667 15.2 C 47.976 17.76 52.43 17.272 57.307 15.797 C 63.988 13.785 71.047 8.941 75.204 1.073 C 76.407 -1.198 74.258 -2.552 72.039 -1.625 C 70.868 -1.113 69.369 -.735 67.503 -.809 C 62.208 -.654 45.322 -8.754 29.505 -8.745 C 10.737 -8.745 1.312 -.747 0 0 " fill="#de9e20"/>
<path transform="matrix(1,0,0,-1,1021.4643,324.6008)" d="M 0 0 L -.041 -.024 C 6.562 -6.686 10.928 -15.654 11.623 -25.741 C 13.171 -48.016 -3.605 -67.312 -25.855 -68.881 C -36.333 -69.62 -46.131 -66.288 -53.763 -60.253 L -53.796 -60.289 C -45.883 -67.661 -35.057 -71.876 -23.434 -71.055 C -1.154 -69.498 15.617 -50.187 14.073 -27.936 C 13.272 -16.662 7.949 -6.782 0 0 " fill="#004381"/>
<path transform="matrix(1,0,0,-1,949.853,370.5862)" d="M 0 0 C -1.289 -.716 -1.573 -1.78 -.919 -3.455 C -.31 -4.967 .646 -5.637 1.657 -5.215 C 2.475 -4.901 2.612 -4.194 2.283 -2.361 L 2.129 -1.662 C 1.804 .134 1.747 .902 1.958 1.674 C 2.174 2.548 2.67 3.112 3.422 3.418 C 5.254 4.145 6.981 3.003 8.01 .455 C 9.123 -2.325 8.53 -4.418 6.348 -5.324 L 5.811 -3.963 C 7.327 -3.32 7.701 -1.91 6.884 .113 C 6.226 1.76 5.197 2.495 4.084 2.036 C 3.193 1.69 2.995 .869 3.319 -1.004 L 3.445 -1.78 L 3.563 -2.487 C 3.8 -3.861 3.828 -4.361 3.697 -4.946 C 3.523 -5.686 3.052 -6.227 2.287 -6.527 C .568 -7.218 -1.09 -6.198 -2.013 -3.886 C -3.008 -1.37 -2.476 .495 -.558 1.357 L 0 0 " fill="#004381"/>
<path transform="matrix(1,0,0,-1,948.7075,355.97483)" d="M 0 0 L 6.132 5.141 L 6.173 3.238 L .971 -1.053 L 2.662 -2.906 L 6.312 -2.833 L 6.344 -4.337 L -4.076 -4.561 L -4.117 -3.057 L -.017 -2.971 L 1.077 -2.971 L .731 -2.593 L .361 -2.231 L -4.23 2.747 L -4.288 4.73 Z " fill="#004381"/>
<path transform="matrix(1,0,0,-1,953.3149,339.8371)" d="M 0 0 L 4.015 -1.406 L 3.527 -2.813 L -.492 -1.406 L -7.686 -3.584 L -7.08 -1.869 L -2.605 -.613 L -2.061 -.455 C -1.837 -.386 -1.703 -.37 -1.313 -.272 C -1.658 .139 -1.739 .24 -2.113 .74 L -4.865 4.491 L -4.288 6.129 L 0 0 " fill="#004381"/>
<path transform="matrix(1,0,0,-1,960.3676,320.6838)" d="M 0 0 L -2.202 -2.694 L 4.369 -8.071 L 2.801 -10.002 L -3.787 -4.616 L -5.97 -7.307 L -7.465 -6.08 L -1.495 1.228 Z " fill="#004381"/>
<path transform="matrix(1,0,0,-1,974.434,310.8059)" d="M 0 0 L -5.255 -3.077 L -4.142 -5.003 L .69 -2.175 L 1.577 -3.715 L -3.227 -6.527 L -1.946 -8.759 L 3.418 -5.608 L 4.397 -7.267 L -3.129 -11.672 L -8.384 -2.666 L -.976 1.678 Z " fill="#004381"/>
<path transform="matrix(1,0,0,-1,994.6059,314.8479)" d="M 0 0 L -2.728 -.187 L -4.08 2.072 L -8.282 1.39 L -8.864 -1.167 L -11.457 -1.821 L -8.722 9.563 L -6.149 9.965 Z M -5.966 5.355 C -6.539 6.311 -6.755 6.737 -7.084 7.489 C -7.182 6.733 -7.263 6.189 -7.526 5.12 L -7.966 3.129 L -4.93 3.616 L -5.966 5.355 " fill="#004381"/>
<path transform="matrix(1,0,0,-1,1011.3364,318.1907)" d="M 0 0 L -2.19 .829 L -1.354 3.946 C -1.272 4.292 -1.13 4.796 -.943 5.434 C -.769 6.084 -.613 6.592 -.517 6.97 C -.37 7.385 -.235 7.815 -.094 8.274 L .138 9.014 C -.472 7.941 -.716 7.588 -1.284 6.742 C -1.512 6.36 -1.735 6.039 -1.923 5.779 L -4.873 1.63 L -6.779 2.134 L -7.372 7.12 C -7.421 7.372 -7.434 7.734 -7.47 8.226 C -7.506 8.88 -7.53 9.38 -7.555 9.726 C -7.563 9.998 -7.563 10.408 -7.555 10.981 L -7.819 9.726 C -8.128 8.348 -8.267 7.759 -8.677 6.12 L -9.547 2.764 L -11.858 3.13 L -9.241 13.318 L -5.746 12.647 L -5.251 7.815 C -5.125 6.686 -5.101 5.738 -5.141 4.397 C -4.747 5.161 -4.612 5.417 -4.157 6.12 C -3.849 6.601 -3.589 6.986 -3.349 7.368 L -.613 11.294 L 2.723 10.164 L 0 0 " fill="#004381"/>
<path transform="matrix(1,0,0,-1,991.4262,338.2717)" d="M 0 0 C -1.264 -1.117 -3.771 -3.52 -6.186 -5.848 L -8.937 -8.481 C -11.164 -8.067 -13.358 -7.88 -15.65 -7.88 C -20.723 -7.88 -25.375 -9.273 -27.497 -11.452 C -28.293 -12.281 -28.708 -13.18 -28.684 -14.122 C -28.631 -16.593 -25.818 -17.829 -24.965 -18.146 C -20.454 -19.832 -16.679 -19.341 -12.7 -16.544 C -10.514 -15.013 -7.868 -12.562 -5.808 -10.563 C -4.198 -10.932 -2.382 -11.411 -.423 -11.988 L 1.382 -12.509 C -.963 -14.817 -3.36 -17.247 -5.58 -19.206 L -5.75 -19.353 C -8.852 -22.088 -11.087 -24.051 -14.329 -24.782 C -16.593 -25.278 -18.207 -24.799 -18.734 -24.485 C -18.792 -24.489 -18.861 -24.583 -18.861 -24.583 C -16.991 -26.123 -15.224 -26.997 -12.172 -26.741 C -9.262 -26.48 -5.921 -24.656 -2.491 -21.437 L 2.138 -16.902 L 5.381 -13.68 C 5.381 -13.699 11.944 -15.609 11.944 -15.609 C 12.001 -15.618 12.058 -15.638 12.058 -15.638 C 12.001 -15.638 7.998 -19.584 7.998 -19.584 L 4.52 -23.063 C .951 -26.514 -.995 -28.313 -3.076 -29.801 C -6.53 -32.244 -9.481 -33.508 -12.082 -33.683 C -13.423 -33.771 -15.378 -33.679 -16.991 -32.739 C -17.064 -32.719 -17.162 -32.801 -17.162 -32.801 C -15.415 -34.316 -13.236 -36.116 -9.525 -36.027 C -5.328 -35.885 -1.593 -33.877 4.202 -28.554 C 6.848 -26.123 9.478 -23.425 11.781 -21.011 L 16.09 -16.646 C 18.935 -17.28 21.462 -17.544 24.263 -17.479 C 28.351 -17.382 31.838 -15.443 31.878 -13.204 C 31.919 -11.55 30.558 -10.66 29.744 -10.136 C 29.082 -9.696 27.253 -8.681 24.733 -8.681 C 21.669 -8.681 18.479 -10.038 15.236 -12.7 L 13.078 -14.614 C 13.103 -14.602 12.294 -14.402 12.294 -14.402 L 6.295 -12.7 C 8.079 -11.054 9.579 -9.64 10.92 -8.429 C 14.22 -5.511 17.829 -4.3 19.959 -4.17 C 21.507 -4.06 24.201 -4.202 25.307 -4.99 C 25.355 -4.99 25.429 -4.86 25.429 -4.86 C 22.474 -2.341 19.918 -2.008 17.821 -2.008 C 15.752 -2.008 12.416 -2.662 8.331 -5.823 C 6.678 -7.112 4.52 -9.273 2.252 -11.554 L -.78 -10.623 L -1.512 -10.399 L -4.702 -9.424 C -4.625 -9.424 -2.877 -7.713 -2.877 -7.713 C -.728 -5.6 1.293 -3.617 2.882 -2.26 C 8.641 2.577 12.257 3.207 14.769 3.231 C 17.524 3.231 19.719 2.662 21.292 1.528 C 21.324 1.532 21.394 1.634 21.394 1.634 C 18.175 4.564 15.846 5.507 11.843 5.535 C 8.323 5.563 4.104 3.593 0 0 M -22.607 -17.28 C -24.478 -17.146 -25.38 -16.406 -25.38 -14.955 C -25.38 -14.772 -25.254 -10.196 -14.805 -9.685 C -13.61 -9.615 -12.298 -9.579 -10.258 -9.818 C -10.347 -9.818 -11.444 -10.818 -11.444 -10.818 L -12.099 -11.428 C -14.61 -13.716 -18.845 -17.544 -22.607 -17.28 M 19.674 -13.586 C 22.677 -11.546 25.181 -10.465 26.741 -10.518 C 27.66 -10.55 28.757 -10.818 28.757 -11.964 C 28.757 -13.135 27.644 -14.102 25.47 -14.891 C 23.563 -15.577 20.633 -15.756 17.438 -15.402 C 18.316 -14.602 19.052 -13.984 19.674 -13.586 " fill="#004381"/>
<path transform="matrix(1,0,0,-1,990.3842,354.1018)" d="M 0 0 L 0 -3.089 Z " fill="#004381"/>
<path transform="matrix(1,0,0,-1,1015.6088,309.8606)" d="M 0 0 C .382 .861 1.377 1.264 2.251 .894 C 3.137 .512 3.531 -.479 3.153 -1.357 C 2.796 -2.235 1.788 -2.63 .91 -2.248 C .032 -1.857 -.37 -.878 0 0 M 2.856 -1.374 C 3.242 -.671 2.971 .207 2.279 .572 C 1.593 .959 .698 .735 .316 .02 C -.073 -.679 .198 -1.557 .897 -1.955 C 1.572 -2.316 2.475 -2.081 2.856 -1.374 M 1.849 -1.882 L 1.572 -1.728 L 1.499 -.699 L 1.223 -.549 L .8 -1.309 L .577 -1.179 L 1.483 .459 L 2.194 .061 C 2.486 -.102 2.738 -.338 2.54 -.679 C 2.36 -1.008 2.072 -1.008 1.771 -.857 Z M 1.629 -.476 C 1.824 -.59 2.166 -.821 2.312 -.553 C 2.397 -.395 2.194 -.232 2.02 -.143 L 1.58 .102 L 1.353 -.325 L 1.629 -.476 " fill="#004381"/>
<path transform="matrix(1,0,0,-1,462.2748,328.6848)" d="M 0 0 C -1.972 -.032 -4.653 -.004 -4.653 -.004 C -5.982 -.004 -5.991 -.739 -5.991 -2.235 C -5.991 -3.665 -5.991 -4.413 -4.658 -4.413 L 0 -4.413 C .959 -4.409 .995 -4.515 .983 -5.515 C .959 -7.62 .983 -33.012 .983 -33.012 C .983 -43.021 6.335 -44.216 11.635 -44.298 C 16.869 -44.37 20.308 -42.822 20.246 -40.973 C 20.21 -39.9 19.499 -39.417 18.283 -39.555 C 17.426 -39.652 16.824 -39.912 15.679 -39.912 C 12.902 -39.912 9.408 -39.164 9.408 -33.081 L 9.408 -5.6 C 9.399 -4.539 9.408 -4.409 10.465 -4.413 L 18.048 -4.413 C 19.377 -4.413 19.422 -3.665 19.422 -2.235 C 19.422 -.764 19.377 .004 18.048 .004 L 10.424 .004 C 9.403 .004 9.416 .102 9.408 .992 L 9.408 10.237 C 9.408 11.721 8.282 12.245 7.376 12.168 C 6.713 12.111 5.925 11.681 4.056 10.457 C 1.617 8.859 .983 7.844 .983 4.93 L .983 1.057 C .979 -.004 .935 .017 0 0 M -102.856 -40.636 C -101.702 -43.387 -101.438 -43.603 -97.045 -43.603 C -92.822 -43.603 -92.729 -43.432 -91.497 -40.607 C -90.271 -37.787 -74.233 2.52 -69.979 13.062 C -69.035 15.407 -69.442 15.606 -73.226 15.606 C -76.534 15.606 -76.839 15.415 -77.469 13.988 C -77.469 13.988 -95.436 -31.951 -95.821 -33.016 C -95.919 -33.313 -96.301 -33.337 -96.464 -32.975 C -97.041 -31.675 -115.28 14.118 -115.28 14.118 C -115.719 15.293 -115.828 15.712 -120.754 15.712 C -126.127 15.712 -125.77 15.199 -124.704 12.554 C -124.444 11.92 -104.007 -37.885 -102.856 -40.636 M 422.721 -30.59 C 422.721 -29.838 422.144 -29.073 421.079 -29.073 C 420.107 -29.073 419.624 -29.415 419.043 -30.423 C 416.812 -34.206 411.338 -38.641 404.055 -38.714 C 394.22 -38.803 388.543 -31.739 388.795 -20.819 C 388.795 -20.445 388.953 -20.125 389.514 -20.112 C 390.083 -20.097 404.904 -20.084 419.86 -20.112 C 422.721 -20.116 422.766 -18.219 422.766 -16.65 C 422.766 -7.604 414.341 .748 402.259 .748 C 389.722 .748 380.081 -6.092 380.081 -21.832 C 380.081 -38.579 392.599 -44.517 403.267 -44.517 C 416.162 -44.517 422.721 -34.548 422.721 -30.59 M 388.9 -14.76 C 389.645 -9.506 393.659 -3.689 401.576 -3.625 C 408.217 -3.572 414.04 -7.604 414.35 -13.537 C 414.435 -15.244 413.987 -15.455 411.955 -15.455 L 389.542 -15.455 C 388.921 -15.455 388.84 -15.175 388.9 -14.76 M -8.137 -30.59 C -8.137 -29.838 -8.718 -29.073 -9.782 -29.073 C -10.754 -29.073 -11.245 -29.415 -11.822 -30.423 C -14.054 -34.206 -19.523 -38.641 -26.803 -38.714 C -36.642 -38.803 -42.314 -31.739 -42.063 -20.819 C -42.063 -20.445 -41.912 -20.125 -41.348 -20.112 C -40.782 -20.097 -25.953 -20.084 -11.006 -20.112 C -8.141 -20.116 -8.092 -18.219 -8.092 -16.65 C -8.092 -7.604 -16.517 .748 -28.599 .748 C -41.145 .748 -50.776 -6.092 -50.776 -21.832 C -50.776 -38.579 -38.263 -44.517 -27.595 -44.517 C -14.696 -44.517 -8.137 -34.548 -8.137 -30.59 M -41.961 -14.76 C -41.214 -9.506 -37.202 -3.689 -29.281 -3.625 C -22.646 -3.572 -16.817 -7.604 -16.513 -13.537 C -16.423 -15.244 -16.878 -15.455 -18.906 -15.455 L -41.315 -15.455 C -41.941 -15.455 -42.019 -15.175 -41.961 -14.76 M 169.822 -41.753 C 169.822 -43.603 170.725 -43.586 174.028 -43.595 C 177.328 -43.603 178.238 -43.603 178.238 -41.753 L 178.238 -13.191 C 178.238 -1.837 167.583 .517 161.271 .517 C 153.896 .517 149.697 -1.593 146.828 -4.767 C 143.764 -1.431 139.667 .517 132.494 .517 C 127.557 .517 122.736 -.666 118.417 -2.58 C 115.304 -3.962 115.304 -5.799 115.304 -7.579 L 115.304 -41.753 C 115.304 -43.603 116.222 -43.603 119.514 -43.603 C 122.806 -43.603 123.716 -43.603 123.716 -41.753 L 123.729 -9.924 C 123.729 -5.178 127.536 -3.873 132.531 -3.869 C 138.749 -3.869 142.553 -6.795 142.553 -14.126 L 142.553 -41.753 C 142.553 -43.603 143.463 -43.603 146.771 -43.603 C 150.067 -43.603 150.965 -43.603 150.965 -41.753 L 150.965 -13.586 C 150.965 -7.998 153.887 -3.84 160.585 -3.84 C 167.087 -3.84 169.862 -8.083 169.862 -13.712 Z M -57.457 12.538 C -57.929 14.732 -60.375 16.065 -63.188 15.472 C -66.008 14.879 -67.698 12.672 -67.223 10.478 C -66.752 8.282 -64.305 6.945 -61.489 7.539 C -58.673 8.132 -56.986 10.339 -57.457 12.538 M 98.986 -34.328 C 98.986 -38.786 93.191 -39.957 88.908 -39.957 C 81.349 -39.957 77.586 -36.727 77.586 -32.459 C 77.586 -24.692 87.619 -21.889 98.08 -19.686 C 98.637 -19.572 98.979 -19.511 98.979 -20.304 Z M 89.351 -44.554 C 96.369 -44.603 99.934 -43.351 104.147 -41.416 C 107.306 -39.925 107.306 -38.25 107.306 -36.315 L 107.306 -12.236 C 107.306 -3.056 99.678 .756 90.936 .74 C 76.675 .703 70.998 -5.417 70.771 -9.384 C 70.648 -11.493 71.912 -13.037 74.375 -13.09 C 76.761 -13.146 78.195 -11.57 78.752 -10.262 C 80.508 -6.161 83.527 -3.625 89.757 -3.625 C 94.634 -3.625 98.994 -5.856 98.979 -11.655 L 98.979 -14.216 C 98.979 -15 98.979 -15.162 98.296 -15.244 C 85.445 -17.305 68.763 -21.34 68.763 -33.142 C 68.763 -40.481 77.569 -44.541 89.351 -44.554 M -66.553 -41.681 C -66.553 -43.525 -65.646 -43.525 -62.358 -43.525 C -59.051 -43.525 -58.14 -43.525 -58.14 -41.681 L -58.111 -1.727 C -58.075 1.211 -62.119 .472 -64.184 -.874 C -66.491 -2.377 -66.564 -3.129 -66.564 -6.043 Z M 463.341 -31.772 C 463.012 -17.023 435.478 -19.73 435.47 -9.448 C 435.466 -5.43 439.599 -3.576 444.077 -3.576 C 450.527 -3.576 452.66 -5.73 454.01 -8.871 C 454.644 -10.335 455.916 -11.68 458.37 -11.68 C 460.228 -11.68 461.792 -10.501 461.792 -8.331 C 461.792 -5.067 457.257 .679 444.87 .765 C 434.612 .833 427.667 -3.076 427.659 -11.18 C 427.646 -26.363 455.217 -23.124 455.164 -33.646 C 455.147 -37.994 451.096 -40.006 445.211 -40.066 C 439.339 -40.128 436.201 -37.746 434.507 -33.634 C 433.682 -31.963 432.589 -30.455 430.028 -30.5 C 427.728 -30.537 426.358 -32.016 426.358 -34.275 C 426.358 -37.364 431.743 -44.554 444.821 -44.554 C 455.534 -44.554 463.531 -40.237 463.341 -31.772 M 374.57 -14.862 C 374.595 -1.552 362.996 .557 354.58 .557 C 347.785 .557 341.697 -1.158 338.832 -2.422 C 335.999 -3.674 335.76 -5.238 335.76 -7.831 L 335.784 -41.758 C 335.784 -43.603 336.69 -43.603 339.99 -43.603 C 343.307 -43.603 344.204 -43.603 344.204 -41.758 L 344.196 -10.432 C 344.196 -7.669 345.176 -3.845 354.779 -3.845 C 363.862 -3.845 366.134 -9.221 366.134 -14.862 L 366.154 -41.758 C 366.154 -43.603 367.061 -43.603 370.353 -43.603 C 373.677 -43.603 374.57 -43.603 374.57 -41.758 Z M 318.175 -41.681 C 318.175 -43.525 319.085 -43.525 322.373 -43.525 C 325.681 -43.525 326.591 -43.525 326.591 -41.681 L 326.619 -1.727 C 326.656 1.211 322.616 .472 320.552 -.874 C 318.243 -2.377 318.166 -3.129 318.166 -6.043 Z M 327.273 12.538 C 326.803 14.732 324.36 16.065 321.544 15.472 C 318.728 14.879 317.036 12.672 317.508 10.478 C 317.976 8.282 320.426 6.945 323.238 7.539 C 326.059 8.132 327.749 10.339 327.273 12.538 M 300.362 -41.704 C 300.362 -43.554 301.272 -43.554 304.552 -43.554 C 307.864 -43.554 308.774 -43.554 308.774 -41.704 L 308.807 15.565 C 308.84 18.5 304.796 17.768 302.731 16.419 C 300.427 14.915 300.35 14.163 300.35 11.249 Z M 260.729 12.55 C 260.259 14.748 257.815 16.09 255 15.488 C 252.179 14.898 250.492 12.696 250.964 10.497 C 251.436 8.303 253.882 6.966 256.698 7.56 C 259.519 8.152 261.201 10.359 260.729 12.55 M 230.323 -25.802 C 233.188 -32.609 237.139 -42.095 237.139 -42.095 C 237.63 -43.306 237.187 -43.603 242.161 -43.603 C 247.44 -43.603 247.758 -43.432 246.717 -41.083 C 246.437 -40.449 225.495 9.859 224.328 12.603 C 223.166 15.354 222.662 15.553 218.306 15.553 C 213.994 15.553 213.429 15.443 212.234 12.603 C 211.019 9.717 189.996 -40.814 189.735 -41.448 C 188.846 -43.603 189.638 -43.603 193.211 -43.603 C 196.555 -43.603 196.945 -43.497 197.579 -42.07 L 204.065 -25.843 C 204.451 -24.863 204.577 -24.469 205.731 -24.469 C 210.17 -24.469 222.812 -24.469 228.645 -24.449 C 229.762 -24.44 229.88 -24.766 230.323 -25.802 M 207.049 -18.085 C 208.296 -14.902 216.294 6.015 216.717 7.193 C 216.843 7.526 217.18 7.526 217.318 7.178 C 217.887 5.714 225.962 -14.833 227.161 -18.016 C 227.425 -18.715 227.522 -19.283 226.601 -19.283 L 207.727 -19.283 C 206.577 -19.283 206.85 -18.584 207.049 -18.085 M 251.635 -41.66 C 251.635 -43.505 252.545 -43.505 255.828 -43.505 C 259.137 -43.505 260.047 -43.505 260.047 -41.66 L 260.079 -1.707 C 260.116 1.231 256.072 .496 254.008 -.854 C 251.699 -2.356 251.622 -3.112 251.622 -6.022 Z M 63.463 -14.821 C 63.487 -1.508 51.881 .594 43.468 .594 C 36.682 .594 30.585 -1.121 27.72 -2.386 C 24.892 -3.637 24.651 -5.202 24.651 -7.786 L 24.672 -41.717 C 24.672 -43.565 25.582 -43.565 28.883 -43.565 C 32.194 -43.565 33.097 -43.565 33.097 -41.717 L 33.08 -10.392 C 33.08 -7.624 34.06 -3.808 43.671 -3.808 C 52.75 -3.808 55.03 -9.185 55.03 -14.821 L 55.047 -41.717 C 55.047 -43.565 55.953 -43.565 59.249 -43.565 C 62.564 -43.565 63.463 -43.565 63.463 -41.717 Z M 276.56 -8.587 C 276.56 -5.356 280.025 -3.637 283.834 -3.637 C 290.324 -3.637 289.593 -8.811 294.229 -8.811 C 296.335 -8.811 297.623 -7.611 297.623 -5.539 C 297.623 -1.971 292.876 .398 285.5 .639 C 278.429 .866 274.763 -.382 272.23 -1.369 C 269.391 -2.479 268.139 -4.092 268.139 -6.62 L 268.139 -41.681 C 268.139 -43.529 269.036 -43.529 272.353 -43.529 C 275.657 -43.529 276.56 -43.529 276.56 -41.681 L 276.56 -8.587 " fill="#006885" fill-rule="evenodd"/>
<path transform="matrix(1,0,0,-1,447.9086,419.6838)" d="M 0 0 C 1.841 -1.199 3.771 -1.801 5.791 -1.801 C 9.123 -1.801 10.785 -.504 10.785 2.076 C 10.785 3.649 9.79 5.088 7.794 6.393 C 6.538 7.034 4.701 8.115 2.279 9.627 C .284 11.123 -.716 12.988 -.716 15.228 C -.716 18.365 .812 20.498 3.877 21.616 C 4.856 21.966 5.99 22.145 7.278 22.145 C 9.538 22.145 11.517 21.71 13.224 20.856 L 13.224 17.625 C 11.387 18.608 9.444 19.101 7.392 19.101 C 6.141 19.101 5.112 18.832 4.319 18.304 C 3.441 17.662 2.999 16.756 2.999 15.585 C 2.999 14.069 3.994 12.708 5.99 11.505 C 7.278 10.839 9.123 9.733 11.55 8.192 C 13.541 6.62 14.545 4.673 14.545 2.356 C 14.545 -.017 13.639 -1.837 11.83 -3.113 C 10.229 -4.26 8.217 -4.837 5.791 -4.837 C 2.966 -4.837 .544 -4.142 -1.479 -2.76 Z " fill="#006885"/>
<path transform="matrix(1,0,0,-1,480.0385,414.28733)" d="M 0 0 L -2.495 6.868 C -2.711 7.531 -3.008 8.433 -3.386 9.551 L -3.986 11.262 L -4.068 11.262 C -4.21 10.79 -4.394 10.221 -4.633 9.559 L -5.588 6.84 L -8.063 0 Z M -5.279 16.622 L -2.755 16.622 L 7.466 -9.831 L 3.698 -9.831 L 1.069 -2.918 L -9.119 -2.918 L -11.631 -9.831 L -15.354 -9.831 Z " fill="#006885"/>
<path transform="matrix(1,0,0,-1,0,708.661)" d="M 491.817 310.874 L 495.41899 310.874 L 495.41899 284.543 L 491.817 284.543 Z " fill="#006885"/>
<path transform="matrix(1,0,0,-1,532.3832,422.6028)" d="M 0 0 C -2.446 -1.275 -5.003 -1.918 -7.669 -1.918 C -11.635 -1.918 -14.776 -.662 -17.097 1.846 C -19.365 4.239 -20.499 7.405 -20.499 11.351 C -20.499 15.317 -19.247 18.593 -16.735 21.178 C -14.236 23.767 -11.034 25.059 -7.148 25.059 C -4.458 25.059 -2.247 24.588 -.516 23.652 L -.516 20.341 C -2.568 21.462 -4.751 22.02 -7.067 22.02 C -10.021 22.02 -12.379 21.023 -14.122 19.02 C -15.866 17.024 -16.735 14.525 -16.735 11.514 C -16.735 8.417 -15.886 5.917 -14.18 3.999 C -12.477 2.081 -10.188 1.118 -7.307 1.118 C -5.202 1.118 -3.101 1.695 -.995 2.841 Z " fill="#006885"/>
<path transform="matrix(1,0,0,-1,550.1293,414.28733)" d="M 0 0 L -2.495 6.868 C -2.71 7.531 -3.011 8.433 -3.381 9.551 L -3.982 11.262 L -4.063 11.262 C -4.202 10.79 -4.389 10.221 -4.629 9.559 L -5.579 6.84 L -8.059 0 Z M -5.274 16.622 L -2.759 16.622 L 7.47 -9.831 L 3.702 -9.831 L 1.065 -2.918 L -9.119 -2.918 L -11.631 -9.831 L -15.354 -9.831 Z " fill="#006885"/>
<path transform="matrix(1,0,0,-1,764.3315,422.6028)" d="M 0 0 C -2.446 -1.275 -5.003 -1.918 -7.673 -1.918 C -11.635 -1.918 -14.776 -.662 -17.102 1.846 C -19.365 4.239 -20.499 7.405 -20.499 11.351 C -20.499 15.317 -19.247 18.593 -16.735 21.178 C -14.236 23.767 -11.038 25.059 -7.148 25.059 C -4.458 25.059 -2.247 24.588 -.517 23.652 L -.517 20.341 C -2.568 21.462 -4.751 22.02 -7.067 22.02 C -10.021 22.02 -12.379 21.023 -14.127 19.02 C -15.866 17.024 -16.735 14.525 -16.735 11.514 C -16.735 8.417 -15.886 5.917 -14.18 3.999 C -12.477 2.081 -10.188 1.118 -7.307 1.118 C -5.202 1.118 -3.101 1.695 -.996 2.841 Z " fill="#006885"/>
<path transform="matrix(1,0,0,-1,782.0766,414.28733)" d="M 0 0 L -2.495 6.868 C -2.707 7.531 -3.008 8.433 -3.381 9.551 L -3.982 11.262 L -4.064 11.262 C -4.202 10.79 -4.385 10.221 -4.625 9.559 L -5.58 6.84 L -8.059 0 Z M -5.275 16.622 L -2.76 16.622 L 7.47 -9.831 L 3.702 -9.831 L 1.068 -2.918 L -9.12 -2.918 L -11.631 -9.831 L -15.354 -9.831 Z " fill="#006885"/>
<path transform="matrix(1,0,0,-1,547.4096,390.2356)" d="M 0 0 L 3.76 0 L .402 -5.519 L -2.198 -5.519 Z " fill="#006885"/>
<path transform="matrix(1,0,0,-1,561.9203,397.7883)" d="M 0 0 L 3.43 0 L 15.342 -15.5 C 16.581 -17.126 17.755 -18.771 18.856 -20.422 C 18.877 -19.694 18.894 -18.975 18.894 -18.256 L 18.856 0 L 22.453 0 L 22.453 -26.331 L 19.32 -26.331 L 6.966 -10.245 C 5.535 -8.376 4.381 -6.783 3.507 -5.479 L 3.43 -5.479 C 3.539 -6.401 3.593 -7.872 3.593 -9.872 L 3.593 -26.331 L 0 -26.331 Z " fill="#006885"/>
<path transform="matrix(1,0,0,-1,590.6489,397.7883)" d="M 0 0 L 3.593 0 L 3.593 -11.347 L 17.491 -11.347 L 17.491 0 L 21.011 0 L 21.011 -26.331 L 17.491 -26.331 L 17.491 -14.383 L 3.593 -14.383 L 3.593 -26.331 L 0 -26.331 Z " fill="#006885"/>
<path transform="matrix(1,0,0,-1,624.5756,397.7883)" d="M 0 0 L 3.824 0 L 9.835 -15.5 C 10.307 -16.699 10.676 -17.703 10.937 -18.504 L 11.843 -21.108 L 11.92 -21.101 L 12.834 -18.544 C 13.163 -17.638 13.554 -16.602 14.025 -15.439 L 19.946 0 L 23.778 0 L 13.229 -26.53 L 10.506 -26.53 Z " fill="#006885"/>
<path transform="matrix(1,0,0,-1,674.1606,397.3508)" d="M 0 0 C -.398 -1.382 -1.146 -2.527 -2.239 -3.434 L -2.239 -17.219 C -2.239 -18.975 -2.504 -20.511 -3.032 -21.807 C -4.503 -25.379 -7.616 -27.167 -12.383 -27.167 C -19.158 -27.167 -22.535 -23.855 -22.535 -17.219 L -22.535 -.438 L -18.938 -.438 L -18.938 -16.938 C -18.938 -19.979 -18.012 -22.071 -16.146 -23.217 C -15.163 -23.823 -13.907 -24.132 -12.367 -24.132 C -7.953 -24.132 -5.751 -21.693 -5.751 -16.82 L -5.751 -.438 L -2.999 -.438 C -2.679 .313 -2.471 1.207 -2.394 2.239 L .357 1.923 C .28 1.154 .162 .513 0 0 " fill="#006885"/>
<path transform="matrix(1,0,0,-1,698.1323,411.05104)" d="M 0 0 C 0 3.089 -.812 5.604 -2.458 7.555 C -4.088 9.493 -6.34 10.465 -9.185 10.465 C -12.139 10.465 -14.46 9.416 -16.138 7.312 C -17.658 5.393 -18.418 2.954 -18.418 0 C -18.418 -3.17 -17.572 -5.702 -15.882 -7.592 C -14.191 -9.485 -11.956 -10.433 -9.185 -10.433 C -6.234 -10.433 -3.926 -9.392 -2.271 -7.312 C -.76 -5.396 0 -2.959 0 0 M 1.073 12.785 C .789 11.773 .313 10.892 -.357 10.147 C 2.386 7.592 3.76 4.21 3.76 0 C 3.76 -3.999 2.504 -7.263 0 -9.794 C -2.397 -12.245 -5.454 -13.468 -9.185 -13.468 C -13.103 -13.468 -16.276 -12.172 -18.694 -9.591 C -21.015 -7.088 -22.173 -3.89 -22.173 0 C -22.173 3.942 -20.962 7.177 -18.54 9.709 C -16.113 12.241 -13.001 13.509 -9.185 13.509 C -6.628 13.509 -4.34 12.891 -2.316 11.664 C -1.751 12.57 -1.422 13.7 -1.32 15.062 L 1.447 14.744 C 1.361 13.972 1.244 13.313 1.073 12.785 " fill="#006885"/>
<path transform="matrix(1,0,0,-1,706.2426,397.7883)" d="M 0 0 L 3.438 0 L 15.354 -15.5 C 16.59 -17.126 17.76 -18.771 18.869 -20.422 C 18.89 -19.694 18.906 -18.975 18.906 -18.256 L 18.869 0 L 22.466 0 L 22.466 -26.331 L 19.329 -26.331 L 6.97 -10.245 C 5.54 -8.376 4.397 -6.783 3.52 -5.479 L 3.438 -5.479 C 3.544 -6.401 3.602 -7.872 3.602 -9.872 L 3.602 -26.331 L 0 -26.331 Z " fill="#006885"/>
<path transform="matrix(1,0,0,-1,477.3461,392.50123)" d="M 0 0 C -.845 -.643 -1.271 -1.057 -1.271 -1.231 C -1.271 -1.386 -1.064 -1.703 -.654 -2.194 L -2.689 -3.23 C -3.308 -2.512 -3.612 -1.833 -3.612 -1.19 C -3.612 -.395 -3.133 .37 -2.174 1.113 C -1.211 1.857 -.731 2.369 -.731 2.653 C -.731 3.031 -.971 3.227 -1.454 3.227 C -1.971 3.227 -2.653 2.845 -3.494 2.077 L -4.689 3.873 C -3.539 4.958 -2.394 5.494 -1.271 5.494 C -.475 5.494 .187 5.283 .732 4.84 C 1.37 4.328 1.687 3.638 1.687 2.771 C 1.687 1.792 1.126 .87 0 0 " fill="#006885"/>
<path transform="matrix(1,0,0,-1,803.1557,421.4368)" d="M 0 0 C 2.962 0 5.267 1.04 6.921 3.121 C 8.444 5.039 9.2 7.481 9.2 10.444 C 9.2 13.537 8.404 16.045 6.799 17.967 C 5.124 19.937 2.856 20.926 0 20.926 C -2.959 20.926 -5.279 19.873 -6.962 17.764 C -8.482 15.841 -9.242 13.403 -9.242 10.444 C -9.242 7.271 -8.396 4.734 -6.702 2.845 C -5.007 .946 -2.776 0 0 0 M 0 -3.044 C -3.922 -3.044 -7.096 -1.748 -9.522 .837 C -11.843 3.349 -13.001 6.547 -13.001 10.444 C -13.001 14.391 -11.79 17.63 -9.359 20.165 C -6.934 22.701 -3.813 23.965 0 23.965 C 3.787 23.965 6.893 22.701 9.322 20.165 C 11.749 17.63 12.964 14.391 12.964 10.444 C 12.964 6.441 11.736 3.194 9.286 .703 C 6.831 -1.792 3.734 -3.044 0 -3.044 " fill="#006885"/>
</g>
</g>
</g>
</svg>
