<?xml version="1.0" encoding="UTF-8" standalone="no"?>
<!DOCTYPE svg PUBLIC "-//W3C//DTD SVG 1.1//EN" "http://www.w3.org/Graphics/SVG/1.1/DTD/svg11.dtd">
<svg xmlns="http://www.w3.org/2000/svg" xmlns:xlink="http://www.w3.org/1999/xlink" version="1.1" width="1133.86pt" height="708.661pt" viewBox="0 0 1133.86 708.661">
<g enable-background="new">
<g id="Layer-1" data-name="Layer 1">
<path transform="matrix(1,0,0,-1,0,708.661)" d="M 0 0 L 1133.858 0 L 1133.858 708.662 L 0 708.662 Z " fill="#006885"/>
<clipPath id="cp3">
<path transform="matrix(1,0,0,-1,0,708.661)" d="M 0 708.661 L 1133.858 708.661 L 1133.858 0 L 0 0 Z "/>
</clipPath>
<g clip-path="url(#cp3)">
<path transform="matrix(1,0,0,-1,216.1528,366.39543)" d="M 0 0 C -1.312 -.748 -10.745 -8.741 -29.513 -8.741 C -45.321 -8.754 -62.212 -.65 -67.511 -.809 C -69.377 -.728 -70.872 -1.109 -72.043 -1.625 C -74.258 -2.552 -76.415 -1.194 -75.213 1.077 C -71.051 8.941 -63.987 13.785 -57.311 15.797 C -52.434 17.272 -47.979 17.768 -45.676 15.199 C -40.591 9.563 -31.411 2.605 -22.49 1.687 C -21.767 1.617 -18.527 1.341 -18.491 2.26 C -18.455 2.82 -19.56 3.187 -20.682 3.264 C -29.789 3.926 -46.224 13.68 -55.25 32.569 C -58.636 39.656 -61.321 46.529 -67.23 49.528 C -68.535 50.154 -68.576 52.568 -65.824 53.223 C -63.906 53.678 -51.783 54.848 -37.917 47.545 C -31.549 44.196 -30.659 41.192 -30.635 38.567 C -30.691 18.771 -20.678 10.912 -16.809 8.592 C -14.646 7.308 -12.631 6.755 -12.415 7.429 C -12.245 7.994 -12.813 8.38 -13.31 8.681 C -25.314 15.968 -28.484 27.181 -28.578 38.604 C -28.672 49.898 -24.485 59.672 -21.515 67.678 C -21.084 68.812 -19.682 73.587 -20.877 78.001 C -21.763 81.297 -21.039 82.256 -19.304 82.256 C -17.402 82.256 -14.87 79.179 -14.017 78.122 C -13.334 77.326 -11.123 74.632 -7.782 68.023 C -1.166 54.945 -1.117 41.278 -1.117 39.604 C -1.117 30.212 -3.54 29.127 -7.49 27.181 C -11.428 25.233 -13.302 22.722 -13.306 19.808 C -13.31 16.817 -11.229 13.708 -7.49 12.61 C -4.58 11.762 -2.743 12.078 -2.897 12.834 C -3.02 13.432 -4.304 13.578 -4.678 13.68 C -8.624 14.753 -11.245 16.776 -11.245 19.808 C -11.245 23.6 -6.575 26.376 -.004 26.376 C 6.567 26.376 11.237 23.6 11.237 19.808 C 11.237 16.772 8.62 14.748 4.674 13.676 C 4.3 13.578 3.016 13.432 2.894 12.834 C 2.739 12.078 4.58 11.757 7.486 12.61 C 11.225 13.7 13.306 16.817 13.302 19.808 C 13.298 22.718 11.424 25.229 7.481 27.181 C 3.54 29.127 1.113 30.212 1.113 39.6 C 1.113 41.274 1.166 54.945 7.774 68.023 C 11.115 74.627 13.334 77.326 14.013 78.118 C 14.866 79.179 17.398 82.256 19.296 82.256 C 21.035 82.256 21.759 81.297 20.869 78.001 C 19.674 73.587 21.076 68.808 21.515 67.678 C 24.478 59.664 28.672 49.894 28.574 38.604 C 28.484 27.181 25.307 15.964 13.306 8.677 C 12.806 8.38 12.236 7.99 12.416 7.429 C 12.627 6.75 14.639 7.299 16.797 8.592 C 20.674 10.912 30.687 18.771 30.631 38.567 C 30.655 41.192 31.545 44.196 37.909 47.545 C 51.779 54.844 63.906 53.674 65.825 53.223 C 68.572 52.568 68.527 50.15 67.227 49.524 C 61.317 46.529 58.632 39.656 55.246 32.569 C 46.216 13.68 29.785 3.922 20.674 3.264 C 19.552 3.187 18.45 2.816 18.487 2.252 C 18.523 1.341 21.763 1.613 22.486 1.687 C 31.402 2.602 40.583 9.563 45.667 15.199 C 47.976 17.76 52.43 17.272 57.307 15.797 C 63.987 13.785 71.047 8.941 75.204 1.073 C 76.407 -1.199 74.258 -2.552 72.038 -1.625 C 70.868 -1.113 69.368 -.735 67.503 -.809 C 62.208 -.654 45.322 -8.754 29.505 -8.745 C 10.737 -8.745 1.312 -.748 0 0 " fill="#dd9e27"/>
<path transform="matrix(1,0,0,-1,979.0903,324.60054)" d="M 0 0 L -.04 -.024 C 6.563 -6.686 10.929 -15.654 11.623 -25.741 C 13.172 -48.017 -3.604 -67.313 -25.854 -68.881 C -36.332 -69.621 -46.13 -66.288 -53.763 -60.253 L -53.795 -60.29 C -45.882 -67.662 -35.056 -71.876 -23.433 -71.056 C -1.154 -69.499 15.618 -50.187 14.074 -27.937 C 13.273 -16.662 7.949 -6.783 0 0 " fill="#ffffff"/>
<path transform="matrix(1,0,0,-1,907.4789,370.58683)" d="M 0 0 C -1.288 -.715 -1.572 -1.779 -.918 -3.454 C -.309 -4.966 .646 -5.637 1.658 -5.214 C 2.476 -4.9 2.613 -4.193 2.284 -2.361 L 2.13 -1.662 C 1.805 .135 1.748 .902 1.959 1.675 C 2.175 2.549 2.67 3.113 3.422 3.418 C 5.255 4.146 6.982 3.004 8.011 .455 C 9.124 -2.324 8.53 -4.417 6.349 -5.323 L 5.812 -3.962 C 7.328 -3.32 7.701 -1.91 6.885 .114 C 6.227 1.76 5.198 2.496 4.085 2.036 C 3.194 1.691 2.995 .87 3.32 -1.004 L 3.446 -1.779 L 3.564 -2.487 C 3.8 -3.86 3.828 -4.36 3.698 -4.945 C 3.523 -5.686 3.053 -6.226 2.288 -6.526 C .569 -7.218 -1.089 -6.197 -2.012 -3.885 C -3.007 -1.369 -2.475 .496 -.557 1.357 L 0 0 " fill="#ffffff"/>
<path transform="matrix(1,0,0,-1,906.3344,355.97554)" d="M 0 0 L 6.132 5.142 L 6.173 3.239 L .971 -1.053 L 2.661 -2.905 L 6.312 -2.832 L 6.344 -4.336 L -4.076 -4.56 L -4.117 -3.056 L -.017 -2.971 L 1.076 -2.971 L .731 -2.593 L .361 -2.23 L -4.231 2.747 L -4.288 4.73 Z " fill="#ffffff"/>
<path transform="matrix(1,0,0,-1,910.9418,339.83683)" d="M 0 0 L 4.015 -1.406 L 3.527 -2.813 L -.492 -1.406 L -7.686 -3.585 L -7.08 -1.87 L -2.605 -.614 L -2.061 -.455 C -1.837 -.387 -1.703 -.37 -1.313 -.272 C -1.658 .138 -1.74 .239 -2.113 .739 L -4.865 4.49 L -4.288 6.128 L 0 0 " fill="#ffffff"/>
<path transform="matrix(1,0,0,-1,917.9946,320.6835)" d="M 0 0 L -2.202 -2.694 L 4.369 -8.071 L 2.801 -10.002 L -3.787 -4.617 L -5.97 -7.308 L -7.465 -6.08 L -1.495 1.227 Z " fill="#ffffff"/>
<path transform="matrix(1,0,0,-1,932.061,310.80653)" d="M 0 0 L -5.255 -3.076 L -4.142 -5.003 L .69 -2.174 L 1.576 -3.714 L -3.227 -6.526 L -1.947 -8.758 L 3.418 -5.608 L 4.397 -7.267 L -3.13 -11.672 L -8.384 -2.666 L -.976 1.679 Z " fill="#ffffff"/>
<path transform="matrix(1,0,0,-1,952.2328,314.8485)" d="M 0 0 L -2.728 -.187 L -4.081 2.073 L -8.283 1.39 L -8.864 -1.166 L -11.457 -1.82 L -8.722 9.563 L -6.149 9.965 Z M -5.966 5.356 C -6.539 6.312 -6.755 6.738 -7.084 7.49 C -7.182 6.734 -7.263 6.189 -7.527 5.121 L -7.966 3.13 L -4.93 3.617 L -5.966 5.356 " fill="#ffffff"/>
<path transform="matrix(1,0,0,-1,968.9633,318.1903)" d="M 0 0 L -2.19 .829 L -1.354 3.946 C -1.272 4.291 -1.13 4.795 -.943 5.434 C -.769 6.084 -.614 6.592 -.517 6.97 C -.37 7.384 -.236 7.814 -.094 8.274 L .138 9.014 C -.472 7.94 -.716 7.587 -1.284 6.742 C -1.512 6.36 -1.735 6.039 -1.923 5.779 L -4.873 1.63 L -6.779 2.134 L -7.372 7.12 C -7.421 7.372 -7.434 7.733 -7.47 8.226 C -7.507 8.88 -7.531 9.38 -7.555 9.725 C -7.563 9.997 -7.563 10.408 -7.555 10.98 L -7.819 9.725 C -8.128 8.348 -8.267 7.758 -8.677 6.12 L -9.547 2.764 L -11.859 3.129 L -9.242 13.317 L -5.747 12.647 L -5.251 7.814 C -5.125 6.686 -5.101 5.738 -5.142 4.397 C -4.747 5.161 -4.613 5.417 -4.157 6.12 C -3.849 6.6 -3.589 6.986 -3.349 7.368 L -.614 11.294 L 2.723 10.164 L 0 0 " fill="#ffffff"/>
<path transform="matrix(1,0,0,-1,949.0532,338.27143)" d="M 0 0 C -1.264 -1.118 -3.771 -3.52 -6.186 -5.849 L -8.937 -8.481 C -11.164 -8.067 -13.358 -7.88 -15.65 -7.88 C -20.723 -7.88 -25.376 -9.274 -27.497 -11.452 C -28.294 -12.281 -28.708 -13.18 -28.684 -14.123 C -28.631 -16.594 -25.818 -17.829 -24.965 -18.146 C -20.454 -19.833 -16.679 -19.341 -12.7 -16.545 C -10.514 -15.013 -7.868 -12.563 -5.808 -10.563 C -4.198 -10.933 -2.382 -11.412 -.423 -11.989 L 1.382 -12.509 C -.963 -14.817 -3.361 -17.248 -5.58 -19.207 L -5.751 -19.353 C -8.852 -22.088 -11.087 -24.051 -14.33 -24.782 C -16.594 -25.278 -18.207 -24.799 -18.735 -24.485 C -18.792 -24.49 -18.861 -24.583 -18.861 -24.583 C -16.991 -26.124 -15.224 -26.997 -12.172 -26.741 C -9.262 -26.481 -5.921 -24.656 -2.491 -21.437 L 2.138 -16.902 L 5.381 -13.68 C 5.381 -13.7 11.944 -15.61 11.944 -15.61 C 12.001 -15.618 12.058 -15.639 12.058 -15.639 C 12.001 -15.639 7.998 -19.585 7.998 -19.585 L 4.52 -23.063 C .951 -26.514 -.996 -28.314 -3.076 -29.802 C -6.531 -32.244 -9.481 -33.508 -12.082 -33.683 C -13.424 -33.772 -15.378 -33.679 -16.991 -32.74 C -17.064 -32.72 -17.162 -32.801 -17.162 -32.801 C -15.415 -34.316 -13.236 -36.117 -9.526 -36.027 C -5.328 -35.886 -1.593 -33.878 4.202 -28.554 C 6.848 -26.124 9.478 -23.425 11.781 -21.011 L 16.09 -16.646 C 18.935 -17.28 21.462 -17.545 24.262 -17.479 C 28.351 -17.382 31.838 -15.443 31.878 -13.204 C 31.919 -11.55 30.558 -10.66 29.744 -10.136 C 29.082 -9.697 27.253 -8.681 24.733 -8.681 C 21.669 -8.681 18.479 -10.038 15.236 -12.7 L 13.078 -14.614 C 13.103 -14.603 12.294 -14.403 12.294 -14.403 L 6.295 -12.7 C 8.079 -11.055 9.579 -9.64 10.92 -8.429 C 14.22 -5.511 17.829 -4.3 19.958 -4.17 C 21.507 -4.061 24.201 -4.202 25.307 -4.991 C 25.355 -4.991 25.429 -4.86 25.429 -4.86 C 22.474 -2.341 19.918 -2.008 17.82 -2.008 C 15.752 -2.008 12.415 -2.662 8.331 -5.824 C 6.677 -7.112 4.52 -9.274 2.252 -11.554 L -.78 -10.623 L -1.512 -10.4 L -4.702 -9.425 C -4.625 -9.425 -2.877 -7.714 -2.877 -7.714 C -.728 -5.601 1.292 -3.617 2.882 -2.26 C 8.64 2.576 12.257 3.206 14.769 3.23 C 17.524 3.23 19.719 2.662 21.291 1.528 C 21.324 1.532 21.393 1.634 21.393 1.634 C 18.174 4.563 15.846 5.507 11.843 5.535 C 8.323 5.563 4.104 3.593 0 0 M -22.608 -17.28 C -24.478 -17.146 -25.38 -16.406 -25.38 -14.956 C -25.38 -14.772 -25.254 -10.196 -14.805 -9.685 C -13.61 -9.615 -12.298 -9.579 -10.258 -9.818 C -10.347 -9.818 -11.444 -10.818 -11.444 -10.818 L -12.099 -11.428 C -14.61 -13.716 -18.845 -17.545 -22.608 -17.28 M 19.674 -13.586 C 22.677 -11.546 25.181 -10.465 26.741 -10.518 C 27.659 -10.551 28.757 -10.818 28.757 -11.965 C 28.757 -13.135 27.644 -14.103 25.469 -14.891 C 23.563 -15.577 20.633 -15.756 17.438 -15.402 C 18.316 -14.603 19.052 -13.984 19.674 -13.586 " fill="#ffffff"/>
<path transform="matrix(1,0,0,-1,948.0112,354.10243)" d="M 0 0 L 0 -3.088 Z " fill="#ffffff"/>
<path transform="matrix(1,0,0,-1,973.2358,309.8612)" d="M 0 0 C .382 .862 1.377 1.265 2.251 .895 C 3.137 .513 3.531 -.479 3.153 -1.357 C 2.796 -2.235 1.787 -2.629 .91 -2.247 C .032 -1.857 -.37 -.878 0 0 M 2.856 -1.373 C 3.242 -.67 2.971 .208 2.279 .573 C 1.593 .959 .698 .736 .316 .021 C -.073 -.679 .198 -1.557 .897 -1.954 C 1.572 -2.316 2.475 -2.08 2.856 -1.373 M 1.849 -1.882 L 1.572 -1.727 L 1.499 -.699 L 1.223 -.549 L .8 -1.309 L .576 -1.179 L 1.482 .46 L 2.194 .062 C 2.486 -.102 2.738 -.337 2.539 -.679 C 2.36 -1.008 2.072 -1.008 1.771 -.857 Z M 1.629 -.476 C 1.824 -.589 2.166 -.82 2.312 -.553 C 2.397 -.394 2.194 -.231 2.02 -.142 L 1.58 .102 L 1.353 -.325 L 1.629 -.476 " fill="#ffffff"/>
<path transform="matrix(1,0,0,-1,419.9008,328.6845)" d="M 0 0 C -1.971 -.032 -4.653 -.004 -4.653 -.004 C -5.981 -.004 -5.99 -.739 -5.99 -2.235 C -5.99 -3.666 -5.99 -4.414 -4.657 -4.414 L 0 -4.414 C .96 -4.409 .996 -4.516 .984 -5.515 C .96 -7.62 .984 -33.012 .984 -33.012 C .984 -43.021 6.336 -44.217 11.636 -44.298 C 16.87 -44.371 20.309 -42.822 20.247 -40.974 C 20.211 -39.9 19.5 -39.417 18.284 -39.555 C 17.427 -39.652 16.825 -39.913 15.68 -39.913 C 12.903 -39.913 9.408 -39.165 9.408 -33.081 L 9.408 -5.601 C 9.4 -4.54 9.408 -4.409 10.465 -4.414 L 18.049 -4.414 C 19.378 -4.414 19.422 -3.666 19.422 -2.235 C 19.422 -.764 19.378 .004 18.049 .004 L 10.425 .004 C 9.404 .004 9.417 .102 9.408 .991 L 9.408 10.237 C 9.408 11.721 8.283 12.245 7.377 12.168 C 6.714 12.11 5.926 11.68 4.057 10.457 C 1.618 8.859 .984 7.844 .984 4.93 L .984 1.057 C .979 -.004 .936 .017 0 0 M -102.855 -40.636 C -101.701 -43.388 -101.438 -43.603 -97.044 -43.603 C -92.821 -43.603 -92.728 -43.432 -91.496 -40.607 C -90.27 -37.787 -74.232 2.52 -69.978 13.062 C -69.035 15.406 -69.441 15.605 -73.225 15.605 C -76.533 15.605 -76.838 15.415 -77.468 13.988 C -77.468 13.988 -95.435 -31.951 -95.82 -33.016 C -95.918 -33.313 -96.3 -33.337 -96.463 -32.976 C -97.04 -31.675 -115.279 14.118 -115.279 14.118 C -115.718 15.293 -115.828 15.711 -120.753 15.711 C -126.126 15.711 -125.769 15.199 -124.703 12.554 C -124.443 11.92 -104.006 -37.885 -102.855 -40.636 M 422.722 -30.59 C 422.722 -29.838 422.145 -29.074 421.08 -29.074 C 420.108 -29.074 419.625 -29.415 419.044 -30.423 C 416.812 -34.207 411.339 -38.641 404.056 -38.714 C 394.221 -38.803 388.544 -31.74 388.796 -20.82 C 388.796 -20.446 388.954 -20.125 389.515 -20.113 C 390.084 -20.097 404.905 -20.084 419.86 -20.113 C 422.722 -20.117 422.767 -18.219 422.767 -16.65 C 422.767 -7.604 414.342 .748 402.26 .748 C 389.723 .748 380.082 -6.092 380.082 -21.832 C 380.082 -38.58 392.6 -44.518 403.268 -44.518 C 416.162 -44.518 422.722 -34.548 422.722 -30.59 M 388.901 -14.761 C 389.645 -9.506 393.66 -3.69 401.577 -3.625 C 408.218 -3.572 414.041 -7.604 414.35 -13.537 C 414.436 -15.244 413.988 -15.455 411.956 -15.455 L 389.543 -15.455 C 388.922 -15.455 388.84 -15.175 388.901 -14.761 M -8.136 -30.59 C -8.136 -29.838 -8.717 -29.074 -9.781 -29.074 C -10.753 -29.074 -11.245 -29.415 -11.821 -30.423 C -14.053 -34.207 -19.523 -38.641 -26.802 -38.714 C -36.641 -38.803 -42.314 -31.74 -42.063 -20.82 C -42.063 -20.446 -41.912 -20.125 -41.347 -20.113 C -40.782 -20.097 -25.952 -20.084 -11.005 -20.113 C -8.14 -20.117 -8.091 -18.219 -8.091 -16.65 C -8.091 -7.604 -16.516 .748 -28.598 .748 C -41.144 .748 -50.775 -6.092 -50.775 -21.832 C -50.775 -38.58 -38.262 -44.518 -27.594 -44.518 C -14.695 -44.518 -8.136 -34.548 -8.136 -30.59 M -41.96 -14.761 C -41.213 -9.506 -37.201 -3.69 -29.28 -3.625 C -22.645 -3.572 -16.816 -7.604 -16.512 -13.537 C -16.422 -15.244 -16.877 -15.455 -18.905 -15.455 L -41.314 -15.455 C -41.94 -15.455 -42.018 -15.175 -41.96 -14.761 M 169.823 -41.754 C 169.823 -43.603 170.726 -43.587 174.029 -43.595 C 177.329 -43.603 178.239 -43.603 178.239 -41.754 L 178.239 -13.191 C 178.239 -1.837 167.584 .516 161.272 .516 C 153.896 .516 149.698 -1.593 146.829 -4.768 C 143.765 -1.431 139.668 .516 132.495 .516 C 127.558 .516 122.737 -.667 118.417 -2.581 C 115.305 -3.963 115.305 -5.8 115.305 -7.579 L 115.305 -41.754 C 115.305 -43.603 116.223 -43.603 119.515 -43.603 C 122.807 -43.603 123.717 -43.603 123.717 -41.754 L 123.729 -9.925 C 123.729 -5.178 127.537 -3.873 132.531 -3.869 C 138.75 -3.869 142.554 -6.795 142.554 -14.127 L 142.554 -41.754 C 142.554 -43.603 143.464 -43.603 146.771 -43.603 C 150.067 -43.603 150.966 -43.603 150.966 -41.754 L 150.966 -13.586 C 150.966 -7.998 153.888 -3.841 160.586 -3.841 C 167.088 -3.841 169.863 -8.083 169.863 -13.712 Z M -57.456 12.537 C -57.928 14.732 -60.374 16.064 -63.187 15.472 C -66.007 14.878 -67.698 12.672 -67.223 10.477 C -66.751 8.282 -64.305 6.945 -61.488 7.539 C -58.672 8.132 -56.985 10.339 -57.456 12.537 M 98.987 -34.329 C 98.987 -38.787 93.192 -39.957 88.908 -39.957 C 81.35 -39.957 77.586 -36.727 77.586 -32.459 C 77.586 -24.693 87.62 -21.889 98.081 -19.687 C 98.638 -19.572 98.979 -19.512 98.979 -20.304 Z M 89.352 -44.554 C 96.37 -44.603 99.935 -43.351 104.148 -41.416 C 107.307 -39.925 107.307 -38.25 107.307 -36.316 L 107.307 -12.236 C 107.307 -3.057 99.679 .756 90.937 .739 C 76.676 .703 70.999 -5.417 70.771 -9.384 C 70.649 -11.493 71.913 -13.037 74.376 -13.09 C 76.762 -13.147 78.196 -11.57 78.753 -10.262 C 80.509 -6.161 83.528 -3.625 89.758 -3.625 C 94.635 -3.625 98.995 -5.856 98.979 -11.655 L 98.979 -14.216 C 98.979 -15 98.979 -15.163 98.297 -15.244 C 85.446 -17.305 68.764 -21.34 68.764 -33.142 C 68.764 -40.481 77.57 -44.542 89.352 -44.554 M -66.552 -41.681 C -66.552 -43.525 -65.646 -43.525 -62.357 -43.525 C -59.05 -43.525 -58.14 -43.525 -58.14 -41.681 L -58.11 -1.728 C -58.074 1.211 -62.118 .472 -64.183 -.874 C -66.491 -2.378 -66.563 -3.129 -66.563 -6.043 Z M 463.342 -31.772 C 463.013 -17.024 435.479 -19.73 435.471 -9.449 C 435.467 -5.43 439.6 -3.576 444.078 -3.576 C 450.527 -3.576 452.661 -5.73 454.011 -8.872 C 454.645 -10.335 455.917 -11.68 458.371 -11.68 C 460.229 -11.68 461.793 -10.502 461.793 -8.331 C 461.793 -5.068 457.258 .679 444.871 .764 C 434.613 .833 427.668 -3.076 427.659 -11.18 C 427.647 -26.363 455.218 -23.124 455.165 -33.646 C 455.148 -37.994 451.097 -40.006 445.212 -40.067 C 439.34 -40.128 436.202 -37.746 434.508 -33.634 C 433.683 -31.964 432.589 -30.456 430.029 -30.5 C 427.729 -30.537 426.359 -32.017 426.359 -34.276 C 426.359 -37.364 431.744 -44.554 444.822 -44.554 C 455.534 -44.554 463.532 -40.237 463.342 -31.772 M 374.571 -14.862 C 374.596 -1.553 362.997 .557 354.581 .557 C 347.786 .557 341.698 -1.158 338.833 -2.422 C 336 -3.674 335.761 -5.238 335.761 -7.831 L 335.785 -41.758 C 335.785 -43.603 336.691 -43.603 339.991 -43.603 C 343.308 -43.603 344.205 -43.603 344.205 -41.758 L 344.197 -10.433 C 344.197 -7.669 345.177 -3.845 354.78 -3.845 C 363.863 -3.845 366.135 -9.222 366.135 -14.862 L 366.155 -41.758 C 366.155 -43.603 367.062 -43.603 370.354 -43.603 C 373.678 -43.603 374.571 -43.603 374.571 -41.758 Z M 318.176 -41.681 C 318.176 -43.525 319.086 -43.525 322.373 -43.525 C 325.682 -43.525 326.592 -43.525 326.592 -41.681 L 326.62 -1.728 C 326.657 1.211 322.617 .472 320.553 -.874 C 318.244 -2.378 318.167 -3.129 318.167 -6.043 Z M 327.274 12.537 C 326.803 14.732 324.36 16.064 321.545 15.472 C 318.729 14.878 317.037 12.672 317.509 10.477 C 317.977 8.282 320.427 6.945 323.239 7.539 C 326.06 8.132 327.75 10.339 327.274 12.537 M 300.363 -41.705 C 300.363 -43.554 301.273 -43.554 304.553 -43.554 C 307.865 -43.554 308.775 -43.554 308.775 -41.705 L 308.808 15.565 C 308.84 18.499 304.797 17.768 302.732 16.419 C 300.428 14.915 300.351 14.163 300.351 11.249 Z M 260.73 12.55 C 260.259 14.748 257.816 16.089 255 15.488 C 252.18 14.898 250.493 12.696 250.965 10.497 C 251.437 8.303 253.883 6.966 256.699 7.559 C 259.52 8.152 261.202 10.359 260.73 12.55 M 230.324 -25.803 C 233.188 -32.609 237.139 -42.095 237.139 -42.095 C 237.631 -43.306 237.187 -43.603 242.162 -43.603 C 247.441 -43.603 247.759 -43.432 246.718 -41.083 C 246.437 -40.449 225.496 9.859 224.329 12.603 C 223.167 15.354 222.663 15.553 218.307 15.553 C 213.994 15.553 213.43 15.443 212.235 12.603 C 211.02 9.717 189.997 -40.814 189.736 -41.449 C 188.847 -43.603 189.639 -43.603 193.211 -43.603 C 196.556 -43.603 196.946 -43.497 197.58 -42.07 L 204.066 -25.843 C 204.452 -24.863 204.578 -24.47 205.732 -24.47 C 210.17 -24.47 222.813 -24.47 228.646 -24.449 C 229.763 -24.441 229.881 -24.766 230.324 -25.803 M 207.049 -18.085 C 208.297 -14.902 216.295 6.015 216.718 7.193 C 216.844 7.526 217.181 7.526 217.319 7.177 C 217.888 5.714 225.963 -14.834 227.162 -18.016 C 227.426 -18.715 227.523 -19.284 226.602 -19.284 L 207.728 -19.284 C 206.578 -19.284 206.85 -18.585 207.049 -18.085 M 251.636 -41.66 C 251.636 -43.505 252.546 -43.505 255.829 -43.505 C 259.138 -43.505 260.048 -43.505 260.048 -41.66 L 260.08 -1.707 C 260.117 1.231 256.073 .496 254.009 -.854 C 251.7 -2.357 251.623 -3.113 251.623 -6.022 Z M 63.464 -14.821 C 63.488 -1.508 51.882 .594 43.469 .594 C 36.682 .594 30.586 -1.122 27.721 -2.386 C 24.893 -3.638 24.652 -5.202 24.652 -7.787 L 24.673 -41.717 C 24.673 -43.566 25.583 -43.566 28.883 -43.566 C 32.195 -43.566 33.098 -43.566 33.098 -41.717 L 33.081 -10.392 C 33.081 -7.624 34.061 -3.808 43.672 -3.808 C 52.751 -3.808 55.031 -9.185 55.031 -14.821 L 55.047 -41.717 C 55.047 -43.566 55.954 -43.566 59.249 -43.566 C 62.565 -43.566 63.464 -43.566 63.464 -41.717 Z M 276.56 -8.587 C 276.56 -5.356 280.026 -3.638 283.835 -3.638 C 290.325 -3.638 289.593 -8.811 294.23 -8.811 C 296.335 -8.811 297.624 -7.612 297.624 -5.539 C 297.624 -1.971 292.877 .398 285.501 .638 C 278.43 .865 274.764 -.382 272.231 -1.37 C 269.391 -2.479 268.14 -4.093 268.14 -6.62 L 268.14 -41.681 C 268.14 -43.529 269.037 -43.529 272.354 -43.529 C 275.658 -43.529 276.56 -43.529 276.56 -41.681 L 276.56 -8.587 " fill="#ffffff" fill-rule="evenodd"/>
<path transform="matrix(1,0,0,-1,405.5346,419.6845)" d="M 0 0 C 1.842 -1.198 3.771 -1.8 5.792 -1.8 C 9.124 -1.8 10.786 -.504 10.786 2.077 C 10.786 3.649 9.791 5.089 7.795 6.393 C 6.539 7.035 4.702 8.116 2.28 9.628 C .285 11.123 -.715 12.989 -.715 15.229 C -.715 18.365 .813 20.499 3.877 21.617 C 4.856 21.966 5.99 22.146 7.279 22.146 C 9.538 22.146 11.518 21.71 13.225 20.856 L 13.225 17.626 C 11.388 18.609 9.445 19.102 7.393 19.102 C 6.141 19.102 5.113 18.833 4.32 18.305 C 3.442 17.662 3 16.756 3 15.586 C 3 14.07 3.995 12.708 5.99 11.506 C 7.279 10.839 9.124 9.733 11.55 8.193 C 13.542 6.62 14.546 4.674 14.546 2.357 C 14.546 -.016 13.639 -1.837 11.831 -3.112 C 10.229 -4.259 8.218 -4.836 5.792 -4.836 C 2.967 -4.836 .545 -4.141 -1.479 -2.759 Z " fill="#ffffff"/>
<path transform="matrix(1,0,0,-1,437.6655,414.28703)" d="M 0 0 L -2.495 6.868 C -2.711 7.53 -3.008 8.433 -3.386 9.551 L -3.987 11.262 L -4.068 11.262 C -4.21 10.79 -4.394 10.221 -4.633 9.559 L -5.588 6.84 L -8.063 0 Z M -5.279 16.622 L -2.756 16.622 L 7.466 -9.831 L 3.698 -9.831 L 1.068 -2.918 L -9.12 -2.918 L -11.631 -9.831 L -15.354 -9.831 Z " fill="#ffffff"/>
<path transform="matrix(1,0,0,-1,0,708.661)" d="M 449.444 310.874 L 453.045 310.874 L 453.045 284.543 L 449.444 284.543 Z " fill="#ffffff"/>
<path transform="matrix(1,0,0,-1,490.0102,422.60243)" d="M 0 0 C -2.446 -1.276 -5.003 -1.918 -7.669 -1.918 C -11.636 -1.918 -14.776 -.662 -17.098 1.845 C -19.365 4.238 -20.499 7.404 -20.499 11.351 C -20.499 15.317 -19.247 18.593 -16.735 21.178 C -14.236 23.767 -11.034 25.059 -7.148 25.059 C -4.458 25.059 -2.247 24.587 -.517 23.652 L -.517 20.34 C -2.568 21.462 -4.751 22.019 -7.067 22.019 C -10.021 22.019 -12.379 21.023 -14.122 19.02 C -15.866 17.024 -16.735 14.524 -16.735 11.514 C -16.735 8.416 -15.887 5.917 -14.18 3.999 C -12.477 2.081 -10.188 1.117 -7.307 1.117 C -5.202 1.117 -3.101 1.694 -.996 2.841 Z " fill="#ffffff"/>
<path transform="matrix(1,0,0,-1,507.7563,414.28703)" d="M 0 0 L -2.495 6.868 C -2.711 7.53 -3.012 8.433 -3.381 9.551 L -3.982 11.262 L -4.063 11.262 C -4.202 10.79 -4.389 10.221 -4.629 9.559 L -5.58 6.84 L -8.059 0 Z M -5.275 16.622 L -2.759 16.622 L 7.47 -9.831 L 3.702 -9.831 L 1.064 -2.918 L -9.119 -2.918 L -11.631 -9.831 L -15.354 -9.831 Z " fill="#ffffff"/>
<path transform="matrix(1,0,0,-1,721.9584,422.60243)" d="M 0 0 C -2.446 -1.276 -5.003 -1.918 -7.673 -1.918 C -11.636 -1.918 -14.776 -.662 -17.102 1.845 C -19.365 4.238 -20.499 7.404 -20.499 11.351 C -20.499 15.317 -19.247 18.593 -16.735 21.178 C -14.236 23.767 -11.038 25.059 -7.148 25.059 C -4.458 25.059 -2.247 24.587 -.517 23.652 L -.517 20.34 C -2.568 21.462 -4.751 22.019 -7.067 22.019 C -10.021 22.019 -12.379 21.023 -14.127 19.02 C -15.866 17.024 -16.735 14.524 -16.735 11.514 C -16.735 8.416 -15.887 5.917 -14.18 3.999 C -12.477 2.081 -10.188 1.117 -7.308 1.117 C -5.202 1.117 -3.101 1.694 -.996 2.841 Z " fill="#ffffff"/>
<path transform="matrix(1,0,0,-1,739.7036,414.28703)" d="M 0 0 L -2.495 6.868 C -2.707 7.53 -3.008 8.433 -3.382 9.551 L -3.983 11.262 L -4.064 11.262 C -4.202 10.79 -4.385 10.221 -4.625 9.559 L -5.58 6.84 L -8.059 0 Z M -5.275 16.622 L -2.76 16.622 L 7.47 -9.831 L 3.702 -9.831 L 1.068 -2.918 L -9.12 -2.918 L -11.632 -9.831 L -15.354 -9.831 Z " fill="#ffffff"/>
<path transform="matrix(1,0,0,-1,505.0366,390.2352)" d="M 0 0 L 3.76 0 L .402 -5.52 L -2.198 -5.52 Z " fill="#ffffff"/>
<path transform="matrix(1,0,0,-1,519.5473,397.789)" d="M 0 0 L 3.43 0 L 15.341 -15.5 C 16.581 -17.125 17.755 -18.771 18.856 -20.421 C 18.877 -19.693 18.894 -18.975 18.894 -18.255 L 18.856 0 L 22.453 0 L 22.453 -26.33 L 19.32 -26.33 L 6.965 -10.245 C 5.535 -8.375 4.381 -6.782 3.507 -5.478 L 3.43 -5.478 C 3.539 -6.4 3.592 -7.871 3.592 -9.871 L 3.592 -26.33 L 0 -26.33 Z " fill="#ffffff"/>
<path transform="matrix(1,0,0,-1,548.2758,397.789)" d="M 0 0 L 3.593 0 L 3.593 -11.347 L 17.491 -11.347 L 17.491 0 L 21.011 0 L 21.011 -26.33 L 17.491 -26.33 L 17.491 -14.382 L 3.593 -14.382 L 3.593 -26.33 L 0 -26.33 Z " fill="#ffffff"/>
<path transform="matrix(1,0,0,-1,582.2026,397.789)" d="M 0 0 L 3.824 0 L 9.835 -15.5 C 10.307 -16.698 10.676 -17.702 10.937 -18.503 L 11.843 -21.108 L 11.92 -21.1 L 12.834 -18.544 C 13.163 -17.638 13.554 -16.601 14.024 -15.438 L 19.946 0 L 23.778 0 L 13.229 -26.529 L 10.506 -26.529 Z " fill="#ffffff"/>
<path transform="matrix(1,0,0,-1,631.7875,397.35054)" d="M 0 0 C -.398 -1.382 -1.146 -2.527 -2.239 -3.434 L -2.239 -17.219 C -2.239 -18.975 -2.504 -20.511 -3.032 -21.808 C -4.503 -25.38 -7.616 -27.168 -12.383 -27.168 C -19.158 -27.168 -22.535 -23.855 -22.535 -17.219 L -22.535 -.438 L -18.938 -.438 L -18.938 -16.938 C -18.938 -19.979 -18.012 -22.071 -16.146 -23.218 C -15.163 -23.823 -13.907 -24.132 -12.367 -24.132 C -7.953 -24.132 -5.751 -21.693 -5.751 -16.821 L -5.751 -.438 L -2.999 -.438 C -2.679 .313 -2.471 1.207 -2.394 2.239 L .357 1.923 C .28 1.154 .162 .512 0 0 " fill="#ffffff"/>
<path transform="matrix(1,0,0,-1,655.7592,411.05073)" d="M 0 0 C 0 3.088 -.812 5.604 -2.459 7.555 C -4.088 9.493 -6.34 10.465 -9.185 10.465 C -12.139 10.465 -14.46 9.416 -16.138 7.311 C -17.658 5.393 -18.418 2.954 -18.418 0 C -18.418 -3.17 -17.572 -5.702 -15.882 -7.592 C -14.191 -9.485 -11.956 -10.433 -9.185 -10.433 C -6.234 -10.433 -3.926 -9.393 -2.271 -7.312 C -.76 -5.397 0 -2.959 0 0 M 1.073 12.785 C .788 11.773 .313 10.892 -.357 10.147 C 2.386 7.591 3.76 4.21 3.76 0 C 3.76 -3.999 2.504 -7.263 0 -9.795 C -2.397 -12.245 -5.454 -13.469 -9.185 -13.469 C -13.103 -13.469 -16.276 -12.172 -18.694 -9.592 C -21.015 -7.088 -22.173 -3.89 -22.173 0 C -22.173 3.941 -20.962 7.177 -18.54 9.709 C -16.113 12.24 -13.001 13.509 -9.185 13.509 C -6.628 13.509 -4.34 12.891 -2.316 11.663 C -1.752 12.569 -1.422 13.699 -1.32 15.061 L 1.447 14.744 C 1.361 13.972 1.244 13.313 1.073 12.785 " fill="#ffffff"/>
<path transform="matrix(1,0,0,-1,663.8696,397.789)" d="M 0 0 L 3.438 0 L 15.354 -15.5 C 16.59 -17.125 17.76 -18.771 18.869 -20.421 C 18.89 -19.693 18.906 -18.975 18.906 -18.255 L 18.869 0 L 22.466 0 L 22.466 -26.33 L 19.329 -26.33 L 6.97 -10.245 C 5.539 -8.375 4.397 -6.782 3.52 -5.478 L 3.438 -5.478 C 3.544 -6.4 3.601 -7.871 3.601 -9.871 L 3.601 -26.33 L 0 -26.33 Z " fill="#ffffff"/>
<path transform="matrix(1,0,0,-1,434.9731,392.50093)" d="M 0 0 C -.845 -.643 -1.271 -1.057 -1.271 -1.231 C -1.271 -1.386 -1.064 -1.703 -.654 -2.195 L -2.69 -3.231 C -3.308 -2.512 -3.612 -1.833 -3.612 -1.191 C -3.612 -.395 -3.133 .369 -2.174 1.113 C -1.211 1.856 -.731 2.369 -.731 2.653 C -.731 3.031 -.971 3.227 -1.455 3.227 C -1.971 3.227 -2.653 2.845 -3.495 2.076 L -4.689 3.873 C -3.539 4.958 -2.394 5.494 -1.271 5.494 C -.476 5.494 .187 5.283 .731 4.84 C 1.37 4.328 1.687 3.637 1.687 2.771 C 1.687 1.792 1.126 .869 0 0 " fill="#ffffff"/>
<path transform="matrix(1,0,0,-1,760.7817,421.4374)" d="M 0 0 C 2.963 0 5.268 1.041 6.922 3.122 C 8.445 5.04 9.201 7.482 9.201 10.445 C 9.201 13.538 8.405 16.045 6.8 17.968 C 5.125 19.938 2.857 20.926 0 20.926 C -2.958 20.926 -5.278 19.873 -6.961 17.765 C -8.481 15.842 -9.241 13.403 -9.241 10.445 C -9.241 7.271 -8.396 4.735 -6.701 2.846 C -5.007 .947 -2.775 0 0 0 M 0 -3.043 C -3.921 -3.043 -7.096 -1.747 -9.521 .838 C -11.842 3.35 -13 6.548 -13 10.445 C -13 14.391 -11.789 17.63 -9.359 20.166 C -6.933 22.702 -3.812 23.966 0 23.966 C 3.788 23.966 6.893 22.702 9.323 20.166 C 11.749 17.63 12.965 14.391 12.965 10.445 C 12.965 6.442 11.737 3.194 9.287 .703 C 6.832 -1.792 3.735 -3.043 0 -3.043 " fill="#ffffff"/>
</g>
</g>
</g>
</svg>
