<svg xmlns="http://www.w3.org/2000/svg" width="200" height="200" style=""><rect id="backgroundrect" width="100%" height="100%" x="0" y="0" fill="none" stroke="none" class="" style=""/>

 <g style="">
  <title>background</title>
  <rect fill="none" id="canvas_background" height="122" width="862" y="-1" x="-1"/>
 </g>
 <g style="" class="currentLayer">
  <title>Layer 1</title>
  
   
    <path fill="#de9e20" d="m98.76007000911044,144.18519155434882 c-1.6512334594726563,0.9414044418334965 -13.523249635696413,11.002349773406984 -37.14394290351868,11.002349773406984 c-19.89534948730469,0.015102745056152354 -41.15372171592712,-10.18428441619873 -47.82284222030639,-9.984173044204711 c-2.3484768562316902,-0.10194352912902835 -4.230027177810669,0.3775686264038088 -5.703803382873535,1.0282452259063724 c-2.78771502494812,1.1666870555877686 -5.5024334487915025,-0.5424402599334719 -3.9896418190002443,-3.401893323898316 c5.238135410308838,-9.897332260131837 14.128618000030519,-15.993807014465332 22.530778499603272,-18.526033935546877 c6.138007303237915,-1.8563790798187256 11.744901405334474,-2.4806258754730224 14.64336989402771,0.7526201286315922 c6.399788217544556,7.093255928039551 17.9533881855011,15.850330936431885 29.181020572662355,17.00569093322754 c0.909940389633179,0.0880993461608887 4.987681554794311,0.4354624824523929 5.032989789962769,-0.7198975143432621 c0.045308235168457056,-0.7060533313751223 -1.3454028720855713,-1.1666870555877686 -2.7575095348358154,-1.263596336364746 c-11.461724935531615,-0.8344266643524173 -32.14619285202026,-13.109182708740235 -43.505974258422846,-36.88342055130005 c-4.261491230010987,-8.919429517745971 -7.6407304363250725,-17.56952674865723 -15.07757381439209,-21.3439544506073 c-1.6424235248565675,-0.7878598670959476 -1.6940245704650883,-3.8260287475585937 1.7695382957458499,-4.649128353118896 c2.4139220848083496,-0.5726457500457766 17.671470277786256,-2.046421955108643 35.12269219017029,7.146115535736084 c8.014523376464844,4.213665870666504 9.134643634796143,7.994386383056641 9.164849124908446,11.298111864089966 c-0.07047947692871097,24.914495094299316 12.531502710342409,34.805534543991094 17.400879428863526,37.72665715026855 c2.72226979637146,1.615993721008301 5.258272403717041,2.3119785556793215 5.530121814727783,1.4624491462707518 c0.2139555549621582,-0.7110875797271731 -0.500907711029053,-1.1968925457000734 -1.1264130687713627,-1.5757197341918947 c-15.107779304504394,-9.169883373260497 -19.09742112350464,-23.282140066146848 -19.21572595977783,-37.65995335960388 c-0.11830483627319344,-14.214200222015382 5.151294626235962,-26.515386070251466 8.889224027633666,-36.591434146881106 c0.5424402599334719,-1.4272094078063964 2.3069443073272713,-7.4368433780670165 0.8029626121521,-12.99087787246704 c-1.1150860099792483,-4.148220642089844 -0.2038870582580567,-5.355181684494019 1.9797181644439694,-5.355181684494019 c2.3937850914001473,0 5.580464298248291,3.8713369827270503 6.6540177593231205,5.2016371097564695 c0.8595979061126715,1.0018154220581055 3.6422786827087403,4.39364024925232 7.8471346187591555,12.71021852684021 c8.326646774291993,16.459474987030028 8.388316316604614,33.660243043899534 8.388316316604614,35.767075979232786 c0,11.820415130615233 -3.049495939254761,13.187213558197021 -8.020816186904907,15.636375381469726 c-4.9562175025939945,2.4504203853607183 -7.314762855529786,5.610669788360596 -7.319797103881836,9.27811971282959 c-0.005034248352050782,3.764359205245972 2.614033456802368,7.677228736877441 7.319797103881836,9.05912990951538 c3.6624156761169435,1.0685192127227785 5.974394231796264,0.6695550308227539 5.7805756702423094,-0.28191790771484393 c-0.15480313682556157,-0.7526201286315922 -1.7707968578338624,-0.9363701934814456 -2.2414990787506106,-1.0634849643707278 c-4.966285999298096,-1.350437120437622 -8.26497723197937,-3.897766786575317 -8.26497723197937,-7.713727037429809 c0,-4.77246743774414 5.877484951019287,-8.26497723197937 14.147496431350708,-8.26497723197937 c8.270011480331421,0 14.147496431350708,3.4925097942352292 14.147496431350708,8.26497723197937 c0,3.820994499206543 -3.2936569843292243,6.368324165344238 -8.259942983627319,7.71876128578186 c-0.47070222091674824,0.12208052253723153 -2.0866959419250493,0.30583058738708513 -2.2402405166625976,1.058450716018677 c-0.19507712364196786,0.9514729385375981 2.121935680389405,1.3554713687896731 5.779317108154298,0.28191790771484393 c4.7057636470794675,-1.3718326759338382 7.324831352233887,-5.294770704269409 7.319797103881836,-9.05912990951538 c-0.005034248352050782,-3.6624156761169435 -2.3635796012878423,-6.822665079116821 -7.326089914321899,-9.27811971282959 c-4.959993188858032,-2.4491618232727053 -8.014523376464844,-3.8159602508544923 -8.014523376464844,-15.631341133117676 c0,-2.1068329353332524 0.0667037906646729,-19.312635240554812 8.383282068252564,-35.77211022758484 c4.204855936050415,-8.31154402923584 6.997605209350587,-11.708403104782105 7.852168867111206,-12.70518427848816 c1.0735534610748294,-1.33533437538147 4.260232667922974,-5.206671358108521 6.64898351097107,-5.206671358108521 c2.1886394710540773,0 3.0998384227752687,1.206961042404175 1.9797181644439694,5.355181684494019 c-1.5039816951751712,5.554034494400025 0.26052235221862796,11.568702713012696 0.8130311088562013,12.99087787246704 c3.7291194667816163,10.08611657333374 9.00752886390686,22.38226817321777 8.884189779281616,36.591434146881106 c-0.11327058792114265,14.37781329345703 -4.111722341537475,28.495104234695436 -19.21572595977783,37.66498760795593 c-0.6292810440063477,0.3737929401397707 -1.346661434173584,0.8646321544647223 -1.120120258331299,1.5706854858398438 c0.2655566005706788,0.8545636577606205 2.7977835216522213,0.1636130714416504 5.513760507583618,-1.4624491462707518 c4.87944521522522,-2.921122606277466 17.48142740249634,-12.812162055969237 17.410947925567626,-37.72665715026855 c0.030205490112304712,-3.303725481033325 1.1503257484436036,-7.084445993423462 9.159814876556396,-11.298111864089966 c17.456256160736086,-9.187503242492676 32.71883860206604,-7.713727037429809 35.1340192489624,-7.146115535736084 c3.457270055770874,0.8230996055603031 3.4006347618103026,3.866302734375 1.7645040473937992,4.654162601470948 c-7.43810194015503,3.769393453598023 -10.817341146469117,12.419490684509277 -15.078832376480102,21.338920202255245 c-11.364815654754638,23.774237842559817 -32.04424932289123,36.05402813529968 -43.51100850677491,36.88342055130005 c-1.4121066627502443,0.09690928077697761 -2.7990420837402348,0.5625772533416751 -2.7524752864837643,1.2736648330688478 c0.045308235168457056,1.1452915000915527 4.12304940032959,0.8029626121521 5.032989789962769,0.7098290176391607 c11.221339576721192,-1.1503257484436036 22.776198106765747,-9.912435005187989 29.17472776222229,-17.00569093322754 c2.9060198612213135,-3.2231775074005125 8.511655401229858,-2.6089992084503173 14.649662704467774,-0.7526201286315922 c8.407194747924803,2.532226921081543 17.292643089294433,8.628701675415039 22.524485689163207,18.531068183898928 c1.5140501918792726,2.859453063964844 -1.19059973526001,4.563546131134034 -3.984607570648193,3.3968590755462658 c-1.4725176429748534,-0.6456423511505128 -3.360360774993896,-1.1213788204193118 -5.707579069137574,-1.0282452259063724 c-6.664086256027222,-0.19507712364196786 -27.916165674209594,9.999275789260865 -47.82284222030639,9.989207292556763 c-23.620693267822265,0 -35.48264094734192,-10.065979579925537 -37.13387440681458,-11.007384021759034 " class="" id="svg_13"/><clipPath transform="translate(0,4.191579341888428) translate(3.6661972999572754,0) translate(0,-284.14019775390625) translate(-140.59524536132812,0) " id="cp1">
     <path id="svg_2" d="m-136.92905,-279.94862l1133.858,0l0,708.661l-1133.858,0l0,-708.661z"/>
    </clipPath>
    
     
     
     
     
     
     
     
     
     
     
     
     
     
    
   
  
 </g>
</svg>