<svg xmlns="http://www.w3.org/2000/svg" width="860" height="120" style=""><rect id="backgroundrect" width="100%" height="100%" x="0" y="0" fill="none" stroke="none"/>

 <g style="">
  <title>background</title>
  <rect fill="none" id="canvas_background" height="122" width="862" y="-1" x="-1"/>
 </g>
 <g style="" class="currentLayer">
  <title>Layer 1</title>
  
   
    <clipPath transform="translate(0,4.191579341888428) translate(3.6661972999572754,0) translate(0,-284.14019775390625) translate(-140.59524536132812,0) " id="cp1">
     <path id="svg_2" d="m-136.92905,-279.94862l1133.858,0l0,708.661l-1133.858,0l0,-708.661z"/>
    </clipPath>
    
     <path id="svg_4" fill="#de9e20" d="m79.22375,86.44658c-1.312,0.748 -10.745,8.742 -29.513,8.742c-15.808,0.012 -32.699,-8.092 -37.998,-7.933c-1.866,-0.081 -3.361,0.3 -4.532,0.817c-2.215,0.927 -4.372,-0.431 -3.17,-2.703c4.162,-7.864 11.226,-12.708 17.902,-14.72c4.877,-1.475 9.332,-1.971 11.635,0.598c5.085,5.636 14.265,12.594 23.186,13.512c0.723,0.07 3.963,0.346 3.999,-0.572c0.036,-0.561 -1.069,-0.927 -2.191,-1.004c-9.107,-0.663 -25.542,-10.416 -34.568,-29.306c-3.386,-7.087 -6.071,-13.96 -11.98,-16.959c-1.305,-0.626 -1.346,-3.04 1.406,-3.694c1.918,-0.455 14.041,-1.626 27.907,5.678c6.368,3.348 7.258,6.352 7.282,8.977c-0.056,19.796 9.957,27.655 13.826,29.976c2.163,1.284 4.178,1.837 4.394,1.162c0.17,-0.565 -0.398,-0.951 -0.895,-1.252c-12.004,-7.286 -15.174,-18.499 -15.268,-29.923c-0.094,-11.294 4.093,-21.068 7.063,-29.074c0.431,-1.134 1.833,-5.909 0.638,-10.322c-0.886,-3.296 -0.162,-4.255 1.573,-4.255c1.902,0 4.434,3.076 5.287,4.133c0.683,0.796 2.894,3.491 6.235,10.099c6.616,13.078 6.665,26.745 6.665,28.419c0,9.392 -2.423,10.478 -6.373,12.424c-3.938,1.947 -5.812,4.458 -5.816,7.372c-0.004,2.991 2.077,6.1 5.816,7.198c2.91,0.849 4.747,0.532 4.593,-0.224c-0.123,-0.598 -1.407,-0.744 -1.781,-0.845c-3.946,-1.073 -6.567,-3.097 -6.567,-6.129c0,-3.792 4.67,-6.567 11.241,-6.567c6.571,0 11.241,2.775 11.241,6.567c0,3.036 -2.617,5.06 -6.563,6.133c-0.374,0.097 -1.658,0.243 -1.78,0.841c-0.155,0.756 1.686,1.077 4.592,0.224c3.739,-1.09 5.82,-4.207 5.816,-7.198c-0.004,-2.91 -1.878,-5.421 -5.821,-7.372c-3.941,-1.946 -6.368,-3.032 -6.368,-12.42c0,-1.674 0.053,-15.345 6.661,-28.423c3.341,-6.604 5.56,-9.303 6.239,-10.095c0.853,-1.061 3.385,-4.137 5.283,-4.137c1.739,0 2.463,0.959 1.573,4.255c-1.195,4.413 0.207,9.192 0.646,10.322c2.963,8.014 7.157,17.784 7.059,29.074c-0.09,11.424 -3.267,22.641 -15.268,29.927c-0.5,0.297 -1.07,0.687 -0.89,1.248c0.211,0.679 2.223,0.13 4.381,-1.162c3.877,-2.321 13.89,-10.18 13.834,-29.976c0.024,-2.625 0.914,-5.629 7.278,-8.977c13.87,-7.3 25.997,-6.129 27.916,-5.678c2.747,0.654 2.702,3.072 1.402,3.698c-5.91,2.995 -8.595,9.868 -11.981,16.955c-9.03,18.89 -25.461,28.647 -34.572,29.306c-1.122,0.077 -2.224,0.447 -2.187,1.012c0.036,0.91 3.276,0.638 3.999,0.564c8.916,-0.914 18.097,-7.876 23.181,-13.512c2.309,-2.561 6.763,-2.073 11.64,-0.598c6.68,2.012 13.74,6.856 17.897,14.724c1.203,2.272 -0.946,3.626 -3.166,2.699c-1.17,-0.513 -2.67,-0.891 -4.535,-0.817c-5.295,-0.155 -22.181,7.945 -37.998,7.937c-18.768,0 -28.193,-7.998 -29.505,-8.746" class=""/>
     <path id="svg_5" fill="#ffffff" d="m842.16125,44.65218l-0.04,0.024c6.603,6.661 10.969,15.63 11.663,25.717c1.549,22.275 -15.227,41.571 -37.477,43.139c-10.478,0.741 -20.276,-2.592 -27.909,-8.628l-0.032,0.038c7.913,7.372 18.739,11.585 30.362,10.765c22.279,-1.556 39.051,-20.869 37.507,-43.119c-0.801,-11.274 -6.125,-21.153 -14.074,-27.936" class="" fill-opacity="1"/>
     <path id="svg_6" fill="#ffffff" d="m770.54985,90.63798c-1.288,0.715 -1.572,1.78 -0.918,3.454c0.609,1.512 1.564,2.183 2.576,1.76c0.818,-0.313 0.955,-1.02 0.626,-2.853l-0.154,-0.699c-0.325,-1.796 -0.382,-2.564 -0.171,-3.337c0.216,-0.873 0.711,-1.438 1.463,-1.743c1.833,-0.728 3.56,0.415 4.589,2.963c1.113,2.779 0.519,4.872 -1.662,5.779l-0.537,-1.362c1.516,-0.642 1.889,-2.052 1.073,-4.076c-0.658,-1.646 -1.687,-2.381 -2.8,-1.922c-0.891,0.346 -1.09,1.166 -0.765,3.04l0.126,0.776l0.118,0.707c0.236,1.373 0.264,1.873 0.134,2.458c-0.175,0.741 -0.645,1.281 -1.41,1.581c-1.719,0.692 -3.377,-0.329 -4.3,-2.641c-0.995,-2.516 -0.463,-4.381 1.455,-5.242l0.557,1.357" class="" fill-opacity="1"/>
     <path id="svg_7" fill="#ffffff" d="m769.40535,76.02668l6.132,-5.141l0.041,1.902l-5.202,4.291l1.69,1.854l3.651,-0.073l0.032,1.503l-10.42,0.224l-0.041,-1.504l4.1,-0.085l1.093,0l-0.345,-0.378l-0.37,-0.362l-4.592,-4.979l-0.057,-1.982l4.288,4.73z" class="" fill-opacity="1"/>
     <path id="svg_8" fill="#ffffff" d="m774.01275,59.88848l4.015,1.406l-0.488,1.406l-4.019,-1.406l-7.194,2.178l0.606,-1.714l4.475,-1.256l0.544,-0.159c0.224,-0.069 0.358,-0.085 0.748,-0.183c-0.345,-0.41 -0.427,-0.512 -0.8,-1.012l-2.752,-3.751l0.577,-1.637l4.288,6.128" class="" fill-opacity="1"/>
     <path id="svg_9" fill="#ffffff" d="m781.06555,40.73518l-2.202,2.694l6.571,5.377l-1.568,1.93l-6.588,-5.384l-2.183,2.69l-1.495,-1.227l5.97,-7.307l1.495,1.227z" class="" fill-opacity="1"/>
     <path id="svg_10" fill="#ffffff" d="m795.13195,30.85768l-5.255,3.076l1.113,1.927l4.832,-2.829l0.886,1.54l-4.803,2.813l1.28,2.231l5.365,-3.15l0.979,1.659l-7.527,4.405l-5.254,-9.006l7.408,-4.345l0.976,1.679z" class="" fill-opacity="1"/>
     <path id="svg_11" fill="#1f3c76" d="m815.30375,34.89968l-2.728,0.187l-1.353,-2.26l-4.202,0.683l-0.581,2.557l-2.593,0.654l2.735,-11.384l2.573,-0.402l6.149,9.965zm-5.966,-5.356c-0.573,-0.956 -0.789,-1.382 -1.118,-2.134c-0.098,0.756 -0.179,1.301 -0.443,2.369l-0.439,1.992l3.036,-0.488l-1.036,-1.739" class=""/><path fill="#1f3c76" d="m815.30375,34.899680000000004 l-2.728,0.18700000000000003 l-1.353,-2.26 l-4.202,0.6830000000000002 l-0.5810000000000001,2.557 l-2.593,0.6540000000000001 l2.7350000000000003,-11.384 l2.573,-0.402 l6.149,9.965 zm-5.966,-5.356 c-0.5730000000000001,-0.9560000000000001 -0.789,-1.3820000000000001 -1.118,-2.134 c-0.09800000000000003,0.7560000000000001 -0.17900000000000002,1.3010000000000002 -0.44300000000000006,2.369 l-0.43900000000000006,1.992 l3.036,-0.48800000000000004 l-1.036,-1.739 " class="" id="svg_1"/><path fill="#ffffff" d="m815.30375,34.899680000000004 l-2.728,0.18700000000000006 l-1.353,-2.26 l-4.202,0.6830000000000004 l-0.5810000000000002,2.557 l-2.593,0.6540000000000002 l2.7350000000000003,-11.384 l2.573,-0.402 l6.149,9.965 zm-5.966,-5.356 c-0.5730000000000002,-0.9560000000000002 -0.789,-1.3820000000000001 -1.118,-2.134 c-0.09800000000000006,0.7560000000000002 -0.17900000000000005,1.3010000000000002 -0.4430000000000001,2.369 l-0.4390000000000001,1.992 l3.036,-0.4880000000000001 l-1.036,-1.739 " class="" id="svg_3" fill-opacity="1" stroke="#ffffff" stroke-opacity="1"/>
     <path id="svg_12" fill="#ffffff" d="m832.03425,38.24198l-2.19,-0.829l0.836,-3.117c0.082,-0.346 0.224,-0.849 0.411,-1.488c0.174,-0.65 0.329,-1.158 0.426,-1.536c0.147,-0.414 0.281,-0.845 0.423,-1.304l0.232,-0.74c-0.61,1.073 -0.854,1.427 -1.422,2.272c-0.228,0.382 -0.451,0.703 -0.639,0.963l-2.95,4.149l-1.906,-0.504l-0.593,-4.986c-0.049,-0.252 -0.062,-0.614 -0.098,-1.106c-0.037,-0.654 -0.061,-1.154 -0.085,-1.499c-0.008,-0.273 -0.008,-0.683 0,-1.256l-0.264,1.256c-0.309,1.377 -0.448,1.967 -0.858,3.604l-0.87,3.357l-2.312,-0.365l2.617,-10.189l3.495,0.671l0.496,4.832c0.126,1.129 0.15,2.077 0.109,3.418c0.395,-0.765 0.529,-1.02 0.985,-1.724c0.308,-0.479 0.568,-0.865 0.808,-1.247l2.735,-3.926l3.337,1.13l-2.723,10.164" class="" fill-opacity="1"/>
     <path id="svg_13" fill="#ffffff" d="m812.12415,58.32308c-1.264,1.118 -3.771,3.52 -6.186,5.848l-2.751,2.633c-2.227,-0.414 -4.421,-0.601 -6.713,-0.601c-5.073,0 -9.726,1.394 -11.847,3.572c-0.797,0.829 -1.211,1.728 -1.187,2.671c0.053,2.47 2.866,3.706 3.719,4.023c4.511,1.686 8.286,1.194 12.265,-1.602c2.186,-1.532 4.832,-3.982 6.892,-5.981c1.61,0.369 3.426,0.849 5.385,1.426l1.805,0.52c-2.345,2.308 -4.743,4.739 -6.962,6.698l-0.171,0.146c-3.101,2.735 -5.336,4.698 -8.579,5.429c-2.264,0.496 -3.877,0.016 -4.405,-0.297c-0.057,0.005 -0.126,0.098 -0.126,0.098c1.87,1.541 3.637,2.414 6.689,2.158c2.91,-0.26 6.251,-2.085 9.681,-5.304l4.629,-4.535l3.243,-3.223c0,0.021 6.563,1.931 6.563,1.931c0.057,0.008 0.114,0.028 0.114,0.028c-0.057,0 -4.06,3.946 -4.06,3.946l-3.478,3.479c-3.569,3.451 -5.516,5.251 -7.596,6.738c-3.455,2.443 -6.405,3.706 -9.006,3.881c-1.342,0.09 -3.296,-0.004 -4.909,-0.942c-0.073,-0.021 -0.171,0.06 -0.171,0.06c1.747,1.516 3.926,3.317 7.636,3.227c4.198,-0.142 7.933,-2.15 13.728,-7.474c2.646,-2.429 5.276,-5.128 7.579,-7.542l4.309,-4.365c2.845,0.634 5.372,0.898 8.172,0.833c4.089,-0.097 7.576,-2.036 7.616,-4.275c0.041,-1.654 -1.32,-2.544 -2.134,-3.068c-0.662,-0.439 -2.491,-1.455 -5.011,-1.455c-3.064,0 -6.254,1.357 -9.497,4.019l-2.158,1.914c0.025,-0.012 -0.784,-0.211 -0.784,-0.211l-5.999,-1.703c1.784,-1.646 3.284,-3.06 4.625,-4.271c3.3,-2.918 6.909,-4.129 9.038,-4.26c1.549,-0.109 4.243,0.033 5.349,0.822c0.048,0 0.122,-0.131 0.122,-0.131c-2.955,-2.519 -5.511,-2.853 -7.609,-2.853c-2.068,0 -5.405,0.655 -9.489,3.817c-1.654,1.288 -3.811,3.45 -6.079,5.73l-3.032,-0.931l-0.732,-0.223l-3.19,-0.976c0.077,0 1.825,-1.711 1.825,-1.711c2.149,-2.113 4.169,-4.096 5.759,-5.454c5.758,-4.836 9.375,-5.466 11.887,-5.49c2.755,0 4.95,0.569 6.522,1.703c0.033,-0.004 0.102,-0.106 0.102,-0.106c-3.219,-2.93 -5.547,-3.873 -9.55,-3.901c-3.52,-0.028 -7.739,1.942 -11.843,5.535m-22.608,17.28c-1.87,-0.134 -2.772,-0.874 -2.772,-2.324c0,-0.184 0.126,-4.76 10.575,-5.271c1.195,-0.07 2.507,-0.106 4.547,0.133c-0.089,0 -1.186,1 -1.186,1l-0.655,0.61c-2.511,2.288 -6.746,6.116 -10.509,5.852m42.282,-3.694c3.003,-2.04 5.507,-3.121 7.067,-3.068c0.918,0.032 2.016,0.3 2.016,1.446c0,1.171 -1.113,2.138 -3.288,2.927c-1.906,0.686 -4.836,0.865 -8.031,0.511c0.878,-0.8 1.614,-1.418 2.236,-1.816" class="" fill-opacity="1"/>
     <path id="svg_14" fill="#1f3c76" d="m811.08215,74.15358l0,3.088l0,-3.088z" class=""/>
     <path id="svg_15" fill="#ffffff" d="m836.30675,29.91241c0.382,-0.862 1.377,-1.264 2.251,-0.894c0.886,0.382 1.28,1.373 0.902,2.251c-0.357,0.878 -1.366,1.272 -2.243,0.891c-0.878,-0.391 -1.28,-1.37 -0.91,-2.248m2.856,1.374c0.386,-0.704 0.115,-1.582 -0.577,-1.947c-0.686,-0.386 -1.581,-0.163 -1.963,0.552c-0.389,0.7 -0.118,1.578 0.581,1.976c0.675,0.361 1.578,0.126 1.959,-0.581m-1.007,0.508l-0.277,-0.155l-0.073,-1.028l-0.276,-0.15l-0.423,0.76l-0.224,-0.13l0.906,-1.638l0.712,0.398c0.292,0.163 0.544,0.398 0.345,0.74c-0.179,0.329 -0.467,0.329 -0.768,0.178l0.078,1.025zm-0.22,-1.406c0.195,0.113 0.537,0.345 0.683,0.077c0.085,-0.159 -0.118,-0.322 -0.292,-0.411l-0.44,-0.244l-0.227,0.427l0.276,0.151" class="" fill-opacity="1"/>
     <path id="svg_16" fill-rule="evenodd" fill="#ffffff" d="m282.97175,48.73611c-1.971,0.032 -4.653,0.004 -4.653,0.004c-1.328,0 -1.337,0.735 -1.337,2.231c0,1.431 0,2.178 1.333,2.178l4.657,0c0.96,-0.004 0.996,0.102 0.984,1.102c-0.024,2.105 0,27.497 0,27.497c0,10.009 5.352,11.204 10.652,11.285c5.234,0.074 8.673,-1.475 8.611,-3.324c-0.036,-1.073 -0.747,-1.556 -1.963,-1.418c-0.857,0.097 -1.459,0.358 -2.604,0.358c-2.777,0 -6.272,-0.748 -6.272,-6.832l0,-27.481c-0.008,-1.061 0,-1.191 1.057,-1.187l7.584,0c1.329,0 1.373,-0.747 1.373,-2.178c0,-1.471 -0.044,-2.239 -1.373,-2.239l-7.624,0c-1.021,0 -1.008,-0.098 -1.017,-0.988l0,-9.245c0,-1.484 -1.125,-2.008 -2.031,-1.931c-0.663,0.057 -1.451,0.488 -3.32,1.711c-2.439,1.597 -3.073,2.613 -3.073,5.527l0,3.873c-0.005,1.061 -0.048,1.04 -0.984,1.057m-102.855,40.636c1.154,2.751 1.417,2.966 5.811,2.966c4.223,0 4.316,-0.17 5.548,-2.995c1.226,-2.82 17.264,-43.127 21.518,-53.669c0.943,-2.345 0.537,-2.544 -3.247,-2.544c-3.308,0 -3.613,0.191 -4.243,1.618c0,0 -17.967,45.939 -18.352,47.004c-0.098,0.297 -0.48,0.321 -0.643,-0.041c-0.577,-1.3 -18.816,-47.094 -18.816,-47.094c-0.439,-1.174 -0.549,-1.592 -5.474,-1.592c-5.373,0 -5.016,0.511 -3.95,3.157c0.26,0.634 20.697,50.438 21.848,53.19m525.577,-10.047c0,-0.751 -0.577,-1.515 -1.642,-1.515c-0.972,0 -1.455,0.341 -2.036,1.349c-2.232,3.784 -7.705,8.217 -14.988,8.29c-9.835,0.09 -15.512,-6.973 -15.26,-17.893c0,-0.374 0.158,-0.695 0.719,-0.707c0.569,-0.017 15.39,-0.029 30.345,0c2.862,0.004 2.907,-1.894 2.907,-3.463c0,-9.046 -8.425,-17.398 -20.507,-17.398c-12.537,0 -22.178,6.84 -22.178,22.58c0,16.748 12.518,22.685 23.186,22.685c12.894,0 19.454,-9.969 19.454,-13.928m-33.821,-15.829c0.744,-5.255 4.759,-11.07 12.676,-11.135c6.641,-0.053 12.464,3.979 12.773,9.912c0.086,1.707 -0.362,1.918 -2.394,1.918l-22.413,0c-0.621,0 -0.703,-0.28 -0.642,-0.695m-397.037,15.829c0,-0.751 -0.581,-1.515 -1.645,-1.515c-0.972,0 -1.464,0.341 -2.04,1.349c-2.232,3.784 -7.702,8.217 -14.981,8.29c-9.839,0.09 -15.512,-6.973 -15.261,-17.893c0,-0.374 0.151,-0.695 0.716,-0.707c0.565,-0.017 15.395,-0.029 30.342,0c2.865,0.004 2.914,-1.894 2.914,-3.463c0,-9.046 -8.425,-17.398 -20.507,-17.398c-12.546,0 -22.177,6.84 -22.177,22.58c0,16.748 12.513,22.685 23.181,22.685c12.899,0 19.458,-9.969 19.458,-13.928m-33.824,-15.829c0.747,-5.255 4.759,-11.07 12.68,-11.135c6.635,-0.053 12.464,3.979 12.768,9.912c0.09,1.707 -0.365,1.918 -2.393,1.918l-22.409,0c-0.626,0 -0.704,-0.28 -0.646,-0.695m211.783,26.993c0,1.849 0.903,1.833 4.206,1.841c3.3,0.008 4.21,0.008 4.21,-1.841l0,-28.562c0,-11.354 -10.655,-13.707 -16.967,-13.707c-7.376,0 -11.574,2.109 -14.443,5.283c-3.064,-3.337 -7.161,-5.283 -14.334,-5.283c-4.937,0 -9.758,1.183 -14.078,3.097c-3.112,1.381 -3.112,3.218 -3.112,4.998l0,34.174c0,1.849 0.918,1.849 4.21,1.849c3.292,0 4.202,0 4.202,-1.849l0.012,-31.829c0,-4.747 3.808,-6.051 8.802,-6.055c6.219,0 10.023,2.926 10.023,10.257l0,27.627c0,1.849 0.91,1.849 4.217,1.849c3.296,0 4.195,0 4.195,-1.849l0,-28.167c0,-5.588 2.922,-9.746 9.62,-9.746c6.502,0 9.277,4.243 9.277,9.872l-0.04,28.041zm-227.279,-54.291c-0.472,-2.194 -2.918,-3.527 -5.731,-2.934c-2.82,0.594 -4.511,2.8 -4.036,4.995c0.472,2.194 2.918,3.531 5.735,2.938c2.816,-0.593 4.503,-2.8 4.032,-4.999m156.443,46.867c0,4.458 -5.795,5.629 -10.079,5.629c-7.558,0 -11.322,-3.232 -11.322,-7.499c0,-7.766 10.034,-10.57 20.495,-12.773c0.557,-0.114 0.898,-0.175 0.898,0.618l0.008,14.025zm-9.635,10.224c7.018,0.049 10.583,-1.203 14.796,-3.136c3.159,-1.493 3.159,-3.167 3.159,-5.101l0,-24.08c0,-9.18 -7.628,-12.992 -16.37,-12.976c-14.261,0.037 -19.938,6.157 -20.166,10.124c-0.122,2.109 1.142,3.653 3.605,3.706c2.386,0.057 3.82,-1.52 4.377,-2.829c1.756,-4.1 4.775,-6.636 11.005,-6.636c4.877,0 9.237,2.231 9.221,8.03l0,2.561c0,0.784 0,0.947 -0.682,1.028c-12.851,2.06 -29.533,6.096 -29.533,17.898c0,7.339 8.806,11.4 20.588,11.411m-155.904,-2.873c0,1.845 0.906,1.845 4.195,1.845c3.307,0 4.217,0 4.217,-1.845l0.03,-39.953c0.036,-2.938 -4.008,-2.199 -6.073,-0.853c-2.308,1.503 -2.38,2.255 -2.38,5.169l0.011,35.637zm529.894,-9.908c-0.329,-14.748 -27.863,-12.042 -27.871,-22.323c-0.004,-4.02 4.129,-5.873 8.607,-5.873c6.449,0 8.583,2.154 9.933,5.296c0.634,1.462 1.906,2.808 4.36,2.808c1.858,0 3.422,-1.179 3.422,-3.349c0,-3.264 -4.535,-9.01 -16.922,-9.095c-10.258,-0.069 -17.203,3.84 -17.212,11.944c-0.012,15.183 27.559,11.944 27.506,22.466c-0.017,4.349 -4.068,6.359 -9.953,6.421c-5.872,0.06 -9.01,-2.32 -10.704,-6.434c-0.825,-1.67 -1.919,-3.177 -4.479,-3.133c-2.3,0.037 -3.67,1.516 -3.67,3.775c0,3.089 5.385,10.278 18.463,10.278c10.712,0 18.71,-4.315 18.52,-12.781m-88.771,-16.91c0.025,-13.31 -11.574,-15.419 -19.99,-15.419c-6.795,0 -12.883,1.715 -15.748,2.979c-2.833,1.252 -3.072,2.816 -3.072,5.409l0.024,33.926c0,1.845 0.906,1.845 4.206,1.845c3.317,0 4.214,0 4.214,-1.845l-0.008,-31.325c0,-2.764 0.98,-6.588 10.583,-6.588c9.083,0 11.355,5.377 11.355,11.018l0.02,26.895c0,1.845 0.907,1.845 4.199,1.845c3.324,0 4.217,0 4.217,-1.845l0,-26.895zm-56.395,26.818c0,1.845 0.91,1.845 4.197,1.845c3.309,0 4.219,0 4.219,-1.845l0.028,-39.953c0.037,-2.938 -4.003,-2.199 -6.067,-0.853c-2.309,1.503 -2.386,2.255 -2.386,5.169l0.009,35.637zm9.098,-54.218c-0.471,-2.194 -2.914,-3.527 -5.729,-2.934c-2.816,0.594 -4.508,2.8 -4.036,4.995c0.468,2.194 2.918,3.531 5.73,2.938c2.821,-0.593 4.511,-2.8 4.035,-4.999m-26.911,54.243c0,1.849 0.91,1.849 4.19,1.849c3.312,0 4.222,0 4.222,-1.849l0.033,-57.27c0.032,-2.935 -4.011,-2.203 -6.076,-0.854c-2.304,1.504 -2.381,2.256 -2.381,5.169l0.012,52.955zm-39.633,-54.255c-0.471,-2.199 -2.914,-3.54 -5.73,-2.938c-2.82,0.589 -4.507,2.792 -4.035,4.99c0.472,2.195 2.918,3.532 5.734,2.939c2.821,-0.594 4.503,-2.8 4.031,-4.991m-30.406,38.352c2.864,6.807 6.815,16.293 6.815,16.293c0.492,1.211 0.048,1.507 5.023,1.507c5.279,0 5.597,-0.17 4.556,-2.519c-0.281,-0.634 -21.222,-50.942 -22.389,-53.686c-1.162,-2.751 -1.666,-2.95 -6.022,-2.95c-4.313,0 -4.877,0.11 -6.072,2.95c-1.215,2.886 -22.238,53.418 -22.499,54.052c-0.889,2.153 -0.097,2.153 3.475,2.153c3.345,0 3.735,-0.105 4.369,-1.531l6.486,-16.228c0.386,-0.98 0.512,-1.374 1.666,-1.374c4.438,0 17.081,0 22.914,-0.02c1.117,-0.008 1.235,0.317 1.678,1.353m-23.275,-7.718c1.248,-3.182 9.246,-24.099 9.669,-25.277c0.126,-0.334 0.463,-0.334 0.601,0.016c0.569,1.463 8.644,22.01 9.843,25.193c0.264,0.698 0.361,1.268 -0.56,1.268l-18.874,0c-1.15,0 -0.878,-0.7 -0.679,-1.2m44.587,23.576c0,1.845 0.91,1.845 4.193,1.845c3.309,0 4.219,0 4.219,-1.845l0.032,-39.953c0.037,-2.938 -4.007,-2.203 -6.071,-0.854c-2.309,1.504 -2.386,2.26 -2.386,5.169l0.013,35.638zm-188.172,-26.839c0.024,-13.314 -11.582,-15.415 -19.995,-15.415c-6.787,0 -12.883,1.716 -15.748,2.979c-2.828,1.252 -3.069,2.817 -3.069,5.402l0.021,33.93c0,1.849 0.91,1.849 4.21,1.849c3.312,0 4.215,0 4.215,-1.849l-0.017,-31.325c0,-2.768 0.98,-6.584 10.591,-6.584c9.079,0 11.359,5.377 11.359,11.013l0.016,26.896c0,1.849 0.907,1.849 4.202,1.849c3.316,0 4.215,0 4.215,-1.849l0,-26.896zm213.096,-6.234c0,-3.231 3.466,-4.95 7.275,-4.95c6.49,0 5.758,5.174 10.395,5.174c2.105,0 3.394,-1.199 3.394,-3.272c0,-3.568 -4.747,-5.937 -12.123,-6.177c-7.071,-0.228 -10.737,1.02 -13.27,2.007c-2.84,1.11 -4.091,2.723 -4.091,5.251l0,35.06c0,1.85 0.897,1.85 4.214,1.85c3.304,0 4.206,0 4.206,-1.85l0,-33.093" class="" fill-opacity="1"/>
    
   
  
 </g>
</svg>