<?xml version="1.0" encoding="UTF-8" standalone="no"?>
<svg
   xmlns:dc="http://purl.org/dc/elements/1.1/"
   xmlns:cc="http://creativecommons.org/ns#"
   xmlns:rdf="http://www.w3.org/1999/02/22-rdf-syntax-ns#"
   xmlns:svg="http://www.w3.org/2000/svg"
   xmlns="http://www.w3.org/2000/svg"
   xmlns:sodipodi="http://sodipodi.sourceforge.net/DTD/sodipodi-0.dtd"
   xmlns:inkscape="http://www.inkscape.org/namespaces/inkscape"
   version="1.1"
   id="svg2"
   xml:space="preserve"
   width="1511.8134"
   height="944.88135"
   viewBox="0 0 1511.8134 944.88135"
   sodipodi:docname="Vietnam-Airlines-logo.ai"><metadata
     id="metadata8"><rdf:RDF><cc:Work
         rdf:about=""><dc:format>image/svg+xml</dc:format><dc:type
           rdf:resource="http://purl.org/dc/dcmitype/StillImage" /></cc:Work></rdf:RDF></metadata><defs
     id="defs6"><clipPath
       clipPathUnits="userSpaceOnUse"
       id="clipPath18"><path
         d="M 0,708.661 H 1133.858 V 0 H 0 Z"
         id="path16" /></clipPath></defs><sodipodi:namedview
     pagecolor="#ffffff"
     bordercolor="#666666"
     borderopacity="1"
     objecttolerance="10"
     gridtolerance="10"
     guidetolerance="10"
     inkscape:pageopacity="0"
     inkscape:pageshadow="2"
     inkscape:window-width="640"
     inkscape:window-height="480"
     id="namedview4" /><g
     id="g10"
     inkscape:groupmode="layer"
     inkscape:label="Vietnam-Airlines-logo"
     transform="matrix(1.3333333,0,0,-1.3333333,0,944.88133)"><g
       id="g12"><g
         id="g14"
         clip-path="url(#clipPath18)"><g
           id="g20"
           transform="translate(227.3461,312.1311)"><path
             d="m 0,0 c -1.507,-0.859 -12.337,-10.037 -33.885,-10.037 -18.151,-0.014 -37.543,9.29 -43.628,9.108 -2.141,0.094 -3.858,-0.345 -5.202,-0.938 -2.543,-1.064 -5.021,0.495 -3.639,3.103 4.777,9.029 12.887,14.591 20.553,16.901 5.6,1.694 10.713,2.263 13.36,-0.686 5.837,-6.472 16.377,-14.46 26.619,-15.515 0.831,-0.079 4.55,-0.396 4.592,0.658 0.042,0.644 -1.228,1.064 -2.516,1.153 -10.456,0.76 -29.326,11.959 -39.69,33.647 -3.886,8.137 -6.97,16.027 -13.754,19.471 -1.498,0.718 -1.545,3.49 1.614,4.241 2.202,0.523 16.121,1.867 32.042,-6.518 7.311,-3.845 8.333,-7.293 8.361,-10.307 -0.065,-22.729 11.432,-31.753 15.874,-34.417 2.483,-1.475 4.797,-2.109 5.044,-1.335 0.196,0.649 -0.457,1.092 -1.026,1.437 -13.784,8.367 -17.423,21.241 -17.531,34.357 -0.107,12.967 4.699,24.188 8.11,33.381 0.494,1.301 2.104,6.784 0.732,11.851 -1.017,3.784 -0.186,4.885 1.806,4.885 2.184,0 5.091,-3.532 6.07,-4.745 0.784,-0.914 3.323,-4.008 7.158,-11.595 7.597,-15.015 7.653,-30.707 7.653,-32.629 0,-10.784 -2.781,-12.03 -7.317,-14.264 -4.521,-2.236 -6.672,-5.119 -6.676,-8.465 -0.005,-3.434 2.383,-7.004 6.676,-8.263 3.341,-0.976 5.451,-0.612 5.273,0.256 -0.14,0.686 -1.614,0.854 -2.044,0.971 -4.53,1.231 -7.54,3.555 -7.54,7.036 0,4.354 5.361,7.541 12.906,7.541 7.545,0 12.906,-3.187 12.906,-7.541 0,-3.485 -3.005,-5.809 -7.535,-7.041 -0.429,-0.112 -1.904,-0.28 -2.044,-0.966 -0.177,-0.868 1.937,-1.236 5.273,-0.256 4.293,1.25 6.681,4.829 6.676,8.263 -0.003,3.341 -2.155,6.225 -6.681,8.465 -4.526,2.234 -7.312,3.48 -7.312,14.259 0,1.922 0.061,17.619 7.648,32.634 3.836,7.583 6.384,10.681 7.163,11.59 0.979,1.218 3.887,4.75 6.065,4.75 1.997,0 2.827,-1.101 1.806,-4.885 -1.372,-5.067 0.238,-10.554 0.742,-11.851 3.402,-9.202 8.217,-20.419 8.105,-33.381 C 32.704,31.207 29.056,18.328 15.276,9.962 14.702,9.621 14.049,9.173 14.255,8.529 14.497,7.75 16.807,8.38 19.284,9.864 c 4.452,2.664 15.949,11.688 15.884,34.417 0.028,3.014 1.05,6.462 8.356,10.307 15.926,8.38 29.849,7.037 32.052,6.518 3.154,-0.751 3.103,-3.527 1.61,-4.246 C 70.401,53.421 67.317,45.531 63.43,37.394 53.063,15.706 34.197,4.502 23.736,3.747 22.448,3.658 21.184,3.233 21.226,2.585 c 0.042,-1.045 3.76,-0.733 4.591,-0.649 10.238,1.05 20.778,9.043 26.616,15.515 2.65,2.94 7.763,2.38 13.363,0.686 7.671,-2.31 15.775,-7.872 20.549,-16.906 1.382,-2.607 -1.087,-4.162 -3.635,-3.098 -1.344,0.588 -3.065,1.022 -5.207,0.938 -6.08,0.178 -25.467,-9.122 -43.628,-9.113 C 12.327,-10.042 1.507,-0.859 0,0"
             style="fill:#dd9712;fill-opacity:1;fill-rule:nonzero;stroke:none"
             id="path22" /></g><g
           id="g24"
           transform="translate(461.2778,355.428)"><path
             d="m 0,0 c -2.263,-0.037 -5.343,-0.004 -5.343,-0.004 -1.525,0 -1.535,-0.845 -1.535,-2.562 0,-1.642 0,-2.501 1.531,-2.501 H 0 c 1.102,0.005 1.144,-0.117 1.129,-1.265 -0.027,-2.417 0,-31.57 0,-31.57 0,-11.493 6.145,-12.865 12.23,-12.958 6.01,-0.084 9.957,1.694 9.887,3.817 -0.042,1.232 -0.858,1.787 -2.253,1.628 -0.985,-0.111 -1.676,-0.41 -2.991,-0.41 -3.188,0 -7.2,0.859 -7.2,7.844 V -6.43 c -0.009,1.218 0,1.368 1.214,1.363 h 8.706 c 1.526,0 1.577,0.859 1.577,2.501 0,1.689 -0.051,2.571 -1.577,2.571 h -8.753 c -1.171,0 -1.157,0.112 -1.167,1.134 v 10.615 c 0,1.703 -1.292,2.305 -2.333,2.216 C 7.709,13.905 6.804,13.41 4.657,12.006 1.857,10.172 1.129,9.006 1.129,5.66 V 1.213 C 1.125,-0.004 1.073,0.019 0,0 m -118.093,-46.656 c 1.325,-3.158 1.628,-3.406 6.672,-3.406 4.849,0 4.956,0.196 6.37,3.439 1.408,3.238 19.822,49.516 24.706,61.62 1.083,2.692 0.616,2.921 -3.727,2.921 -3.799,0 -4.149,-0.219 -4.872,-1.857 0,0 -20.628,-52.745 -21.072,-53.968 -0.112,-0.341 -0.55,-0.368 -0.737,0.047 -0.663,1.493 -21.604,54.07 -21.604,54.07 -0.504,1.349 -0.63,1.829 -6.286,1.829 -6.168,0 -5.757,-0.588 -4.535,-3.625 0.299,-0.728 23.765,-57.911 25.085,-61.07 m 603.437,11.535 c 0,0.863 -0.662,1.74 -1.885,1.74 -1.115,0 -1.671,-0.392 -2.338,-1.549 -2.561,-4.344 -8.847,-9.435 -17.208,-9.519 -11.292,-0.102 -17.81,8.007 -17.521,20.545 0,0.429 0.182,0.798 0.826,0.812 0.653,0.019 17.67,0.032 34.842,0 3.284,-0.005 3.336,2.175 3.336,3.975 0,10.387 -9.673,19.976 -23.545,19.976 -14.395,0 -25.463,-7.853 -25.463,-25.925 0,-19.228 14.372,-26.046 26.62,-26.046 14.805,0 22.336,11.446 22.336,15.991 m -38.83,18.174 c 0.853,6.033 5.464,12.71 14.552,12.785 7.625,0.061 14.312,-4.568 14.666,-11.38 0.098,-1.96 -0.416,-2.203 -2.749,-2.203 h -25.732 c -0.715,0 -0.808,0.322 -0.737,0.798 M -9.341,-35.121 c 0,0.863 -0.668,1.74 -1.89,1.74 -1.115,0 -1.68,-0.392 -2.342,-1.549 -2.562,-4.344 -8.842,-9.435 -17.199,-9.519 -11.297,-0.102 -17.811,8.007 -17.521,20.545 0,0.429 0.172,0.798 0.82,0.812 0.65,0.019 17.676,0.032 34.837,0 3.29,-0.005 3.346,2.175 3.346,3.975 0,10.387 -9.673,19.976 -23.545,19.976 -14.404,0 -25.463,-7.853 -25.463,-25.925 0,-19.228 14.367,-26.046 26.615,-26.046 14.811,0 22.342,11.446 22.342,15.991 m -38.836,18.174 c 0.859,6.033 5.464,12.71 14.558,12.785 7.62,0.061 14.311,-4.568 14.661,-11.38 0.103,-1.96 -0.42,-2.203 -2.748,-2.203 h -25.729 c -0.718,0 -0.807,0.322 -0.742,0.798 M 194.98,-47.939 c 0,-2.123 1.037,-2.104 4.83,-2.114 3.789,-0.009 4.834,-0.009 4.834,2.114 v 32.793 c 0,13.037 -12.235,15.739 -19.481,15.739 -8.469,0 -13.289,-2.422 -16.583,-6.066 -3.518,3.831 -8.222,6.066 -16.457,6.066 -5.67,0 -11.203,-1.358 -16.163,-3.556 -3.574,-1.586 -3.574,-3.695 -3.574,-5.739 v -39.237 c 0,-2.123 1.053,-2.123 4.834,-2.123 3.779,0 4.824,0 4.824,2.123 l 0.015,36.544 c 0,5.451 4.372,6.948 10.106,6.953 7.139,0 11.506,-3.359 11.506,-11.777 v -31.72 c 0,-2.123 1.046,-2.123 4.844,-2.123 3.784,0 4.815,0 4.815,2.123 v 32.34 c 0,6.416 3.355,11.19 11.045,11.19 7.465,0 10.652,-4.872 10.652,-11.334 z M -65.969,14.395 c -0.541,2.52 -3.349,4.05 -6.579,3.369 -3.238,-0.681 -5.179,-3.215 -4.633,-5.735 0.541,-2.519 3.35,-4.054 6.584,-3.373 3.234,0.681 5.17,3.215 4.628,5.739 m 179.62,-53.809 c 0,-5.119 -6.654,-6.462 -11.572,-6.462 -8.679,0 -12.999,3.709 -12.999,8.608 0,8.917 11.521,12.137 23.53,14.666 0.64,0.13 1.032,0.201 1.032,-0.71 z m -11.063,-11.74 c 8.058,-0.056 12.15,1.382 16.989,3.602 3.625,1.713 3.625,3.635 3.625,5.856 v 27.647 c 0,10.54 -8.758,14.917 -18.794,14.899 -16.374,-0.042 -22.892,-7.07 -23.153,-11.624 -0.14,-2.421 1.311,-4.194 4.139,-4.255 2.739,-0.065 4.385,1.745 5.025,3.247 2.016,4.708 5.482,7.62 12.636,7.62 5.599,0 10.605,-2.562 10.587,-9.22 v -2.94 c 0,-0.9 0,-1.087 -0.784,-1.18 -14.754,-2.366 -33.908,-6.999 -33.908,-20.549 0,-8.428 10.112,-13.089 23.638,-13.103 m -178.999,3.299 c 0,-2.118 1.041,-2.118 4.815,-2.118 3.798,0 4.844,0 4.844,2.118 l 0.032,45.872 c 0.042,3.374 -4.6,2.525 -6.97,0.98 -2.651,-1.726 -2.735,-2.59 -2.735,-5.935 z m 608.392,11.376 c -0.377,16.933 -31.99,13.826 -32,25.63 -0.004,4.615 4.742,6.743 9.883,6.743 7.406,0 9.855,-2.473 11.404,-6.08 0.728,-1.68 2.188,-3.224 5.006,-3.224 2.133,0 3.929,1.353 3.929,3.845 0,3.747 -5.207,10.344 -19.429,10.442 -11.777,0.08 -19.752,-4.409 -19.76,-13.713 -0.015,-17.433 31.64,-13.714 31.579,-25.794 -0.019,-4.993 -4.67,-7.303 -11.427,-7.372 -6.742,-0.07 -10.345,2.664 -12.29,7.386 -0.947,1.918 -2.203,3.649 -5.143,3.597 -2.64,-0.042 -4.212,-1.74 -4.212,-4.335 0,-3.545 6.182,-11.8 21.197,-11.8 12.3,0 21.482,4.956 21.263,14.675 m -101.92,19.416 c 0.028,15.281 -13.29,17.703 -22.953,17.703 -7.801,0 -14.791,-1.97 -18.081,-3.421 -3.252,-1.437 -3.527,-3.233 -3.527,-6.21 l 0.028,-38.952 c 0,-2.119 1.04,-2.119 4.829,-2.119 3.808,0 4.839,0 4.839,2.119 l -0.009,35.965 c 0,3.173 1.125,7.564 12.15,7.564 10.429,0 13.037,-6.173 13.037,-12.649 l 0.023,-30.88 c 0,-2.119 1.04,-2.119 4.821,-2.119 3.816,0 4.843,0 4.843,2.119 z M 365.31,-47.855 c 0,-2.118 1.045,-2.118 4.82,-2.118 3.798,0 4.844,0 4.844,2.118 l 0.032,45.872 c 0.042,3.374 -4.596,2.525 -6.966,0.98 -2.65,-1.726 -2.739,-2.59 -2.739,-5.935 z m 10.447,62.25 c -0.541,2.52 -3.345,4.05 -6.579,3.369 -3.234,-0.681 -5.174,-3.215 -4.633,-5.735 0.536,-2.519 3.35,-4.054 6.579,-3.373 3.238,0.681 5.179,3.215 4.633,5.739 m -30.899,-62.278 c 0,-2.123 1.046,-2.123 4.811,-2.123 3.804,0 4.849,0 4.849,2.123 l 0.037,65.754 c 0.037,3.369 -4.606,2.529 -6.976,0.98 -2.645,-1.726 -2.734,-2.59 -2.734,-5.935 z m -45.503,62.292 c -0.541,2.524 -3.345,4.064 -6.579,3.373 -3.238,-0.676 -5.174,-3.205 -4.633,-5.729 0.542,-2.52 3.35,-4.055 6.584,-3.374 3.238,0.681 5.169,3.215 4.628,5.73 m -34.911,-44.034 c 3.289,-7.815 7.825,-18.706 7.825,-18.706 0.565,-1.39 0.056,-1.731 5.767,-1.731 6.062,0 6.425,0.196 5.231,2.893 -0.322,0.728 -24.367,58.489 -25.705,61.639 -1.335,3.158 -1.914,3.387 -6.916,3.387 -4.951,0 -5.599,-0.126 -6.97,-3.387 -1.396,-3.313 -25.533,-61.331 -25.832,-62.059 -1.022,-2.473 -0.112,-2.473 3.99,-2.473 3.84,0 4.288,0.122 5.016,1.759 l 7.447,18.632 c 0.443,1.124 0.588,1.577 1.913,1.577 5.095,0 19.611,0 26.307,0.023 1.283,0.009 1.419,-0.364 1.927,-1.554 m -26.722,8.861 c 1.432,3.654 10.615,27.67 11.1,29.023 0.145,0.383 0.532,0.383 0.691,-0.019 0.653,-1.679 9.924,-25.271 11.3,-28.925 0.304,-0.802 0.416,-1.455 -0.643,-1.455 h -21.669 c -1.32,0 -1.008,0.802 -0.779,1.376 m 51.191,-27.068 c 0,-2.118 1.045,-2.118 4.816,-2.118 3.797,0 4.842,0 4.842,2.118 l 0.037,45.873 c 0.042,3.373 -4.6,2.528 -6.97,0.98 -2.651,-1.727 -2.74,-2.595 -2.74,-5.936 z M 72.865,-17.017 C 72.894,-1.731 59.567,0.682 49.908,0.682 42.116,0.682 35.117,-1.288 31.827,-2.739 28.58,-4.176 28.305,-5.972 28.305,-8.94 l 0.023,-38.957 c 0,-2.123 1.045,-2.123 4.834,-2.123 3.803,0 4.838,0 4.838,2.123 l -0.019,35.966 c 0,3.178 1.125,7.559 12.161,7.559 10.423,0 13.042,-6.173 13.042,-12.645 l 0.018,-30.88 c 0,-2.123 1.04,-2.123 4.824,-2.123 3.808,0 4.839,0 4.839,2.123 z m 244.664,7.158 c 0,3.709 3.981,5.683 8.353,5.683 7.452,0 6.612,-5.94 11.935,-5.94 2.417,0 3.897,1.377 3.897,3.756 0,4.097 -5.45,6.818 -13.919,7.093 -8.119,0.261 -12.328,-1.171 -15.234,-2.305 -3.262,-1.274 -4.7,-3.127 -4.7,-6.029 v -40.254 c 0,-2.123 1.032,-2.123 4.839,-2.123 3.794,0 4.829,0 4.829,2.123 v 37.996"
             style="fill:#005e80;fill-opacity:1;fill-rule:evenodd;stroke:none"
             id="path26" /></g></g></g></g></svg>
